<?xml version="1.0" encoding="utf-8" standalone="no"?>
<!DOCTYPE svg PUBLIC "-//W3C//DTD SVG 1.1//EN"
  "http://www.w3.org/Graphics/SVG/1.1/DTD/svg11.dtd">
<svg xmlns:xlink="http://www.w3.org/1999/xlink" width="576pt" height="360pt" viewBox="0 0 576 360" xmlns="http://www.w3.org/2000/svg" version="1.1">
 <metadata>
  <rdf:RDF xmlns:dc="http://purl.org/dc/elements/1.1/" xmlns:cc="http://creativecommons.org/ns#" xmlns:rdf="http://www.w3.org/1999/02/22-rdf-syntax-ns#">
   <cc:Work>
    <dc:type rdf:resource="http://purl.org/dc/dcmitype/StillImage"/>
    <dc:date>2025-08-26T08:49:37.766821</dc:date>
    <dc:format>image/svg+xml</dc:format>
    <dc:creator>
     <cc:Agent>
      <dc:title>Matplotlib v3.10.5, https://matplotlib.org/</dc:title>
     </cc:Agent>
    </dc:creator>
   </cc:Work>
  </rdf:RDF>
 </metadata>
 <defs>
  <style type="text/css">*{stroke-linejoin: round; stroke-linecap: butt}</style>
 </defs>
 <g id="figure_1">
  <g id="patch_1">
   <path d="M 0 360 
L 576 360 
L 576 0 
L 0 0 
L 0 360 
z
" style="fill: none"/>
  </g>
  <g id="axes_1">
   <g id="patch_2">
    <path d="M 72 320.4 
L 518.4 320.4 
L 518.4 43.2 
L 72 43.2 
L 72 320.4 
z
" style="fill: none"/>
   </g>
   <g id="FillBetweenPolyCollection_1">
    <defs>
     <path id="m436759d83a" d="M 195.878133 -52.2 
L 195.878133 -89.263677 
L 196.284357 -89.848183 
L 196.690581 -90.439456 
L 197.096806 -91.037523 
L 197.50303 -91.642415 
L 197.909255 -92.25416 
L 198.315479 -92.872784 
L 198.721704 -93.498314 
L 199.127928 -94.130776 
L 199.534152 -94.770193 
L 199.940377 -95.41659 
L 200.346601 -96.069988 
L 200.752826 -96.730409 
L 201.15905 -97.397874 
L 201.565274 -98.072401 
L 201.971499 -98.75401 
L 202.377723 -99.442717 
L 202.783948 -100.138538 
L 203.190172 -100.841488 
L 203.596396 -101.551581 
L 204.002621 -102.268829 
L 204.408845 -102.993244 
L 204.81507 -103.724836 
L 205.221294 -104.463614 
L 205.627518 -105.209584 
L 206.033743 -105.962755 
L 206.439967 -106.72313 
L 206.846192 -107.490713 
L 207.252416 -108.265507 
L 207.65864 -109.047512 
L 208.064865 -109.836729 
L 208.471089 -110.633155 
L 208.877314 -111.436788 
L 209.283538 -112.247622 
L 209.689762 -113.065651 
L 210.095987 -113.890868 
L 210.502211 -114.723263 
L 210.908436 -115.562827 
L 211.31466 -116.409547 
L 211.720885 -117.263408 
L 212.127109 -118.124397 
L 212.533333 -118.992496 
L 212.939558 -119.867686 
L 213.345782 -120.749949 
L 213.752007 -121.639261 
L 214.158231 -122.535599 
L 214.564455 -123.438939 
L 214.97068 -124.349255 
L 215.376904 -125.266516 
L 215.783129 -126.190694 
L 216.189353 -127.121757 
L 216.595577 -128.059671 
L 217.001802 -129.004401 
L 217.408026 -129.955909 
L 217.814251 -130.914158 
L 218.220475 -131.879106 
L 218.626699 -132.850711 
L 219.032924 -133.828929 
L 219.439148 -134.813714 
L 219.845373 -135.805018 
L 220.251597 -136.802791 
L 220.657821 -137.806982 
L 221.064046 -138.817537 
L 221.47027 -139.834402 
L 221.876495 -140.857518 
L 222.282719 -141.886828 
L 222.688943 -142.92227 
L 223.095168 -143.963781 
L 223.501392 -145.011297 
L 223.907617 -146.064751 
L 224.313841 -147.124075 
L 224.720066 -148.189198 
L 225.12629 -149.260048 
L 225.532514 -150.336552 
L 225.938739 -151.418631 
L 226.344963 -152.50621 
L 226.751188 -153.599207 
L 227.157412 -154.697541 
L 227.563636 -155.801128 
L 227.969861 -156.909882 
L 228.376085 -158.023715 
L 228.78231 -159.142539 
L 229.188534 -160.266261 
L 229.594758 -161.394788 
L 230.000983 -162.528025 
L 230.407207 -163.665874 
L 230.813432 -164.808237 
L 231.219656 -165.955012 
L 231.62588 -167.106097 
L 232.032105 -168.261386 
L 232.438329 -169.420774 
L 232.844554 -170.584151 
L 233.250778 -171.751408 
L 233.657002 -172.922431 
L 234.063227 -174.097108 
L 234.469451 -175.275322 
L 234.875676 -176.456955 
L 235.2819 -177.641889 
L 235.688124 -178.830001 
L 236.094349 -180.021169 
L 236.500573 -181.215269 
L 236.906798 -182.412173 
L 237.313022 -183.611754 
L 237.719247 -184.813881 
L 238.125471 -186.018423 
L 238.531695 -187.225247 
L 238.93792 -188.434218 
L 239.344144 -189.645199 
L 239.750369 -190.858053 
L 240.156593 -192.072638 
L 240.562817 -193.288815 
L 240.969042 -194.506441 
L 241.375266 -195.72537 
L 241.781491 -196.945458 
L 242.187715 -198.166557 
L 242.593939 -199.388517 
L 243.000164 -200.61119 
L 243.406388 -201.834423 
L 243.812613 -203.058064 
L 244.218837 -204.281958 
L 244.625061 -205.50595 
L 245.031286 -206.729883 
L 245.43751 -207.953598 
L 245.843735 -209.176938 
L 246.249959 -210.39974 
L 246.656183 -211.621844 
L 247.062408 -212.843086 
L 247.468632 -214.063304 
L 247.874857 -215.282332 
L 248.281081 -216.500003 
L 248.687305 -217.716152 
L 249.09353 -218.930611 
L 249.499754 -220.14321 
L 249.905979 -221.35378 
L 250.312203 -222.562151 
L 250.718428 -223.768152 
L 251.124652 -224.97161 
L 251.530876 -226.172352 
L 251.937101 -227.370206 
L 252.343325 -228.564998 
L 252.74955 -229.756551 
L 253.155774 -230.944693 
L 253.561998 -232.129246 
L 253.968223 -233.310034 
L 254.374447 -234.486881 
L 254.780672 -235.65961 
L 255.186896 -236.828044 
L 255.59312 -237.992004 
L 255.999345 -239.151313 
L 256.405569 -240.305793 
L 256.811794 -241.455264 
L 257.218018 -242.59955 
L 257.624242 -243.738471 
L 258.030467 -244.871848 
L 258.436691 -245.999504 
L 258.842916 -247.121259 
L 259.24914 -248.236935 
L 259.655364 -249.346354 
L 260.061589 -250.449338 
L 260.467813 -251.545708 
L 260.874038 -252.635288 
L 261.280262 -253.7179 
L 261.686486 -254.793366 
L 262.092711 -255.861512 
L 262.498935 -256.92216 
L 262.90516 -257.975136 
L 263.311384 -259.020264 
L 263.717609 -260.057371 
L 264.123833 -261.086282 
L 264.530057 -262.106825 
L 264.936282 -263.118827 
L 265.342506 -264.122118 
L 265.748731 -265.116527 
L 266.154955 -266.101885 
L 266.561179 -267.078022 
L 266.967404 -268.044772 
L 267.373628 -269.001968 
L 267.779853 -269.949445 
L 268.186077 -270.887037 
L 268.592301 -271.814583 
L 268.998526 -272.73192 
L 269.40475 -273.638888 
L 269.810975 -274.535328 
L 270.217199 -275.421081 
L 270.623423 -276.295992 
L 271.029648 -277.159905 
L 271.435872 -278.012667 
L 271.842097 -278.854127 
L 272.248321 -279.684133 
L 272.654545 -280.502538 
L 273.06077 -281.309195 
L 273.466994 -282.103957 
L 273.873219 -282.886683 
L 274.279443 -283.65723 
L 274.685667 -284.415459 
L 275.091892 -285.161232 
L 275.498116 -285.894413 
L 275.904341 -286.614868 
L 276.310565 -287.322466 
L 276.71679 -288.017077 
L 277.123014 -288.698574 
L 277.529238 -289.36683 
L 277.935463 -290.021723 
L 278.341687 -290.663132 
L 278.747912 -291.290937 
L 279.154136 -291.905023 
L 279.56036 -292.505276 
L 279.966585 -293.091583 
L 280.372809 -293.663835 
L 280.779034 -294.221926 
L 281.185258 -294.765751 
L 281.591482 -295.295209 
L 281.997707 -295.810199 
L 282.403931 -296.310625 
L 282.810156 -296.796393 
L 283.21638 -297.267412 
L 283.622604 -297.723592 
L 284.028829 -298.164848 
L 284.435053 -298.591095 
L 284.841278 -299.002254 
L 285.247502 -299.398246 
L 285.653726 -299.778996 
L 286.059951 -300.144432 
L 286.466175 -300.494483 
L 286.8724 -300.829085 
L 287.278624 -301.148172 
L 287.684848 -301.451684 
L 288.091073 -301.739564 
L 288.497297 -302.011755 
L 288.903522 -302.268206 
L 289.309746 -302.508868 
L 289.715971 -302.733695 
L 290.122195 -302.942644 
L 290.528419 -303.135674 
L 290.934644 -303.312749 
L 291.340868 -303.473835 
L 291.747093 -303.6189 
L 292.153317 -303.747917 
L 292.559541 -303.860862 
L 292.965766 -303.957712 
L 293.37199 -304.038449 
L 293.778215 -304.103057 
L 294.184439 -304.151524 
L 294.590663 -304.18384 
L 294.996888 -304.2 
L 295.403112 -304.2 
L 295.809337 -304.18384 
L 296.215561 -304.151524 
L 296.621785 -304.103057 
L 297.02801 -304.038449 
L 297.434234 -303.957712 
L 297.840459 -303.860862 
L 298.246683 -303.747917 
L 298.652907 -303.6189 
L 299.059132 -303.473835 
L 299.465356 -303.312749 
L 299.871581 -303.135674 
L 300.277805 -302.942644 
L 300.684029 -302.733695 
L 301.090254 -302.508868 
L 301.496478 -302.268206 
L 301.902703 -302.011755 
L 302.308927 -301.739564 
L 302.715152 -301.451684 
L 303.121376 -301.148172 
L 303.5276 -300.829085 
L 303.933825 -300.494483 
L 304.340049 -300.144432 
L 304.746274 -299.778996 
L 305.152498 -299.398246 
L 305.558722 -299.002254 
L 305.964947 -298.591095 
L 306.371171 -298.164848 
L 306.777396 -297.723592 
L 307.18362 -297.267412 
L 307.589844 -296.796393 
L 307.996069 -296.310625 
L 308.402293 -295.810199 
L 308.808518 -295.295209 
L 309.214742 -294.765751 
L 309.620966 -294.221926 
L 310.027191 -293.663835 
L 310.433415 -293.091583 
L 310.83964 -292.505276 
L 311.245864 -291.905023 
L 311.652088 -291.290937 
L 312.058313 -290.663132 
L 312.464537 -290.021723 
L 312.870762 -289.36683 
L 313.276986 -288.698574 
L 313.68321 -288.017077 
L 314.089435 -287.322466 
L 314.495659 -286.614868 
L 314.901884 -285.894413 
L 315.308108 -285.161232 
L 315.714333 -284.415459 
L 316.120557 -283.65723 
L 316.526781 -282.886683 
L 316.933006 -282.103957 
L 317.33923 -281.309195 
L 317.745455 -280.502538 
L 318.151679 -279.684133 
L 318.557903 -278.854127 
L 318.964128 -278.012667 
L 319.370352 -277.159905 
L 319.776577 -276.295992 
L 320.182801 -275.421081 
L 320.589025 -274.535328 
L 320.99525 -273.638888 
L 321.401474 -272.73192 
L 321.807699 -271.814583 
L 322.213923 -270.887037 
L 322.620147 -269.949445 
L 323.026372 -269.001968 
L 323.432596 -268.044772 
L 323.838821 -267.078022 
L 324.245045 -266.101885 
L 324.651269 -265.116527 
L 325.057494 -264.122118 
L 325.463718 -263.118827 
L 325.869943 -262.106825 
L 326.276167 -261.086282 
L 326.682391 -260.057371 
L 327.088616 -259.020264 
L 327.49484 -257.975136 
L 327.901065 -256.92216 
L 328.307289 -255.861512 
L 328.713514 -254.793366 
L 329.119738 -253.7179 
L 329.525962 -252.635288 
L 329.932187 -251.545708 
L 330.338411 -250.449338 
L 330.744636 -249.346354 
L 331.15086 -248.236935 
L 331.557084 -247.121259 
L 331.963309 -245.999504 
L 332.369533 -244.871848 
L 332.775758 -243.738471 
L 333.181982 -242.59955 
L 333.588206 -241.455264 
L 333.994431 -240.305793 
L 334.400655 -239.151313 
L 334.80688 -237.992004 
L 335.213104 -236.828044 
L 335.619328 -235.65961 
L 336.025553 -234.486881 
L 336.431777 -233.310034 
L 336.838002 -232.129246 
L 337.244226 -230.944693 
L 337.65045 -229.756551 
L 338.056675 -228.564998 
L 338.462899 -227.370206 
L 338.869124 -226.172352 
L 339.275348 -224.97161 
L 339.681572 -223.768152 
L 340.087797 -222.562151 
L 340.494021 -221.35378 
L 340.900246 -220.14321 
L 341.30647 -218.930611 
L 341.712695 -217.716152 
L 342.118919 -216.500003 
L 342.525143 -215.282332 
L 342.931368 -214.063304 
L 343.337592 -212.843086 
L 343.743817 -211.621844 
L 344.150041 -210.39974 
L 344.556265 -209.176938 
L 344.96249 -207.953598 
L 345.368714 -206.729883 
L 345.774939 -205.50595 
L 346.181163 -204.281958 
L 346.587387 -203.058064 
L 346.993612 -201.834423 
L 347.399836 -200.61119 
L 347.806061 -199.388517 
L 348.212285 -198.166557 
L 348.618509 -196.945458 
L 349.024734 -195.72537 
L 349.430958 -194.506441 
L 349.837183 -193.288815 
L 350.243407 -192.072638 
L 350.649631 -190.858053 
L 351.055856 -189.645199 
L 351.46208 -188.434218 
L 351.868305 -187.225247 
L 352.274529 -186.018423 
L 352.680753 -184.813881 
L 353.086978 -183.611754 
L 353.493202 -182.412173 
L 353.899427 -181.215269 
L 354.305651 -180.021169 
L 354.711876 -178.830001 
L 355.1181 -177.641889 
L 355.524324 -176.456955 
L 355.930549 -175.275322 
L 356.336773 -174.097108 
L 356.742998 -172.922431 
L 357.149222 -171.751408 
L 357.555446 -170.584151 
L 357.961671 -169.420774 
L 358.367895 -168.261386 
L 358.77412 -167.106097 
L 359.180344 -165.955012 
L 359.586568 -164.808237 
L 359.992793 -163.665874 
L 360.399017 -162.528025 
L 360.805242 -161.394788 
L 361.211466 -160.266261 
L 361.61769 -159.142539 
L 362.023915 -158.023715 
L 362.430139 -156.909882 
L 362.836364 -155.801128 
L 363.242588 -154.697541 
L 363.648812 -153.599207 
L 364.055037 -152.50621 
L 364.461261 -151.418631 
L 364.867486 -150.336552 
L 365.27371 -149.260048 
L 365.679934 -148.189198 
L 366.086159 -147.124075 
L 366.492383 -146.064751 
L 366.898608 -145.011297 
L 367.304832 -143.963781 
L 367.711057 -142.92227 
L 368.117281 -141.886828 
L 368.523505 -140.857518 
L 368.92973 -139.834402 
L 369.335954 -138.817537 
L 369.742179 -137.806982 
L 370.148403 -136.802791 
L 370.554627 -135.805018 
L 370.960852 -134.813714 
L 371.367076 -133.828929 
L 371.773301 -132.850711 
L 372.179525 -131.879106 
L 372.585749 -130.914158 
L 372.991974 -129.955909 
L 373.398198 -129.004401 
L 373.804423 -128.059671 
L 374.210647 -127.121757 
L 374.616871 -126.190694 
L 375.023096 -125.266516 
L 375.42932 -124.349255 
L 375.835545 -123.438939 
L 376.241769 -122.535599 
L 376.647993 -121.639261 
L 377.054218 -120.749949 
L 377.460442 -119.867686 
L 377.866667 -118.992496 
L 378.272891 -118.124397 
L 378.679115 -117.263408 
L 379.08534 -116.409547 
L 379.491564 -115.562827 
L 379.897789 -114.723263 
L 380.304013 -113.890868 
L 380.710238 -113.065651 
L 381.116462 -112.247622 
L 381.522686 -111.436788 
L 381.928911 -110.633155 
L 382.335135 -109.836729 
L 382.74136 -109.047512 
L 383.147584 -108.265507 
L 383.553808 -107.490713 
L 383.960033 -106.72313 
L 384.366257 -105.962755 
L 384.772482 -105.209584 
L 385.178706 -104.463614 
L 385.58493 -103.724836 
L 385.991155 -102.993244 
L 386.397379 -102.268829 
L 386.803604 -101.551581 
L 387.209828 -100.841488 
L 387.616052 -100.138538 
L 388.022277 -99.442717 
L 388.428501 -98.75401 
L 388.834726 -98.072401 
L 389.24095 -97.397874 
L 389.647174 -96.730409 
L 390.053399 -96.069988 
L 390.459623 -95.41659 
L 390.865848 -94.770193 
L 391.272072 -94.130776 
L 391.678296 -93.498314 
L 392.084521 -92.872784 
L 392.490745 -92.25416 
L 392.89697 -91.642415 
L 393.303194 -91.037523 
L 393.709419 -90.439456 
L 394.115643 -89.848183 
L 394.521867 -89.263677 
L 394.521867 -52.2 
L 394.521867 -52.2 
L 394.115643 -52.2 
L 393.709419 -52.2 
L 393.303194 -52.2 
L 392.89697 -52.2 
L 392.490745 -52.2 
L 392.084521 -52.2 
L 391.678296 -52.2 
L 391.272072 -52.2 
L 390.865848 -52.2 
L 390.459623 -52.2 
L 390.053399 -52.2 
L 389.647174 -52.2 
L 389.24095 -52.2 
L 388.834726 -52.2 
L 388.428501 -52.2 
L 388.022277 -52.2 
L 387.616052 -52.2 
L 387.209828 -52.2 
L 386.803604 -52.2 
L 386.397379 -52.2 
L 385.991155 -52.2 
L 385.58493 -52.2 
L 385.178706 -52.2 
L 384.772482 -52.2 
L 384.366257 -52.2 
L 383.960033 -52.2 
L 383.553808 -52.2 
L 383.147584 -52.2 
L 382.74136 -52.2 
L 382.335135 -52.2 
L 381.928911 -52.2 
L 381.522686 -52.2 
L 381.116462 -52.2 
L 380.710238 -52.2 
L 380.304013 -52.2 
L 379.897789 -52.2 
L 379.491564 -52.2 
L 379.08534 -52.2 
L 378.679115 -52.2 
L 378.272891 -52.2 
L 377.866667 -52.2 
L 377.460442 -52.2 
L 377.054218 -52.2 
L 376.647993 -52.2 
L 376.241769 -52.2 
L 375.835545 -52.2 
L 375.42932 -52.2 
L 375.023096 -52.2 
L 374.616871 -52.2 
L 374.210647 -52.2 
L 373.804423 -52.2 
L 373.398198 -52.2 
L 372.991974 -52.2 
L 372.585749 -52.2 
L 372.179525 -52.2 
L 371.773301 -52.2 
L 371.367076 -52.2 
L 370.960852 -52.2 
L 370.554627 -52.2 
L 370.148403 -52.2 
L 369.742179 -52.2 
L 369.335954 -52.2 
L 368.92973 -52.2 
L 368.523505 -52.2 
L 368.117281 -52.2 
L 367.711057 -52.2 
L 367.304832 -52.2 
L 366.898608 -52.2 
L 366.492383 -52.2 
L 366.086159 -52.2 
L 365.679934 -52.2 
L 365.27371 -52.2 
L 364.867486 -52.2 
L 364.461261 -52.2 
L 364.055037 -52.2 
L 363.648812 -52.2 
L 363.242588 -52.2 
L 362.836364 -52.2 
L 362.430139 -52.2 
L 362.023915 -52.2 
L 361.61769 -52.2 
L 361.211466 -52.2 
L 360.805242 -52.2 
L 360.399017 -52.2 
L 359.992793 -52.2 
L 359.586568 -52.2 
L 359.180344 -52.2 
L 358.77412 -52.2 
L 358.367895 -52.2 
L 357.961671 -52.2 
L 357.555446 -52.2 
L 357.149222 -52.2 
L 356.742998 -52.2 
L 356.336773 -52.2 
L 355.930549 -52.2 
L 355.524324 -52.2 
L 355.1181 -52.2 
L 354.711876 -52.2 
L 354.305651 -52.2 
L 353.899427 -52.2 
L 353.493202 -52.2 
L 353.086978 -52.2 
L 352.680753 -52.2 
L 352.274529 -52.2 
L 351.868305 -52.2 
L 351.46208 -52.2 
L 351.055856 -52.2 
L 350.649631 -52.2 
L 350.243407 -52.2 
L 349.837183 -52.2 
L 349.430958 -52.2 
L 349.024734 -52.2 
L 348.618509 -52.2 
L 348.212285 -52.2 
L 347.806061 -52.2 
L 347.399836 -52.2 
L 346.993612 -52.2 
L 346.587387 -52.2 
L 346.181163 -52.2 
L 345.774939 -52.2 
L 345.368714 -52.2 
L 344.96249 -52.2 
L 344.556265 -52.2 
L 344.150041 -52.2 
L 343.743817 -52.2 
L 343.337592 -52.2 
L 342.931368 -52.2 
L 342.525143 -52.2 
L 342.118919 -52.2 
L 341.712695 -52.2 
L 341.30647 -52.2 
L 340.900246 -52.2 
L 340.494021 -52.2 
L 340.087797 -52.2 
L 339.681572 -52.2 
L 339.275348 -52.2 
L 338.869124 -52.2 
L 338.462899 -52.2 
L 338.056675 -52.2 
L 337.65045 -52.2 
L 337.244226 -52.2 
L 336.838002 -52.2 
L 336.431777 -52.2 
L 336.025553 -52.2 
L 335.619328 -52.2 
L 335.213104 -52.2 
L 334.80688 -52.2 
L 334.400655 -52.2 
L 333.994431 -52.2 
L 333.588206 -52.2 
L 333.181982 -52.2 
L 332.775758 -52.2 
L 332.369533 -52.2 
L 331.963309 -52.2 
L 331.557084 -52.2 
L 331.15086 -52.2 
L 330.744636 -52.2 
L 330.338411 -52.2 
L 329.932187 -52.2 
L 329.525962 -52.2 
L 329.119738 -52.2 
L 328.713514 -52.2 
L 328.307289 -52.2 
L 327.901065 -52.2 
L 327.49484 -52.2 
L 327.088616 -52.2 
L 326.682391 -52.2 
L 326.276167 -52.2 
L 325.869943 -52.2 
L 325.463718 -52.2 
L 325.057494 -52.2 
L 324.651269 -52.2 
L 324.245045 -52.2 
L 323.838821 -52.2 
L 323.432596 -52.2 
L 323.026372 -52.2 
L 322.620147 -52.2 
L 322.213923 -52.2 
L 321.807699 -52.2 
L 321.401474 -52.2 
L 320.99525 -52.2 
L 320.589025 -52.2 
L 320.182801 -52.2 
L 319.776577 -52.2 
L 319.370352 -52.2 
L 318.964128 -52.2 
L 318.557903 -52.2 
L 318.151679 -52.2 
L 317.745455 -52.2 
L 317.33923 -52.2 
L 316.933006 -52.2 
L 316.526781 -52.2 
L 316.120557 -52.2 
L 315.714333 -52.2 
L 315.308108 -52.2 
L 314.901884 -52.2 
L 314.495659 -52.2 
L 314.089435 -52.2 
L 313.68321 -52.2 
L 313.276986 -52.2 
L 312.870762 -52.2 
L 312.464537 -52.2 
L 312.058313 -52.2 
L 311.652088 -52.2 
L 311.245864 -52.2 
L 310.83964 -52.2 
L 310.433415 -52.2 
L 310.027191 -52.2 
L 309.620966 -52.2 
L 309.214742 -52.2 
L 308.808518 -52.2 
L 308.402293 -52.2 
L 307.996069 -52.2 
L 307.589844 -52.2 
L 307.18362 -52.2 
L 306.777396 -52.2 
L 306.371171 -52.2 
L 305.964947 -52.2 
L 305.558722 -52.2 
L 305.152498 -52.2 
L 304.746274 -52.2 
L 304.340049 -52.2 
L 303.933825 -52.2 
L 303.5276 -52.2 
L 303.121376 -52.2 
L 302.715152 -52.2 
L 302.308927 -52.2 
L 301.902703 -52.2 
L 301.496478 -52.2 
L 301.090254 -52.2 
L 300.684029 -52.2 
L 300.277805 -52.2 
L 299.871581 -52.2 
L 299.465356 -52.2 
L 299.059132 -52.2 
L 298.652907 -52.2 
L 298.246683 -52.2 
L 297.840459 -52.2 
L 297.434234 -52.2 
L 297.02801 -52.2 
L 296.621785 -52.2 
L 296.215561 -52.2 
L 295.809337 -52.2 
L 295.403112 -52.2 
L 294.996888 -52.2 
L 294.590663 -52.2 
L 294.184439 -52.2 
L 293.778215 -52.2 
L 293.37199 -52.2 
L 292.965766 -52.2 
L 292.559541 -52.2 
L 292.153317 -52.2 
L 291.747093 -52.2 
L 291.340868 -52.2 
L 290.934644 -52.2 
L 290.528419 -52.2 
L 290.122195 -52.2 
L 289.715971 -52.2 
L 289.309746 -52.2 
L 288.903522 -52.2 
L 288.497297 -52.2 
L 288.091073 -52.2 
L 287.684848 -52.2 
L 287.278624 -52.2 
L 286.8724 -52.2 
L 286.466175 -52.2 
L 286.059951 -52.2 
L 285.653726 -52.2 
L 285.247502 -52.2 
L 284.841278 -52.2 
L 284.435053 -52.2 
L 284.028829 -52.2 
L 283.622604 -52.2 
L 283.21638 -52.2 
L 282.810156 -52.2 
L 282.403931 -52.2 
L 281.997707 -52.2 
L 281.591482 -52.2 
L 281.185258 -52.2 
L 280.779034 -52.2 
L 280.372809 -52.2 
L 279.966585 -52.2 
L 279.56036 -52.2 
L 279.154136 -52.2 
L 278.747912 -52.2 
L 278.341687 -52.2 
L 277.935463 -52.2 
L 277.529238 -52.2 
L 277.123014 -52.2 
L 276.71679 -52.2 
L 276.310565 -52.2 
L 275.904341 -52.2 
L 275.498116 -52.2 
L 275.091892 -52.2 
L 274.685667 -52.2 
L 274.279443 -52.2 
L 273.873219 -52.2 
L 273.466994 -52.2 
L 273.06077 -52.2 
L 272.654545 -52.2 
L 272.248321 -52.2 
L 271.842097 -52.2 
L 271.435872 -52.2 
L 271.029648 -52.2 
L 270.623423 -52.2 
L 270.217199 -52.2 
L 269.810975 -52.2 
L 269.40475 -52.2 
L 268.998526 -52.2 
L 268.592301 -52.2 
L 268.186077 -52.2 
L 267.779853 -52.2 
L 267.373628 -52.2 
L 266.967404 -52.2 
L 266.561179 -52.2 
L 266.154955 -52.2 
L 265.748731 -52.2 
L 265.342506 -52.2 
L 264.936282 -52.2 
L 264.530057 -52.2 
L 264.123833 -52.2 
L 263.717609 -52.2 
L 263.311384 -52.2 
L 262.90516 -52.2 
L 262.498935 -52.2 
L 262.092711 -52.2 
L 261.686486 -52.2 
L 261.280262 -52.2 
L 260.874038 -52.2 
L 260.467813 -52.2 
L 260.061589 -52.2 
L 259.655364 -52.2 
L 259.24914 -52.2 
L 258.842916 -52.2 
L 258.436691 -52.2 
L 258.030467 -52.2 
L 257.624242 -52.2 
L 257.218018 -52.2 
L 256.811794 -52.2 
L 256.405569 -52.2 
L 255.999345 -52.2 
L 255.59312 -52.2 
L 255.186896 -52.2 
L 254.780672 -52.2 
L 254.374447 -52.2 
L 253.968223 -52.2 
L 253.561998 -52.2 
L 253.155774 -52.2 
L 252.74955 -52.2 
L 252.343325 -52.2 
L 251.937101 -52.2 
L 251.530876 -52.2 
L 251.124652 -52.2 
L 250.718428 -52.2 
L 250.312203 -52.2 
L 249.905979 -52.2 
L 249.499754 -52.2 
L 249.09353 -52.2 
L 248.687305 -52.2 
L 248.281081 -52.2 
L 247.874857 -52.2 
L 247.468632 -52.2 
L 247.062408 -52.2 
L 246.656183 -52.2 
L 246.249959 -52.2 
L 245.843735 -52.2 
L 245.43751 -52.2 
L 245.031286 -52.2 
L 244.625061 -52.2 
L 244.218837 -52.2 
L 243.812613 -52.2 
L 243.406388 -52.2 
L 243.000164 -52.2 
L 242.593939 -52.2 
L 242.187715 -52.2 
L 241.781491 -52.2 
L 241.375266 -52.2 
L 240.969042 -52.2 
L 240.562817 -52.2 
L 240.156593 -52.2 
L 239.750369 -52.2 
L 239.344144 -52.2 
L 238.93792 -52.2 
L 238.531695 -52.2 
L 238.125471 -52.2 
L 237.719247 -52.2 
L 237.313022 -52.2 
L 236.906798 -52.2 
L 236.500573 -52.2 
L 236.094349 -52.2 
L 235.688124 -52.2 
L 235.2819 -52.2 
L 234.875676 -52.2 
L 234.469451 -52.2 
L 234.063227 -52.2 
L 233.657002 -52.2 
L 233.250778 -52.2 
L 232.844554 -52.2 
L 232.438329 -52.2 
L 232.032105 -52.2 
L 231.62588 -52.2 
L 231.219656 -52.2 
L 230.813432 -52.2 
L 230.407207 -52.2 
L 230.000983 -52.2 
L 229.594758 -52.2 
L 229.188534 -52.2 
L 228.78231 -52.2 
L 228.376085 -52.2 
L 227.969861 -52.2 
L 227.563636 -52.2 
L 227.157412 -52.2 
L 226.751188 -52.2 
L 226.344963 -52.2 
L 225.938739 -52.2 
L 225.532514 -52.2 
L 225.12629 -52.2 
L 224.720066 -52.2 
L 224.313841 -52.2 
L 223.907617 -52.2 
L 223.501392 -52.2 
L 223.095168 -52.2 
L 222.688943 -52.2 
L 222.282719 -52.2 
L 221.876495 -52.2 
L 221.47027 -52.2 
L 221.064046 -52.2 
L 220.657821 -52.2 
L 220.251597 -52.2 
L 219.845373 -52.2 
L 219.439148 -52.2 
L 219.032924 -52.2 
L 218.626699 -52.2 
L 218.220475 -52.2 
L 217.814251 -52.2 
L 217.408026 -52.2 
L 217.001802 -52.2 
L 216.595577 -52.2 
L 216.189353 -52.2 
L 215.783129 -52.2 
L 215.376904 -52.2 
L 214.97068 -52.2 
L 214.564455 -52.2 
L 214.158231 -52.2 
L 213.752007 -52.2 
L 213.345782 -52.2 
L 212.939558 -52.2 
L 212.533333 -52.2 
L 212.127109 -52.2 
L 211.720885 -52.2 
L 211.31466 -52.2 
L 210.908436 -52.2 
L 210.502211 -52.2 
L 210.095987 -52.2 
L 209.689762 -52.2 
L 209.283538 -52.2 
L 208.877314 -52.2 
L 208.471089 -52.2 
L 208.064865 -52.2 
L 207.65864 -52.2 
L 207.252416 -52.2 
L 206.846192 -52.2 
L 206.439967 -52.2 
L 206.033743 -52.2 
L 205.627518 -52.2 
L 205.221294 -52.2 
L 204.81507 -52.2 
L 204.408845 -52.2 
L 204.002621 -52.2 
L 203.596396 -52.2 
L 203.190172 -52.2 
L 202.783948 -52.2 
L 202.377723 -52.2 
L 201.971499 -52.2 
L 201.565274 -52.2 
L 201.15905 -52.2 
L 200.752826 -52.2 
L 200.346601 -52.2 
L 199.940377 -52.2 
L 199.534152 -52.2 
L 199.127928 -52.2 
L 198.721704 -52.2 
L 198.315479 -52.2 
L 197.909255 -52.2 
L 197.50303 -52.2 
L 197.096806 -52.2 
L 196.690581 -52.2 
L 196.284357 -52.2 
L 195.878133 -52.2 
z
" style="stroke: #add8e6; stroke-opacity: 0.5"/>
    </defs>
    <g clip-path="url(#pd0ca0ad584)">
     <use xlink:href="#m436759d83a" x="0" y="360" style="fill: #add8e6; fill-opacity: 0.5; stroke: #add8e6; stroke-opacity: 0.5"/>
    </g>
   </g>
   <g id="matplotlib.axis_1">
    <g id="xtick_1">
     <g id="line2d_1">
      <path d="M 92.290909 320.4 
L 92.290909 43.2 
" clip-path="url(#pd0ca0ad584)" style="fill: none; stroke: #b0b0b0; stroke-width: 0.8; stroke-linecap: square"/>
     </g>
     <g id="line2d_2">
      <defs>
       <path id="m60ce940ba3" d="M 0 0 
L 0 3.5 
" style="stroke: #000000; stroke-width: 0.8"/>
      </defs>
      <g>
       <use xlink:href="#m60ce940ba3" x="92.290909" y="320.4" style="stroke: #000000; stroke-width: 0.8"/>
      </g>
     </g>
     <g id="text_1">
      <!-- −4 -->
      <g transform="translate(84.919815 334.998438) scale(0.1 -0.1)">
       <defs>
        <path id="DejaVuSans-2212" d="M 678 2272 
L 4684 2272 
L 4684 1741 
L 678 1741 
L 678 2272 
z
" transform="scale(0.015625)"/>
        <path id="DejaVuSans-34" d="M 2419 4116 
L 825 1625 
L 2419 1625 
L 2419 4116 
z
M 2253 4666 
L 3047 4666 
L 3047 1625 
L 3713 1625 
L 3713 1100 
L 3047 1100 
L 3047 0 
L 2419 0 
L 2419 1100 
L 313 1100 
L 313 1709 
L 2253 4666 
z
" transform="scale(0.015625)"/>
       </defs>
       <use xlink:href="#DejaVuSans-2212"/>
       <use xlink:href="#DejaVuSans-34" transform="translate(83.789062 0)"/>
      </g>
     </g>
    </g>
    <g id="xtick_2">
     <g id="line2d_3">
      <path d="M 143.018182 320.4 
L 143.018182 43.2 
" clip-path="url(#pd0ca0ad584)" style="fill: none; stroke: #b0b0b0; stroke-width: 0.8; stroke-linecap: square"/>
     </g>
     <g id="line2d_4">
      <g>
       <use xlink:href="#m60ce940ba3" x="143.018182" y="320.4" style="stroke: #000000; stroke-width: 0.8"/>
      </g>
     </g>
     <g id="text_2">
      <!-- −3 -->
      <g transform="translate(135.647088 334.998438) scale(0.1 -0.1)">
       <defs>
        <path id="DejaVuSans-33" d="M 2597 2516 
Q 3050 2419 3304 2112 
Q 3559 1806 3559 1356 
Q 3559 666 3084 287 
Q 2609 -91 1734 -91 
Q 1441 -91 1130 -33 
Q 819 25 488 141 
L 488 750 
Q 750 597 1062 519 
Q 1375 441 1716 441 
Q 2309 441 2620 675 
Q 2931 909 2931 1356 
Q 2931 1769 2642 2001 
Q 2353 2234 1838 2234 
L 1294 2234 
L 1294 2753 
L 1863 2753 
Q 2328 2753 2575 2939 
Q 2822 3125 2822 3475 
Q 2822 3834 2567 4026 
Q 2313 4219 1838 4219 
Q 1578 4219 1281 4162 
Q 984 4106 628 3988 
L 628 4550 
Q 988 4650 1302 4700 
Q 1616 4750 1894 4750 
Q 2613 4750 3031 4423 
Q 3450 4097 3450 3541 
Q 3450 3153 3228 2886 
Q 3006 2619 2597 2516 
z
" transform="scale(0.015625)"/>
       </defs>
       <use xlink:href="#DejaVuSans-2212"/>
       <use xlink:href="#DejaVuSans-33" transform="translate(83.789062 0)"/>
      </g>
     </g>
    </g>
    <g id="xtick_3">
     <g id="line2d_5">
      <path d="M 193.745455 320.4 
L 193.745455 43.2 
" clip-path="url(#pd0ca0ad584)" style="fill: none; stroke: #b0b0b0; stroke-width: 0.8; stroke-linecap: square"/>
     </g>
     <g id="line2d_6">
      <g>
       <use xlink:href="#m60ce940ba3" x="193.745455" y="320.4" style="stroke: #000000; stroke-width: 0.8"/>
      </g>
     </g>
     <g id="text_3">
      <!-- −2 -->
      <g transform="translate(186.374361 334.998438) scale(0.1 -0.1)">
       <defs>
        <path id="DejaVuSans-32" d="M 1228 531 
L 3431 531 
L 3431 0 
L 469 0 
L 469 531 
Q 828 903 1448 1529 
Q 2069 2156 2228 2338 
Q 2531 2678 2651 2914 
Q 2772 3150 2772 3378 
Q 2772 3750 2511 3984 
Q 2250 4219 1831 4219 
Q 1534 4219 1204 4116 
Q 875 4013 500 3803 
L 500 4441 
Q 881 4594 1212 4672 
Q 1544 4750 1819 4750 
Q 2544 4750 2975 4387 
Q 3406 4025 3406 3419 
Q 3406 3131 3298 2873 
Q 3191 2616 2906 2266 
Q 2828 2175 2409 1742 
Q 1991 1309 1228 531 
z
" transform="scale(0.015625)"/>
       </defs>
       <use xlink:href="#DejaVuSans-2212"/>
       <use xlink:href="#DejaVuSans-32" transform="translate(83.789062 0)"/>
      </g>
     </g>
    </g>
    <g id="xtick_4">
     <g id="line2d_7">
      <path d="M 244.472727 320.4 
L 244.472727 43.2 
" clip-path="url(#pd0ca0ad584)" style="fill: none; stroke: #b0b0b0; stroke-width: 0.8; stroke-linecap: square"/>
     </g>
     <g id="line2d_8">
      <g>
       <use xlink:href="#m60ce940ba3" x="244.472727" y="320.4" style="stroke: #000000; stroke-width: 0.8"/>
      </g>
     </g>
     <g id="text_4">
      <!-- −1 -->
      <g transform="translate(237.101634 334.998438) scale(0.1 -0.1)">
       <defs>
        <path id="DejaVuSans-31" d="M 794 531 
L 1825 531 
L 1825 4091 
L 703 3866 
L 703 4441 
L 1819 4666 
L 2450 4666 
L 2450 531 
L 3481 531 
L 3481 0 
L 794 0 
L 794 531 
z
" transform="scale(0.015625)"/>
       </defs>
       <use xlink:href="#DejaVuSans-2212"/>
       <use xlink:href="#DejaVuSans-31" transform="translate(83.789062 0)"/>
      </g>
     </g>
    </g>
    <g id="xtick_5">
     <g id="line2d_9">
      <path d="M 295.2 320.4 
L 295.2 43.2 
" clip-path="url(#pd0ca0ad584)" style="fill: none; stroke: #b0b0b0; stroke-width: 0.8; stroke-linecap: square"/>
     </g>
     <g id="line2d_10">
      <g>
       <use xlink:href="#m60ce940ba3" x="295.2" y="320.4" style="stroke: #000000; stroke-width: 0.8"/>
      </g>
     </g>
     <g id="text_5">
      <!-- 0 -->
      <g transform="translate(292.01875 334.998438) scale(0.1 -0.1)">
       <defs>
        <path id="DejaVuSans-30" d="M 2034 4250 
Q 1547 4250 1301 3770 
Q 1056 3291 1056 2328 
Q 1056 1369 1301 889 
Q 1547 409 2034 409 
Q 2525 409 2770 889 
Q 3016 1369 3016 2328 
Q 3016 3291 2770 3770 
Q 2525 4250 2034 4250 
z
M 2034 4750 
Q 2819 4750 3233 4129 
Q 3647 3509 3647 2328 
Q 3647 1150 3233 529 
Q 2819 -91 2034 -91 
Q 1250 -91 836 529 
Q 422 1150 422 2328 
Q 422 3509 836 4129 
Q 1250 4750 2034 4750 
z
" transform="scale(0.015625)"/>
       </defs>
       <use xlink:href="#DejaVuSans-30"/>
      </g>
     </g>
    </g>
    <g id="xtick_6">
     <g id="line2d_11">
      <path d="M 345.927273 320.4 
L 345.927273 43.2 
" clip-path="url(#pd0ca0ad584)" style="fill: none; stroke: #b0b0b0; stroke-width: 0.8; stroke-linecap: square"/>
     </g>
     <g id="line2d_12">
      <g>
       <use xlink:href="#m60ce940ba3" x="345.927273" y="320.4" style="stroke: #000000; stroke-width: 0.8"/>
      </g>
     </g>
     <g id="text_6">
      <!-- 1 -->
      <g transform="translate(342.746023 334.998438) scale(0.1 -0.1)">
       <use xlink:href="#DejaVuSans-31"/>
      </g>
     </g>
    </g>
    <g id="xtick_7">
     <g id="line2d_13">
      <path d="M 396.654545 320.4 
L 396.654545 43.2 
" clip-path="url(#pd0ca0ad584)" style="fill: none; stroke: #b0b0b0; stroke-width: 0.8; stroke-linecap: square"/>
     </g>
     <g id="line2d_14">
      <g>
       <use xlink:href="#m60ce940ba3" x="396.654545" y="320.4" style="stroke: #000000; stroke-width: 0.8"/>
      </g>
     </g>
     <g id="text_7">
      <!-- 2 -->
      <g transform="translate(393.473295 334.998438) scale(0.1 -0.1)">
       <use xlink:href="#DejaVuSans-32"/>
      </g>
     </g>
    </g>
    <g id="xtick_8">
     <g id="line2d_15">
      <path d="M 447.381818 320.4 
L 447.381818 43.2 
" clip-path="url(#pd0ca0ad584)" style="fill: none; stroke: #b0b0b0; stroke-width: 0.8; stroke-linecap: square"/>
     </g>
     <g id="line2d_16">
      <g>
       <use xlink:href="#m60ce940ba3" x="447.381818" y="320.4" style="stroke: #000000; stroke-width: 0.8"/>
      </g>
     </g>
     <g id="text_8">
      <!-- 3 -->
      <g transform="translate(444.200568 334.998438) scale(0.1 -0.1)">
       <use xlink:href="#DejaVuSans-33"/>
      </g>
     </g>
    </g>
    <g id="xtick_9">
     <g id="line2d_17">
      <path d="M 498.109091 320.4 
L 498.109091 43.2 
" clip-path="url(#pd0ca0ad584)" style="fill: none; stroke: #b0b0b0; stroke-width: 0.8; stroke-linecap: square"/>
     </g>
     <g id="line2d_18">
      <g>
       <use xlink:href="#m60ce940ba3" x="498.109091" y="320.4" style="stroke: #000000; stroke-width: 0.8"/>
      </g>
     </g>
     <g id="text_9">
      <!-- 4 -->
      <g transform="translate(494.927841 334.998438) scale(0.1 -0.1)">
       <use xlink:href="#DejaVuSans-34"/>
      </g>
     </g>
    </g>
    <g id="text_10">
     <!-- Z-score -->
     <g transform="translate(276.625781 348.676562) scale(0.1 -0.1)">
      <defs>
       <path id="DejaVuSans-5a" d="M 359 4666 
L 4025 4666 
L 4025 4184 
L 1075 531 
L 4097 531 
L 4097 0 
L 288 0 
L 288 481 
L 3238 4134 
L 359 4134 
L 359 4666 
z
" transform="scale(0.015625)"/>
       <path id="DejaVuSans-2d" d="M 313 2009 
L 1997 2009 
L 1997 1497 
L 313 1497 
L 313 2009 
z
" transform="scale(0.015625)"/>
       <path id="DejaVuSans-73" d="M 2834 3397 
L 2834 2853 
Q 2591 2978 2328 3040 
Q 2066 3103 1784 3103 
Q 1356 3103 1142 2972 
Q 928 2841 928 2578 
Q 928 2378 1081 2264 
Q 1234 2150 1697 2047 
L 1894 2003 
Q 2506 1872 2764 1633 
Q 3022 1394 3022 966 
Q 3022 478 2636 193 
Q 2250 -91 1575 -91 
Q 1294 -91 989 -36 
Q 684 19 347 128 
L 347 722 
Q 666 556 975 473 
Q 1284 391 1588 391 
Q 1994 391 2212 530 
Q 2431 669 2431 922 
Q 2431 1156 2273 1281 
Q 2116 1406 1581 1522 
L 1381 1569 
Q 847 1681 609 1914 
Q 372 2147 372 2553 
Q 372 3047 722 3315 
Q 1072 3584 1716 3584 
Q 2034 3584 2315 3537 
Q 2597 3491 2834 3397 
z
" transform="scale(0.015625)"/>
       <path id="DejaVuSans-63" d="M 3122 3366 
L 3122 2828 
Q 2878 2963 2633 3030 
Q 2388 3097 2138 3097 
Q 1578 3097 1268 2742 
Q 959 2388 959 1747 
Q 959 1106 1268 751 
Q 1578 397 2138 397 
Q 2388 397 2633 464 
Q 2878 531 3122 666 
L 3122 134 
Q 2881 22 2623 -34 
Q 2366 -91 2075 -91 
Q 1284 -91 818 406 
Q 353 903 353 1747 
Q 353 2603 823 3093 
Q 1294 3584 2113 3584 
Q 2378 3584 2631 3529 
Q 2884 3475 3122 3366 
z
" transform="scale(0.015625)"/>
       <path id="DejaVuSans-6f" d="M 1959 3097 
Q 1497 3097 1228 2736 
Q 959 2375 959 1747 
Q 959 1119 1226 758 
Q 1494 397 1959 397 
Q 2419 397 2687 759 
Q 2956 1122 2956 1747 
Q 2956 2369 2687 2733 
Q 2419 3097 1959 3097 
z
M 1959 3584 
Q 2709 3584 3137 3096 
Q 3566 2609 3566 1747 
Q 3566 888 3137 398 
Q 2709 -91 1959 -91 
Q 1206 -91 779 398 
Q 353 888 353 1747 
Q 353 2609 779 3096 
Q 1206 3584 1959 3584 
z
" transform="scale(0.015625)"/>
       <path id="DejaVuSans-72" d="M 2631 2963 
Q 2534 3019 2420 3045 
Q 2306 3072 2169 3072 
Q 1681 3072 1420 2755 
Q 1159 2438 1159 1844 
L 1159 0 
L 581 0 
L 581 3500 
L 1159 3500 
L 1159 2956 
Q 1341 3275 1631 3429 
Q 1922 3584 2338 3584 
Q 2397 3584 2469 3576 
Q 2541 3569 2628 3553 
L 2631 2963 
z
" transform="scale(0.015625)"/>
       <path id="DejaVuSans-65" d="M 3597 1894 
L 3597 1613 
L 953 1613 
Q 991 1019 1311 708 
Q 1631 397 2203 397 
Q 2534 397 2845 478 
Q 3156 559 3463 722 
L 3463 178 
Q 3153 47 2828 -22 
Q 2503 -91 2169 -91 
Q 1331 -91 842 396 
Q 353 884 353 1716 
Q 353 2575 817 3079 
Q 1281 3584 2069 3584 
Q 2775 3584 3186 3129 
Q 3597 2675 3597 1894 
z
M 3022 2063 
Q 3016 2534 2758 2815 
Q 2500 3097 2075 3097 
Q 1594 3097 1305 2825 
Q 1016 2553 972 2059 
L 3022 2063 
z
" transform="scale(0.015625)"/>
      </defs>
      <use xlink:href="#DejaVuSans-5a"/>
      <use xlink:href="#DejaVuSans-2d" transform="translate(66.755859 0)"/>
      <use xlink:href="#DejaVuSans-73" transform="translate(102.839844 0)"/>
      <use xlink:href="#DejaVuSans-63" transform="translate(154.939453 0)"/>
      <use xlink:href="#DejaVuSans-6f" transform="translate(209.919922 0)"/>
      <use xlink:href="#DejaVuSans-72" transform="translate(271.101562 0)"/>
      <use xlink:href="#DejaVuSans-65" transform="translate(309.964844 0)"/>
     </g>
    </g>
   </g>
   <g id="matplotlib.axis_2">
    <g id="ytick_1">
     <g id="line2d_19">
      <path d="M 72 307.8 
L 518.4 307.8 
" clip-path="url(#pd0ca0ad584)" style="fill: none; stroke: #b0b0b0; stroke-width: 0.8; stroke-linecap: square"/>
     </g>
     <g id="line2d_20">
      <defs>
       <path id="mbf37062e18" d="M 0 0 
L -3.5 0 
" style="stroke: #000000; stroke-width: 0.8"/>
      </defs>
      <g>
       <use xlink:href="#mbf37062e18" x="72" y="307.8" style="stroke: #000000; stroke-width: 0.8"/>
      </g>
     </g>
     <g id="text_11">
      <!-- 0.00 -->
      <g transform="translate(42.734375 311.599219) scale(0.1 -0.1)">
       <defs>
        <path id="DejaVuSans-2e" d="M 684 794 
L 1344 794 
L 1344 0 
L 684 0 
L 684 794 
z
" transform="scale(0.015625)"/>
       </defs>
       <use xlink:href="#DejaVuSans-30"/>
       <use xlink:href="#DejaVuSans-2e" transform="translate(63.623047 0)"/>
       <use xlink:href="#DejaVuSans-30" transform="translate(95.410156 0)"/>
       <use xlink:href="#DejaVuSans-30" transform="translate(159.033203 0)"/>
      </g>
     </g>
    </g>
    <g id="ytick_2">
     <g id="line2d_21">
      <path d="M 72 276.216231 
L 518.4 276.216231 
" clip-path="url(#pd0ca0ad584)" style="fill: none; stroke: #b0b0b0; stroke-width: 0.8; stroke-linecap: square"/>
     </g>
     <g id="line2d_22">
      <g>
       <use xlink:href="#mbf37062e18" x="72" y="276.216231" style="stroke: #000000; stroke-width: 0.8"/>
      </g>
     </g>
     <g id="text_12">
      <!-- 0.05 -->
      <g transform="translate(42.734375 280.015449) scale(0.1 -0.1)">
       <defs>
        <path id="DejaVuSans-35" d="M 691 4666 
L 3169 4666 
L 3169 4134 
L 1269 4134 
L 1269 2991 
Q 1406 3038 1543 3061 
Q 1681 3084 1819 3084 
Q 2600 3084 3056 2656 
Q 3513 2228 3513 1497 
Q 3513 744 3044 326 
Q 2575 -91 1722 -91 
Q 1428 -91 1123 -41 
Q 819 9 494 109 
L 494 744 
Q 775 591 1075 516 
Q 1375 441 1709 441 
Q 2250 441 2565 725 
Q 2881 1009 2881 1497 
Q 2881 1984 2565 2268 
Q 2250 2553 1709 2553 
Q 1456 2553 1204 2497 
Q 953 2441 691 2322 
L 691 4666 
z
" transform="scale(0.015625)"/>
       </defs>
       <use xlink:href="#DejaVuSans-30"/>
       <use xlink:href="#DejaVuSans-2e" transform="translate(63.623047 0)"/>
       <use xlink:href="#DejaVuSans-30" transform="translate(95.410156 0)"/>
       <use xlink:href="#DejaVuSans-35" transform="translate(159.033203 0)"/>
      </g>
     </g>
    </g>
    <g id="ytick_3">
     <g id="line2d_23">
      <path d="M 72 244.632461 
L 518.4 244.632461 
" clip-path="url(#pd0ca0ad584)" style="fill: none; stroke: #b0b0b0; stroke-width: 0.8; stroke-linecap: square"/>
     </g>
     <g id="line2d_24">
      <g>
       <use xlink:href="#mbf37062e18" x="72" y="244.632461" style="stroke: #000000; stroke-width: 0.8"/>
      </g>
     </g>
     <g id="text_13">
      <!-- 0.10 -->
      <g transform="translate(42.734375 248.43168) scale(0.1 -0.1)">
       <use xlink:href="#DejaVuSans-30"/>
       <use xlink:href="#DejaVuSans-2e" transform="translate(63.623047 0)"/>
       <use xlink:href="#DejaVuSans-31" transform="translate(95.410156 0)"/>
       <use xlink:href="#DejaVuSans-30" transform="translate(159.033203 0)"/>
      </g>
     </g>
    </g>
    <g id="ytick_4">
     <g id="line2d_25">
      <path d="M 72 213.048692 
L 518.4 213.048692 
" clip-path="url(#pd0ca0ad584)" style="fill: none; stroke: #b0b0b0; stroke-width: 0.8; stroke-linecap: square"/>
     </g>
     <g id="line2d_26">
      <g>
       <use xlink:href="#mbf37062e18" x="72" y="213.048692" style="stroke: #000000; stroke-width: 0.8"/>
      </g>
     </g>
     <g id="text_14">
      <!-- 0.15 -->
      <g transform="translate(42.734375 216.84791) scale(0.1 -0.1)">
       <use xlink:href="#DejaVuSans-30"/>
       <use xlink:href="#DejaVuSans-2e" transform="translate(63.623047 0)"/>
       <use xlink:href="#DejaVuSans-31" transform="translate(95.410156 0)"/>
       <use xlink:href="#DejaVuSans-35" transform="translate(159.033203 0)"/>
      </g>
     </g>
    </g>
    <g id="ytick_5">
     <g id="line2d_27">
      <path d="M 72 181.464922 
L 518.4 181.464922 
" clip-path="url(#pd0ca0ad584)" style="fill: none; stroke: #b0b0b0; stroke-width: 0.8; stroke-linecap: square"/>
     </g>
     <g id="line2d_28">
      <g>
       <use xlink:href="#mbf37062e18" x="72" y="181.464922" style="stroke: #000000; stroke-width: 0.8"/>
      </g>
     </g>
     <g id="text_15">
      <!-- 0.20 -->
      <g transform="translate(42.734375 185.264141) scale(0.1 -0.1)">
       <use xlink:href="#DejaVuSans-30"/>
       <use xlink:href="#DejaVuSans-2e" transform="translate(63.623047 0)"/>
       <use xlink:href="#DejaVuSans-32" transform="translate(95.410156 0)"/>
       <use xlink:href="#DejaVuSans-30" transform="translate(159.033203 0)"/>
      </g>
     </g>
    </g>
    <g id="ytick_6">
     <g id="line2d_29">
      <path d="M 72 149.881153 
L 518.4 149.881153 
" clip-path="url(#pd0ca0ad584)" style="fill: none; stroke: #b0b0b0; stroke-width: 0.8; stroke-linecap: square"/>
     </g>
     <g id="line2d_30">
      <g>
       <use xlink:href="#mbf37062e18" x="72" y="149.881153" style="stroke: #000000; stroke-width: 0.8"/>
      </g>
     </g>
     <g id="text_16">
      <!-- 0.25 -->
      <g transform="translate(42.734375 153.680372) scale(0.1 -0.1)">
       <use xlink:href="#DejaVuSans-30"/>
       <use xlink:href="#DejaVuSans-2e" transform="translate(63.623047 0)"/>
       <use xlink:href="#DejaVuSans-32" transform="translate(95.410156 0)"/>
       <use xlink:href="#DejaVuSans-35" transform="translate(159.033203 0)"/>
      </g>
     </g>
    </g>
    <g id="ytick_7">
     <g id="line2d_31">
      <path d="M 72 118.297383 
L 518.4 118.297383 
" clip-path="url(#pd0ca0ad584)" style="fill: none; stroke: #b0b0b0; stroke-width: 0.8; stroke-linecap: square"/>
     </g>
     <g id="line2d_32">
      <g>
       <use xlink:href="#mbf37062e18" x="72" y="118.297383" style="stroke: #000000; stroke-width: 0.8"/>
      </g>
     </g>
     <g id="text_17">
      <!-- 0.30 -->
      <g transform="translate(42.734375 122.096602) scale(0.1 -0.1)">
       <use xlink:href="#DejaVuSans-30"/>
       <use xlink:href="#DejaVuSans-2e" transform="translate(63.623047 0)"/>
       <use xlink:href="#DejaVuSans-33" transform="translate(95.410156 0)"/>
       <use xlink:href="#DejaVuSans-30" transform="translate(159.033203 0)"/>
      </g>
     </g>
    </g>
    <g id="ytick_8">
     <g id="line2d_33">
      <path d="M 72 86.713614 
L 518.4 86.713614 
" clip-path="url(#pd0ca0ad584)" style="fill: none; stroke: #b0b0b0; stroke-width: 0.8; stroke-linecap: square"/>
     </g>
     <g id="line2d_34">
      <g>
       <use xlink:href="#mbf37062e18" x="72" y="86.713614" style="stroke: #000000; stroke-width: 0.8"/>
      </g>
     </g>
     <g id="text_18">
      <!-- 0.35 -->
      <g transform="translate(42.734375 90.512833) scale(0.1 -0.1)">
       <use xlink:href="#DejaVuSans-30"/>
       <use xlink:href="#DejaVuSans-2e" transform="translate(63.623047 0)"/>
       <use xlink:href="#DejaVuSans-33" transform="translate(95.410156 0)"/>
       <use xlink:href="#DejaVuSans-35" transform="translate(159.033203 0)"/>
      </g>
     </g>
    </g>
    <g id="ytick_9">
     <g id="line2d_35">
      <path d="M 72 55.129845 
L 518.4 55.129845 
" clip-path="url(#pd0ca0ad584)" style="fill: none; stroke: #b0b0b0; stroke-width: 0.8; stroke-linecap: square"/>
     </g>
     <g id="line2d_36">
      <g>
       <use xlink:href="#mbf37062e18" x="72" y="55.129845" style="stroke: #000000; stroke-width: 0.8"/>
      </g>
     </g>
     <g id="text_19">
      <!-- 0.40 -->
      <g transform="translate(42.734375 58.929063) scale(0.1 -0.1)">
       <use xlink:href="#DejaVuSans-30"/>
       <use xlink:href="#DejaVuSans-2e" transform="translate(63.623047 0)"/>
       <use xlink:href="#DejaVuSans-34" transform="translate(95.410156 0)"/>
       <use xlink:href="#DejaVuSans-30" transform="translate(159.033203 0)"/>
      </g>
     </g>
    </g>
    <g id="text_20">
     <!-- Probability Density -->
     <g transform="translate(36.654687 228.826562) rotate(-90) scale(0.1 -0.1)">
      <defs>
       <path id="DejaVuSans-50" d="M 1259 4147 
L 1259 2394 
L 2053 2394 
Q 2494 2394 2734 2622 
Q 2975 2850 2975 3272 
Q 2975 3691 2734 3919 
Q 2494 4147 2053 4147 
L 1259 4147 
z
M 628 4666 
L 2053 4666 
Q 2838 4666 3239 4311 
Q 3641 3956 3641 3272 
Q 3641 2581 3239 2228 
Q 2838 1875 2053 1875 
L 1259 1875 
L 1259 0 
L 628 0 
L 628 4666 
z
" transform="scale(0.015625)"/>
       <path id="DejaVuSans-62" d="M 3116 1747 
Q 3116 2381 2855 2742 
Q 2594 3103 2138 3103 
Q 1681 3103 1420 2742 
Q 1159 2381 1159 1747 
Q 1159 1113 1420 752 
Q 1681 391 2138 391 
Q 2594 391 2855 752 
Q 3116 1113 3116 1747 
z
M 1159 2969 
Q 1341 3281 1617 3432 
Q 1894 3584 2278 3584 
Q 2916 3584 3314 3078 
Q 3713 2572 3713 1747 
Q 3713 922 3314 415 
Q 2916 -91 2278 -91 
Q 1894 -91 1617 61 
Q 1341 213 1159 525 
L 1159 0 
L 581 0 
L 581 4863 
L 1159 4863 
L 1159 2969 
z
" transform="scale(0.015625)"/>
       <path id="DejaVuSans-61" d="M 2194 1759 
Q 1497 1759 1228 1600 
Q 959 1441 959 1056 
Q 959 750 1161 570 
Q 1363 391 1709 391 
Q 2188 391 2477 730 
Q 2766 1069 2766 1631 
L 2766 1759 
L 2194 1759 
z
M 3341 1997 
L 3341 0 
L 2766 0 
L 2766 531 
Q 2569 213 2275 61 
Q 1981 -91 1556 -91 
Q 1019 -91 701 211 
Q 384 513 384 1019 
Q 384 1609 779 1909 
Q 1175 2209 1959 2209 
L 2766 2209 
L 2766 2266 
Q 2766 2663 2505 2880 
Q 2244 3097 1772 3097 
Q 1472 3097 1187 3025 
Q 903 2953 641 2809 
L 641 3341 
Q 956 3463 1253 3523 
Q 1550 3584 1831 3584 
Q 2591 3584 2966 3190 
Q 3341 2797 3341 1997 
z
" transform="scale(0.015625)"/>
       <path id="DejaVuSans-69" d="M 603 3500 
L 1178 3500 
L 1178 0 
L 603 0 
L 603 3500 
z
M 603 4863 
L 1178 4863 
L 1178 4134 
L 603 4134 
L 603 4863 
z
" transform="scale(0.015625)"/>
       <path id="DejaVuSans-6c" d="M 603 4863 
L 1178 4863 
L 1178 0 
L 603 0 
L 603 4863 
z
" transform="scale(0.015625)"/>
       <path id="DejaVuSans-74" d="M 1172 4494 
L 1172 3500 
L 2356 3500 
L 2356 3053 
L 1172 3053 
L 1172 1153 
Q 1172 725 1289 603 
Q 1406 481 1766 481 
L 2356 481 
L 2356 0 
L 1766 0 
Q 1100 0 847 248 
Q 594 497 594 1153 
L 594 3053 
L 172 3053 
L 172 3500 
L 594 3500 
L 594 4494 
L 1172 4494 
z
" transform="scale(0.015625)"/>
       <path id="DejaVuSans-79" d="M 2059 -325 
Q 1816 -950 1584 -1140 
Q 1353 -1331 966 -1331 
L 506 -1331 
L 506 -850 
L 844 -850 
Q 1081 -850 1212 -737 
Q 1344 -625 1503 -206 
L 1606 56 
L 191 3500 
L 800 3500 
L 1894 763 
L 2988 3500 
L 3597 3500 
L 2059 -325 
z
" transform="scale(0.015625)"/>
       <path id="DejaVuSans-20" transform="scale(0.015625)"/>
       <path id="DejaVuSans-44" d="M 1259 4147 
L 1259 519 
L 2022 519 
Q 2988 519 3436 956 
Q 3884 1394 3884 2338 
Q 3884 3275 3436 3711 
Q 2988 4147 2022 4147 
L 1259 4147 
z
M 628 4666 
L 1925 4666 
Q 3281 4666 3915 4102 
Q 4550 3538 4550 2338 
Q 4550 1131 3912 565 
Q 3275 0 1925 0 
L 628 0 
L 628 4666 
z
" transform="scale(0.015625)"/>
       <path id="DejaVuSans-6e" d="M 3513 2113 
L 3513 0 
L 2938 0 
L 2938 2094 
Q 2938 2591 2744 2837 
Q 2550 3084 2163 3084 
Q 1697 3084 1428 2787 
Q 1159 2491 1159 1978 
L 1159 0 
L 581 0 
L 581 3500 
L 1159 3500 
L 1159 2956 
Q 1366 3272 1645 3428 
Q 1925 3584 2291 3584 
Q 2894 3584 3203 3211 
Q 3513 2838 3513 2113 
z
" transform="scale(0.015625)"/>
      </defs>
      <use xlink:href="#DejaVuSans-50"/>
      <use xlink:href="#DejaVuSans-72" transform="translate(58.552734 0)"/>
      <use xlink:href="#DejaVuSans-6f" transform="translate(97.416016 0)"/>
      <use xlink:href="#DejaVuSans-62" transform="translate(158.597656 0)"/>
      <use xlink:href="#DejaVuSans-61" transform="translate(222.074219 0)"/>
      <use xlink:href="#DejaVuSans-62" transform="translate(283.353516 0)"/>
      <use xlink:href="#DejaVuSans-69" transform="translate(346.830078 0)"/>
      <use xlink:href="#DejaVuSans-6c" transform="translate(374.613281 0)"/>
      <use xlink:href="#DejaVuSans-69" transform="translate(402.396484 0)"/>
      <use xlink:href="#DejaVuSans-74" transform="translate(430.179688 0)"/>
      <use xlink:href="#DejaVuSans-79" transform="translate(469.388672 0)"/>
      <use xlink:href="#DejaVuSans-20" transform="translate(528.568359 0)"/>
      <use xlink:href="#DejaVuSans-44" transform="translate(560.355469 0)"/>
      <use xlink:href="#DejaVuSans-65" transform="translate(637.357422 0)"/>
      <use xlink:href="#DejaVuSans-6e" transform="translate(698.880859 0)"/>
      <use xlink:href="#DejaVuSans-73" transform="translate(762.259766 0)"/>
      <use xlink:href="#DejaVuSans-69" transform="translate(814.359375 0)"/>
      <use xlink:href="#DejaVuSans-74" transform="translate(842.142578 0)"/>
      <use xlink:href="#DejaVuSans-79" transform="translate(881.351562 0)"/>
     </g>
    </g>
   </g>
   <g id="line2d_37">
    <path d="M 92.290909 307.715463 
L 109.352334 307.493267 
L 120.320393 307.138344 
L 128.444881 306.665368 
L 135.350696 306.041326 
L 141.037838 305.311804 
L 146.318755 304.404281 
L 150.787224 303.419475 
L 154.849468 302.315434 
L 158.911712 300.977033 
L 162.567731 299.540762 
L 166.223751 297.853947 
L 169.473546 296.118466 
L 172.723342 294.136355 
L 175.973137 291.883382 
L 179.222932 289.33486 
L 182.472727 286.466016 
L 185.316298 283.673781 
L 188.159869 280.601692 
L 191.00344 277.234618 
L 193.847011 273.558474 
L 197.096806 268.962477 
L 200.346601 263.930012 
L 203.596396 258.448419 
L 206.846192 252.509287 
L 210.095987 246.109132 
L 213.345782 239.250051 
L 217.001802 230.995599 
L 220.657821 222.193018 
L 224.720066 211.810802 
L 229.188534 199.733739 
L 234.063227 185.902892 
L 240.562817 166.711185 
L 255.59312 122.007996 
L 260.061589 109.550662 
L 263.717609 99.942629 
L 266.967404 91.955228 
L 270.217199 84.578919 
L 273.06077 78.690805 
L 275.498116 74.105587 
L 277.935463 69.978277 
L 280.372809 66.336165 
L 282.403931 63.689375 
L 284.435053 61.408905 
L 286.466175 59.505517 
L 288.091073 58.260436 
L 289.715971 57.266305 
L 291.340868 56.526165 
L 292.965766 56.042288 
L 294.590663 55.81616 
L 296.215561 55.848476 
L 297.840459 56.139138 
L 299.465356 56.687251 
L 301.090254 57.491132 
L 302.715152 58.548316 
L 304.340049 59.855568 
L 305.964947 61.408905 
L 307.996069 63.689375 
L 310.027191 66.336165 
L 312.058313 69.336868 
L 314.495659 73.385132 
L 316.933006 77.896043 
L 319.370352 82.840095 
L 322.213923 89.112963 
L 325.463718 96.881173 
L 329.119738 106.2821 
L 333.181982 117.40045 
L 338.056675 131.435002 
L 345.368714 153.270117 
L 355.524324 183.543045 
L 360.805242 198.605212 
L 365.27371 210.739952 
L 369.335954 221.182463 
L 373.398198 230.995599 
L 377.054218 239.250051 
L 380.710238 246.934349 
L 383.960033 253.27687 
L 387.209828 259.158512 
L 390.459623 264.58341 
L 393.709419 269.560544 
L 396.959214 274.103059 
L 400.209009 278.227583 
L 403.458804 281.953561 
L 406.7086 285.302607 
L 409.958395 288.297906 
L 413.20819 290.963654 
L 416.457985 293.324552 
L 419.707781 295.405364 
L 422.957576 297.230533 
L 426.613595 299.007867 
L 430.269615 300.524221 
L 433.925635 301.810248 
L 437.987879 303.003695 
L 442.456347 304.071468 
L 447.33104 304.992092 
L 452.611957 305.756196 
L 458.705324 306.402265 
L 465.611138 306.907037 
L 474.141851 307.29957 
L 485.10991 307.571991 
L 498.109091 307.715463 
L 498.109091 307.715463 
" clip-path="url(#pd0ca0ad584)" style="fill: none; stroke: #0000ff; stroke-width: 1.5; stroke-linecap: square"/>
   </g>
   <g id="patch_3">
    <path d="M 72 320.4 
L 72 43.2 
" style="fill: none; stroke: #000000; stroke-width: 0.8; stroke-linejoin: miter; stroke-linecap: square"/>
   </g>
   <g id="patch_4">
    <path d="M 518.4 320.4 
L 518.4 43.2 
" style="fill: none; stroke: #000000; stroke-width: 0.8; stroke-linejoin: miter; stroke-linecap: square"/>
   </g>
   <g id="patch_5">
    <path d="M 72 320.4 
L 518.4 320.4 
" style="fill: none; stroke: #000000; stroke-width: 0.8; stroke-linejoin: miter; stroke-linecap: square"/>
   </g>
   <g id="patch_6">
    <path d="M 72 43.2 
L 518.4 43.2 
" style="fill: none; stroke: #000000; stroke-width: 0.8; stroke-linejoin: miter; stroke-linecap: square"/>
   </g>
   <g id="text_21">
    <!-- Standard Normal Distribution with 95% Confidence Interval Shaded -->
    <g transform="translate(92.464687 37.2) scale(0.12 -0.12)">
     <defs>
      <path id="DejaVuSans-53" d="M 3425 4513 
L 3425 3897 
Q 3066 4069 2747 4153 
Q 2428 4238 2131 4238 
Q 1616 4238 1336 4038 
Q 1056 3838 1056 3469 
Q 1056 3159 1242 3001 
Q 1428 2844 1947 2747 
L 2328 2669 
Q 3034 2534 3370 2195 
Q 3706 1856 3706 1288 
Q 3706 609 3251 259 
Q 2797 -91 1919 -91 
Q 1588 -91 1214 -16 
Q 841 59 441 206 
L 441 856 
Q 825 641 1194 531 
Q 1563 422 1919 422 
Q 2459 422 2753 634 
Q 3047 847 3047 1241 
Q 3047 1584 2836 1778 
Q 2625 1972 2144 2069 
L 1759 2144 
Q 1053 2284 737 2584 
Q 422 2884 422 3419 
Q 422 4038 858 4394 
Q 1294 4750 2059 4750 
Q 2388 4750 2728 4690 
Q 3069 4631 3425 4513 
z
" transform="scale(0.015625)"/>
      <path id="DejaVuSans-64" d="M 2906 2969 
L 2906 4863 
L 3481 4863 
L 3481 0 
L 2906 0 
L 2906 525 
Q 2725 213 2448 61 
Q 2172 -91 1784 -91 
Q 1150 -91 751 415 
Q 353 922 353 1747 
Q 353 2572 751 3078 
Q 1150 3584 1784 3584 
Q 2172 3584 2448 3432 
Q 2725 3281 2906 2969 
z
M 947 1747 
Q 947 1113 1208 752 
Q 1469 391 1925 391 
Q 2381 391 2643 752 
Q 2906 1113 2906 1747 
Q 2906 2381 2643 2742 
Q 2381 3103 1925 3103 
Q 1469 3103 1208 2742 
Q 947 2381 947 1747 
z
" transform="scale(0.015625)"/>
      <path id="DejaVuSans-4e" d="M 628 4666 
L 1478 4666 
L 3547 763 
L 3547 4666 
L 4159 4666 
L 4159 0 
L 3309 0 
L 1241 3903 
L 1241 0 
L 628 0 
L 628 4666 
z
" transform="scale(0.015625)"/>
      <path id="DejaVuSans-6d" d="M 3328 2828 
Q 3544 3216 3844 3400 
Q 4144 3584 4550 3584 
Q 5097 3584 5394 3201 
Q 5691 2819 5691 2113 
L 5691 0 
L 5113 0 
L 5113 2094 
Q 5113 2597 4934 2840 
Q 4756 3084 4391 3084 
Q 3944 3084 3684 2787 
Q 3425 2491 3425 1978 
L 3425 0 
L 2847 0 
L 2847 2094 
Q 2847 2600 2669 2842 
Q 2491 3084 2119 3084 
Q 1678 3084 1418 2786 
Q 1159 2488 1159 1978 
L 1159 0 
L 581 0 
L 581 3500 
L 1159 3500 
L 1159 2956 
Q 1356 3278 1631 3431 
Q 1906 3584 2284 3584 
Q 2666 3584 2933 3390 
Q 3200 3197 3328 2828 
z
" transform="scale(0.015625)"/>
      <path id="DejaVuSans-75" d="M 544 1381 
L 544 3500 
L 1119 3500 
L 1119 1403 
Q 1119 906 1312 657 
Q 1506 409 1894 409 
Q 2359 409 2629 706 
Q 2900 1003 2900 1516 
L 2900 3500 
L 3475 3500 
L 3475 0 
L 2900 0 
L 2900 538 
Q 2691 219 2414 64 
Q 2138 -91 1772 -91 
Q 1169 -91 856 284 
Q 544 659 544 1381 
z
M 1991 3584 
L 1991 3584 
z
" transform="scale(0.015625)"/>
      <path id="DejaVuSans-77" d="M 269 3500 
L 844 3500 
L 1563 769 
L 2278 3500 
L 2956 3500 
L 3675 769 
L 4391 3500 
L 4966 3500 
L 4050 0 
L 3372 0 
L 2619 2869 
L 1863 0 
L 1184 0 
L 269 3500 
z
" transform="scale(0.015625)"/>
      <path id="DejaVuSans-68" d="M 3513 2113 
L 3513 0 
L 2938 0 
L 2938 2094 
Q 2938 2591 2744 2837 
Q 2550 3084 2163 3084 
Q 1697 3084 1428 2787 
Q 1159 2491 1159 1978 
L 1159 0 
L 581 0 
L 581 4863 
L 1159 4863 
L 1159 2956 
Q 1366 3272 1645 3428 
Q 1925 3584 2291 3584 
Q 2894 3584 3203 3211 
Q 3513 2838 3513 2113 
z
" transform="scale(0.015625)"/>
      <path id="DejaVuSans-39" d="M 703 97 
L 703 672 
Q 941 559 1184 500 
Q 1428 441 1663 441 
Q 2288 441 2617 861 
Q 2947 1281 2994 2138 
Q 2813 1869 2534 1725 
Q 2256 1581 1919 1581 
Q 1219 1581 811 2004 
Q 403 2428 403 3163 
Q 403 3881 828 4315 
Q 1253 4750 1959 4750 
Q 2769 4750 3195 4129 
Q 3622 3509 3622 2328 
Q 3622 1225 3098 567 
Q 2575 -91 1691 -91 
Q 1453 -91 1209 -44 
Q 966 3 703 97 
z
M 1959 2075 
Q 2384 2075 2632 2365 
Q 2881 2656 2881 3163 
Q 2881 3666 2632 3958 
Q 2384 4250 1959 4250 
Q 1534 4250 1286 3958 
Q 1038 3666 1038 3163 
Q 1038 2656 1286 2365 
Q 1534 2075 1959 2075 
z
" transform="scale(0.015625)"/>
      <path id="DejaVuSans-25" d="M 4653 2053 
Q 4381 2053 4226 1822 
Q 4072 1591 4072 1178 
Q 4072 772 4226 539 
Q 4381 306 4653 306 
Q 4919 306 5073 539 
Q 5228 772 5228 1178 
Q 5228 1588 5073 1820 
Q 4919 2053 4653 2053 
z
M 4653 2450 
Q 5147 2450 5437 2106 
Q 5728 1763 5728 1178 
Q 5728 594 5436 251 
Q 5144 -91 4653 -91 
Q 4153 -91 3862 251 
Q 3572 594 3572 1178 
Q 3572 1766 3864 2108 
Q 4156 2450 4653 2450 
z
M 1428 4353 
Q 1159 4353 1004 4120 
Q 850 3888 850 3481 
Q 850 3069 1003 2837 
Q 1156 2606 1428 2606 
Q 1700 2606 1854 2837 
Q 2009 3069 2009 3481 
Q 2009 3884 1853 4118 
Q 1697 4353 1428 4353 
z
M 4250 4750 
L 4750 4750 
L 1831 -91 
L 1331 -91 
L 4250 4750 
z
M 1428 4750 
Q 1922 4750 2215 4408 
Q 2509 4066 2509 3481 
Q 2509 2891 2217 2550 
Q 1925 2209 1428 2209 
Q 931 2209 642 2551 
Q 353 2894 353 3481 
Q 353 4063 643 4406 
Q 934 4750 1428 4750 
z
" transform="scale(0.015625)"/>
      <path id="DejaVuSans-43" d="M 4122 4306 
L 4122 3641 
Q 3803 3938 3442 4084 
Q 3081 4231 2675 4231 
Q 1875 4231 1450 3742 
Q 1025 3253 1025 2328 
Q 1025 1406 1450 917 
Q 1875 428 2675 428 
Q 3081 428 3442 575 
Q 3803 722 4122 1019 
L 4122 359 
Q 3791 134 3420 21 
Q 3050 -91 2638 -91 
Q 1578 -91 968 557 
Q 359 1206 359 2328 
Q 359 3453 968 4101 
Q 1578 4750 2638 4750 
Q 3056 4750 3426 4639 
Q 3797 4528 4122 4306 
z
" transform="scale(0.015625)"/>
      <path id="DejaVuSans-66" d="M 2375 4863 
L 2375 4384 
L 1825 4384 
Q 1516 4384 1395 4259 
Q 1275 4134 1275 3809 
L 1275 3500 
L 2222 3500 
L 2222 3053 
L 1275 3053 
L 1275 0 
L 697 0 
L 697 3053 
L 147 3053 
L 147 3500 
L 697 3500 
L 697 3744 
Q 697 4328 969 4595 
Q 1241 4863 1831 4863 
L 2375 4863 
z
" transform="scale(0.015625)"/>
      <path id="DejaVuSans-49" d="M 628 4666 
L 1259 4666 
L 1259 0 
L 628 0 
L 628 4666 
z
" transform="scale(0.015625)"/>
      <path id="DejaVuSans-76" d="M 191 3500 
L 800 3500 
L 1894 563 
L 2988 3500 
L 3597 3500 
L 2284 0 
L 1503 0 
L 191 3500 
z
" transform="scale(0.015625)"/>
     </defs>
     <use xlink:href="#DejaVuSans-53"/>
     <use xlink:href="#DejaVuSans-74" transform="translate(63.476562 0)"/>
     <use xlink:href="#DejaVuSans-61" transform="translate(102.685547 0)"/>
     <use xlink:href="#DejaVuSans-6e" transform="translate(163.964844 0)"/>
     <use xlink:href="#DejaVuSans-64" transform="translate(227.34375 0)"/>
     <use xlink:href="#DejaVuSans-61" transform="translate(290.820312 0)"/>
     <use xlink:href="#DejaVuSans-72" transform="translate(352.099609 0)"/>
     <use xlink:href="#DejaVuSans-64" transform="translate(391.462891 0)"/>
     <use xlink:href="#DejaVuSans-20" transform="translate(454.939453 0)"/>
     <use xlink:href="#DejaVuSans-4e" transform="translate(486.726562 0)"/>
     <use xlink:href="#DejaVuSans-6f" transform="translate(561.53125 0)"/>
     <use xlink:href="#DejaVuSans-72" transform="translate(622.712891 0)"/>
     <use xlink:href="#DejaVuSans-6d" transform="translate(662.076172 0)"/>
     <use xlink:href="#DejaVuSans-61" transform="translate(759.488281 0)"/>
     <use xlink:href="#DejaVuSans-6c" transform="translate(820.767578 0)"/>
     <use xlink:href="#DejaVuSans-20" transform="translate(848.550781 0)"/>
     <use xlink:href="#DejaVuSans-44" transform="translate(880.337891 0)"/>
     <use xlink:href="#DejaVuSans-69" transform="translate(957.339844 0)"/>
     <use xlink:href="#DejaVuSans-73" transform="translate(985.123047 0)"/>
     <use xlink:href="#DejaVuSans-74" transform="translate(1037.222656 0)"/>
     <use xlink:href="#DejaVuSans-72" transform="translate(1076.431641 0)"/>
     <use xlink:href="#DejaVuSans-69" transform="translate(1117.544922 0)"/>
     <use xlink:href="#DejaVuSans-62" transform="translate(1145.328125 0)"/>
     <use xlink:href="#DejaVuSans-75" transform="translate(1208.804688 0)"/>
     <use xlink:href="#DejaVuSans-74" transform="translate(1272.183594 0)"/>
     <use xlink:href="#DejaVuSans-69" transform="translate(1311.392578 0)"/>
     <use xlink:href="#DejaVuSans-6f" transform="translate(1339.175781 0)"/>
     <use xlink:href="#DejaVuSans-6e" transform="translate(1400.357422 0)"/>
     <use xlink:href="#DejaVuSans-20" transform="translate(1463.736328 0)"/>
     <use xlink:href="#DejaVuSans-77" transform="translate(1495.523438 0)"/>
     <use xlink:href="#DejaVuSans-69" transform="translate(1577.310547 0)"/>
     <use xlink:href="#DejaVuSans-74" transform="translate(1605.09375 0)"/>
     <use xlink:href="#DejaVuSans-68" transform="translate(1644.302734 0)"/>
     <use xlink:href="#DejaVuSans-20" transform="translate(1707.681641 0)"/>
     <use xlink:href="#DejaVuSans-39" transform="translate(1739.46875 0)"/>
     <use xlink:href="#DejaVuSans-35" transform="translate(1803.091797 0)"/>
     <use xlink:href="#DejaVuSans-25" transform="translate(1866.714844 0)"/>
     <use xlink:href="#DejaVuSans-20" transform="translate(1961.734375 0)"/>
     <use xlink:href="#DejaVuSans-43" transform="translate(1993.521484 0)"/>
     <use xlink:href="#DejaVuSans-6f" transform="translate(2063.345703 0)"/>
     <use xlink:href="#DejaVuSans-6e" transform="translate(2124.527344 0)"/>
     <use xlink:href="#DejaVuSans-66" transform="translate(2187.90625 0)"/>
     <use xlink:href="#DejaVuSans-69" transform="translate(2223.111328 0)"/>
     <use xlink:href="#DejaVuSans-64" transform="translate(2250.894531 0)"/>
     <use xlink:href="#DejaVuSans-65" transform="translate(2314.371094 0)"/>
     <use xlink:href="#DejaVuSans-6e" transform="translate(2375.894531 0)"/>
     <use xlink:href="#DejaVuSans-63" transform="translate(2439.273438 0)"/>
     <use xlink:href="#DejaVuSans-65" transform="translate(2494.253906 0)"/>
     <use xlink:href="#DejaVuSans-20" transform="translate(2555.777344 0)"/>
     <use xlink:href="#DejaVuSans-49" transform="translate(2587.564453 0)"/>
     <use xlink:href="#DejaVuSans-6e" transform="translate(2617.056641 0)"/>
     <use xlink:href="#DejaVuSans-74" transform="translate(2680.435547 0)"/>
     <use xlink:href="#DejaVuSans-65" transform="translate(2719.644531 0)"/>
     <use xlink:href="#DejaVuSans-72" transform="translate(2781.167969 0)"/>
     <use xlink:href="#DejaVuSans-76" transform="translate(2822.28125 0)"/>
     <use xlink:href="#DejaVuSans-61" transform="translate(2881.460938 0)"/>
     <use xlink:href="#DejaVuSans-6c" transform="translate(2942.740234 0)"/>
     <use xlink:href="#DejaVuSans-20" transform="translate(2970.523438 0)"/>
     <use xlink:href="#DejaVuSans-53" transform="translate(3002.310547 0)"/>
     <use xlink:href="#DejaVuSans-68" transform="translate(3065.787109 0)"/>
     <use xlink:href="#DejaVuSans-61" transform="translate(3129.166016 0)"/>
     <use xlink:href="#DejaVuSans-64" transform="translate(3190.445312 0)"/>
     <use xlink:href="#DejaVuSans-65" transform="translate(3253.921875 0)"/>
     <use xlink:href="#DejaVuSans-64" transform="translate(3315.445312 0)"/>
    </g>
   </g>
   <g id="legend_1">
    <g id="patch_7">
     <path d="M 333.028125 80.55625 
L 511.4 80.55625 
Q 513.4 80.55625 513.4 78.55625 
L 513.4 50.2 
Q 513.4 48.2 511.4 48.2 
L 333.028125 48.2 
Q 331.028125 48.2 331.028125 50.2 
L 331.028125 78.55625 
Q 331.028125 80.55625 333.028125 80.55625 
z
" style="fill: #ffffff; opacity: 0.8; stroke: #cccccc; stroke-linejoin: miter"/>
    </g>
    <g id="line2d_38">
     <path d="M 335.028125 56.298437 
L 345.028125 56.298437 
L 355.028125 56.298437 
" style="fill: none; stroke: #0000ff; stroke-width: 1.5; stroke-linecap: square"/>
    </g>
    <g id="text_22">
     <!-- Standard Normal Distribution -->
     <g transform="translate(363.028125 59.798437) scale(0.1 -0.1)">
      <use xlink:href="#DejaVuSans-53"/>
      <use xlink:href="#DejaVuSans-74" transform="translate(63.476562 0)"/>
      <use xlink:href="#DejaVuSans-61" transform="translate(102.685547 0)"/>
      <use xlink:href="#DejaVuSans-6e" transform="translate(163.964844 0)"/>
      <use xlink:href="#DejaVuSans-64" transform="translate(227.34375 0)"/>
      <use xlink:href="#DejaVuSans-61" transform="translate(290.820312 0)"/>
      <use xlink:href="#DejaVuSans-72" transform="translate(352.099609 0)"/>
      <use xlink:href="#DejaVuSans-64" transform="translate(391.462891 0)"/>
      <use xlink:href="#DejaVuSans-20" transform="translate(454.939453 0)"/>
      <use xlink:href="#DejaVuSans-4e" transform="translate(486.726562 0)"/>
      <use xlink:href="#DejaVuSans-6f" transform="translate(561.53125 0)"/>
      <use xlink:href="#DejaVuSans-72" transform="translate(622.712891 0)"/>
      <use xlink:href="#DejaVuSans-6d" transform="translate(662.076172 0)"/>
      <use xlink:href="#DejaVuSans-61" transform="translate(759.488281 0)"/>
      <use xlink:href="#DejaVuSans-6c" transform="translate(820.767578 0)"/>
      <use xlink:href="#DejaVuSans-20" transform="translate(848.550781 0)"/>
      <use xlink:href="#DejaVuSans-44" transform="translate(880.337891 0)"/>
      <use xlink:href="#DejaVuSans-69" transform="translate(957.339844 0)"/>
      <use xlink:href="#DejaVuSans-73" transform="translate(985.123047 0)"/>
      <use xlink:href="#DejaVuSans-74" transform="translate(1037.222656 0)"/>
      <use xlink:href="#DejaVuSans-72" transform="translate(1076.431641 0)"/>
      <use xlink:href="#DejaVuSans-69" transform="translate(1117.544922 0)"/>
      <use xlink:href="#DejaVuSans-62" transform="translate(1145.328125 0)"/>
      <use xlink:href="#DejaVuSans-75" transform="translate(1208.804688 0)"/>
      <use xlink:href="#DejaVuSans-74" transform="translate(1272.183594 0)"/>
      <use xlink:href="#DejaVuSans-69" transform="translate(1311.392578 0)"/>
      <use xlink:href="#DejaVuSans-6f" transform="translate(1339.175781 0)"/>
      <use xlink:href="#DejaVuSans-6e" transform="translate(1400.357422 0)"/>
     </g>
    </g>
    <g id="patch_8">
     <path d="M 335.028125 74.476562 
L 355.028125 74.476562 
L 355.028125 67.476562 
L 335.028125 67.476562 
z
" style="fill: #add8e6; fill-opacity: 0.5; stroke: #add8e6; stroke-opacity: 0.5; stroke-linejoin: miter"/>
    </g>
    <g id="text_23">
     <!-- 95% Confidence Interval -->
     <g transform="translate(363.028125 74.476562) scale(0.1 -0.1)">
      <use xlink:href="#DejaVuSans-39"/>
      <use xlink:href="#DejaVuSans-35" transform="translate(63.623047 0)"/>
      <use xlink:href="#DejaVuSans-25" transform="translate(127.246094 0)"/>
      <use xlink:href="#DejaVuSans-20" transform="translate(222.265625 0)"/>
      <use xlink:href="#DejaVuSans-43" transform="translate(254.052734 0)"/>
      <use xlink:href="#DejaVuSans-6f" transform="translate(323.876953 0)"/>
      <use xlink:href="#DejaVuSans-6e" transform="translate(385.058594 0)"/>
      <use xlink:href="#DejaVuSans-66" transform="translate(448.4375 0)"/>
      <use xlink:href="#DejaVuSans-69" transform="translate(483.642578 0)"/>
      <use xlink:href="#DejaVuSans-64" transform="translate(511.425781 0)"/>
      <use xlink:href="#DejaVuSans-65" transform="translate(574.902344 0)"/>
      <use xlink:href="#DejaVuSans-6e" transform="translate(636.425781 0)"/>
      <use xlink:href="#DejaVuSans-63" transform="translate(699.804688 0)"/>
      <use xlink:href="#DejaVuSans-65" transform="translate(754.785156 0)"/>
      <use xlink:href="#DejaVuSans-20" transform="translate(816.308594 0)"/>
      <use xlink:href="#DejaVuSans-49" transform="translate(848.095703 0)"/>
      <use xlink:href="#DejaVuSans-6e" transform="translate(877.587891 0)"/>
      <use xlink:href="#DejaVuSans-74" transform="translate(940.966797 0)"/>
      <use xlink:href="#DejaVuSans-65" transform="translate(980.175781 0)"/>
      <use xlink:href="#DejaVuSans-72" transform="translate(1041.699219 0)"/>
      <use xlink:href="#DejaVuSans-76" transform="translate(1082.8125 0)"/>
      <use xlink:href="#DejaVuSans-61" transform="translate(1141.992188 0)"/>
      <use xlink:href="#DejaVuSans-6c" transform="translate(1203.271484 0)"/>
     </g>
    </g>
   </g>
  </g>
 </g>
 <defs>
  <clipPath id="pd0ca0ad584">
   <rect x="72" y="43.2" width="446.4" height="277.2"/>
  </clipPath>
 </defs>
</svg>
