<?xml version="1.0" encoding="utf-8" standalone="no"?>
<!DOCTYPE svg PUBLIC "-//W3C//DTD SVG 1.1//EN"
  "http://www.w3.org/Graphics/SVG/1.1/DTD/svg11.dtd">
<svg xmlns:xlink="http://www.w3.org/1999/xlink" width="460.8pt" height="345.6pt" viewBox="0 0 460.8 345.6" xmlns="http://www.w3.org/2000/svg" version="1.1">
 <metadata>
  <rdf:RDF xmlns:dc="http://purl.org/dc/elements/1.1/" xmlns:cc="http://creativecommons.org/ns#" xmlns:rdf="http://www.w3.org/1999/02/22-rdf-syntax-ns#">
   <cc:Work>
    <dc:type rdf:resource="http://purl.org/dc/dcmitype/StillImage"/>
    <dc:date>2025-08-27T19:06:08.768080</dc:date>
    <dc:format>image/svg+xml</dc:format>
    <dc:creator>
     <cc:Agent>
      <dc:title>Matplotlib v3.10.5, https://matplotlib.org/</dc:title>
     </cc:Agent>
    </dc:creator>
   </cc:Work>
  </rdf:RDF>
 </metadata>
 <defs>
  <style type="text/css">*{stroke-linejoin: round; stroke-linecap: butt}</style>
 </defs>
 <g id="figure_1">
  <g id="patch_1">
   <path d="M 0 345.6 
L 460.8 345.6 
L 460.8 0 
L 0 0 
L 0 345.6 
z
" style="fill: none"/>
  </g>
  <g id="axes_1">
   <g id="patch_2">
    <path d="M 57.6 307.584 
L 414.72 307.584 
L 414.72 41.472 
L 57.6 41.472 
L 57.6 307.584 
z
" style="fill: none"/>
   </g>
   <g id="FillBetweenPolyCollection_1">
    <defs>
     <path id="mc5d0e8a6e8" d="M 182.050909 -50.112 
L 182.050909 -149.569083 
L 182.375889 -150.633486 
L 182.700868 -151.702767 
L 183.025848 -152.776837 
L 183.350827 -153.85561 
L 183.675807 -154.938996 
L 184.000786 -156.026904 
L 184.325766 -157.119239 
L 184.650745 -158.215907 
L 184.975725 -159.316812 
L 185.300704 -160.421853 
L 185.625684 -161.530931 
L 185.950663 -162.643943 
L 186.275643 -163.760785 
L 186.600622 -164.881351 
L 186.925602 -166.005534 
L 187.250581 -167.133223 
L 187.575561 -168.264309 
L 187.900541 -169.398677 
L 188.22552 -170.536213 
L 188.5505 -171.676801 
L 188.875479 -172.820323 
L 189.200459 -173.966658 
L 189.525438 -175.115686 
L 189.850418 -176.267284 
L 190.175397 -177.421326 
L 190.500377 -178.577686 
L 190.825356 -179.736237 
L 191.150336 -180.896849 
L 191.475315 -182.059391 
L 191.800295 -183.22373 
L 192.125274 -184.389733 
L 192.450254 -185.557263 
L 192.775233 -186.726183 
L 193.100213 -187.896355 
L 193.425192 -189.06764 
L 193.750172 -190.239894 
L 194.075152 -191.412977 
L 194.400131 -192.586742 
L 194.725111 -193.761046 
L 195.05009 -194.935741 
L 195.37507 -196.11068 
L 195.700049 -197.285712 
L 196.025029 -198.460687 
L 196.350008 -199.635454 
L 196.674988 -200.80986 
L 196.999967 -201.98375 
L 197.324947 -203.15697 
L 197.649926 -204.329363 
L 197.974906 -205.500772 
L 198.299885 -206.671038 
L 198.624865 -207.840003 
L 198.949844 -209.007506 
L 199.274824 -210.173386 
L 199.599803 -211.337482 
L 199.924783 -212.499629 
L 200.249762 -213.659665 
L 200.574742 -214.817426 
L 200.899722 -215.972745 
L 201.224701 -217.125458 
L 201.549681 -218.275398 
L 201.87466 -219.422398 
L 202.19964 -220.566289 
L 202.524619 -221.706905 
L 202.849599 -222.844076 
L 203.174578 -223.977633 
L 203.499558 -225.107406 
L 203.824537 -226.233226 
L 204.149517 -227.354922 
L 204.474496 -228.472324 
L 204.799476 -229.58526 
L 205.124455 -230.693561 
L 205.449435 -231.797054 
L 205.774414 -232.895568 
L 206.099394 -233.988932 
L 206.424373 -235.076975 
L 206.749353 -236.159524 
L 207.074333 -237.236409 
L 207.399312 -238.307458 
L 207.724292 -239.3725 
L 208.049271 -240.431364 
L 208.374251 -241.48388 
L 208.69923 -242.529876 
L 209.02421 -243.569184 
L 209.349189 -244.601632 
L 209.674169 -245.627052 
L 209.999148 -246.645274 
L 210.324128 -247.656131 
L 210.649107 -248.659454 
L 210.974087 -249.655076 
L 211.299066 -250.64283 
L 211.624046 -251.622552 
L 211.949025 -252.594074 
L 212.274005 -253.557233 
L 212.598984 -254.511866 
L 212.923964 -255.45781 
L 213.248943 -256.394902 
L 213.573923 -257.322982 
L 213.898903 -258.24189 
L 214.223882 -259.151467 
L 214.548862 -260.051556 
L 214.873841 -260.942 
L 215.198821 -261.822643 
L 215.5238 -262.693333 
L 215.84878 -263.553915 
L 216.173759 -264.404238 
L 216.498739 -265.244152 
L 216.823718 -266.073509 
L 217.148698 -266.892161 
L 217.473677 -267.699962 
L 217.798657 -268.496768 
L 218.123636 -269.282437 
L 218.448616 -270.056827 
L 218.773595 -270.819799 
L 219.098575 -271.571216 
L 219.423554 -272.310941 
L 219.748534 -273.03884 
L 220.073514 -273.754782 
L 220.398493 -274.458636 
L 220.723473 -275.150273 
L 221.048452 -275.829568 
L 221.373432 -276.496394 
L 221.698411 -277.150631 
L 222.023391 -277.792157 
L 222.34837 -278.420854 
L 222.67335 -279.036606 
L 222.998329 -279.6393 
L 223.323309 -280.228822 
L 223.648288 -280.805065 
L 223.973268 -281.367919 
L 224.298247 -281.917282 
L 224.623227 -282.453049 
L 224.948206 -282.975121 
L 225.273186 -283.4834 
L 225.598165 -283.977791 
L 225.923145 -284.4582 
L 226.248124 -284.924538 
L 226.573104 -285.376716 
L 226.898084 -285.814649 
L 227.223063 -286.238254 
L 227.548043 -286.647452 
L 227.873022 -287.042164 
L 228.198002 -287.422316 
L 228.522981 -287.787836 
L 228.847961 -288.138654 
L 229.17294 -288.474704 
L 229.49792 -288.795922 
L 229.822899 -289.102245 
L 230.147879 -289.393617 
L 230.472858 -289.669981 
L 230.797838 -289.931285 
L 231.122817 -290.177478 
L 231.447797 -290.408513 
L 231.772776 -290.624347 
L 232.097756 -290.824938 
L 232.422735 -291.010247 
L 232.747715 -291.180239 
L 233.072695 -291.334881 
L 233.397674 -291.474144 
L 233.722654 -291.598001 
L 234.047633 -291.706428 
L 234.372613 -291.799404 
L 234.697592 -291.876911 
L 235.022572 -291.938935 
L 235.347551 -291.985463 
L 235.672531 -292.016487 
L 235.99751 -292.032 
L 236.32249 -292.032 
L 236.647469 -292.016487 
L 236.972449 -291.985463 
L 237.297428 -291.938935 
L 237.622408 -291.876911 
L 237.947387 -291.799404 
L 238.272367 -291.706428 
L 238.597346 -291.598001 
L 238.922326 -291.474144 
L 239.247305 -291.334881 
L 239.572285 -291.180239 
L 239.897265 -291.010247 
L 240.222244 -290.824938 
L 240.547224 -290.624347 
L 240.872203 -290.408513 
L 241.197183 -290.177478 
L 241.522162 -289.931285 
L 241.847142 -289.669981 
L 242.172121 -289.393617 
L 242.497101 -289.102245 
L 242.82208 -288.795922 
L 243.14706 -288.474704 
L 243.472039 -288.138654 
L 243.797019 -287.787836 
L 244.121998 -287.422316 
L 244.446978 -287.042164 
L 244.771957 -286.647452 
L 245.096937 -286.238254 
L 245.421916 -285.814649 
L 245.746896 -285.376716 
L 246.071876 -284.924538 
L 246.396855 -284.4582 
L 246.721835 -283.977791 
L 247.046814 -283.4834 
L 247.371794 -282.975121 
L 247.696773 -282.453049 
L 248.021753 -281.917282 
L 248.346732 -281.367919 
L 248.671712 -280.805065 
L 248.996691 -280.228822 
L 249.321671 -279.6393 
L 249.64665 -279.036606 
L 249.97163 -278.420854 
L 250.296609 -277.792157 
L 250.621589 -277.150631 
L 250.946568 -276.496394 
L 251.271548 -275.829568 
L 251.596527 -275.150273 
L 251.921507 -274.458636 
L 252.246486 -273.754782 
L 252.571466 -273.03884 
L 252.896446 -272.310941 
L 253.221425 -271.571216 
L 253.546405 -270.819799 
L 253.871384 -270.056827 
L 254.196364 -269.282437 
L 254.521343 -268.496768 
L 254.846323 -267.699962 
L 255.171302 -266.892161 
L 255.496282 -266.073509 
L 255.821261 -265.244152 
L 256.146241 -264.404238 
L 256.47122 -263.553915 
L 256.7962 -262.693333 
L 257.121179 -261.822643 
L 257.446159 -260.942 
L 257.771138 -260.051556 
L 258.096118 -259.151467 
L 258.421097 -258.24189 
L 258.746077 -257.322982 
L 259.071057 -256.394902 
L 259.396036 -255.45781 
L 259.721016 -254.511866 
L 260.045995 -253.557233 
L 260.370975 -252.594074 
L 260.695954 -251.622552 
L 261.020934 -250.64283 
L 261.345913 -249.655076 
L 261.670893 -248.659454 
L 261.995872 -247.656131 
L 262.320852 -246.645274 
L 262.645831 -245.627052 
L 262.970811 -244.601632 
L 263.29579 -243.569184 
L 263.62077 -242.529876 
L 263.945749 -241.48388 
L 264.270729 -240.431364 
L 264.595708 -239.3725 
L 264.920688 -238.307458 
L 265.245667 -237.236409 
L 265.570647 -236.159524 
L 265.895627 -235.076975 
L 266.220606 -233.988932 
L 266.545586 -232.895568 
L 266.870565 -231.797054 
L 267.195545 -230.693561 
L 267.520524 -229.58526 
L 267.845504 -228.472324 
L 268.170483 -227.354922 
L 268.495463 -226.233226 
L 268.820442 -225.107406 
L 269.145422 -223.977633 
L 269.470401 -222.844076 
L 269.795381 -221.706905 
L 270.12036 -220.566289 
L 270.44534 -219.422398 
L 270.770319 -218.275398 
L 271.095299 -217.125458 
L 271.420278 -215.972745 
L 271.745258 -214.817426 
L 272.070238 -213.659665 
L 272.395217 -212.499629 
L 272.720197 -211.337482 
L 273.045176 -210.173386 
L 273.370156 -209.007506 
L 273.695135 -207.840003 
L 274.020115 -206.671038 
L 274.345094 -205.500772 
L 274.670074 -204.329363 
L 274.995053 -203.15697 
L 275.320033 -201.98375 
L 275.645012 -200.80986 
L 275.969992 -199.635454 
L 276.294971 -198.460687 
L 276.619951 -197.285712 
L 276.94493 -196.11068 
L 277.26991 -194.935741 
L 277.594889 -193.761046 
L 277.919869 -192.586742 
L 278.244848 -191.412977 
L 278.569828 -190.239894 
L 278.894808 -189.06764 
L 279.219787 -187.896355 
L 279.544767 -186.726183 
L 279.869746 -185.557263 
L 280.194726 -184.389733 
L 280.519705 -183.22373 
L 280.844685 -182.059391 
L 281.169664 -180.896849 
L 281.494644 -179.736237 
L 281.819623 -178.577686 
L 282.144603 -177.421326 
L 282.469582 -176.267284 
L 282.794562 -175.115686 
L 283.119541 -173.966658 
L 283.444521 -172.820323 
L 283.7695 -171.676801 
L 284.09448 -170.536213 
L 284.419459 -169.398677 
L 284.744439 -168.264309 
L 285.069419 -167.133223 
L 285.394398 -166.005534 
L 285.719378 -164.881351 
L 286.044357 -163.760785 
L 286.369337 -162.643943 
L 286.694316 -161.530931 
L 287.019296 -160.421853 
L 287.344275 -159.316812 
L 287.669255 -158.215907 
L 287.994234 -157.119239 
L 288.319214 -156.026904 
L 288.644193 -154.938996 
L 288.969173 -153.85561 
L 289.294152 -152.776837 
L 289.619132 -151.702767 
L 289.944111 -150.633486 
L 290.269091 -149.569083 
L 290.269091 -50.112 
L 290.269091 -50.112 
L 289.944111 -50.112 
L 289.619132 -50.112 
L 289.294152 -50.112 
L 288.969173 -50.112 
L 288.644193 -50.112 
L 288.319214 -50.112 
L 287.994234 -50.112 
L 287.669255 -50.112 
L 287.344275 -50.112 
L 287.019296 -50.112 
L 286.694316 -50.112 
L 286.369337 -50.112 
L 286.044357 -50.112 
L 285.719378 -50.112 
L 285.394398 -50.112 
L 285.069419 -50.112 
L 284.744439 -50.112 
L 284.419459 -50.112 
L 284.09448 -50.112 
L 283.7695 -50.112 
L 283.444521 -50.112 
L 283.119541 -50.112 
L 282.794562 -50.112 
L 282.469582 -50.112 
L 282.144603 -50.112 
L 281.819623 -50.112 
L 281.494644 -50.112 
L 281.169664 -50.112 
L 280.844685 -50.112 
L 280.519705 -50.112 
L 280.194726 -50.112 
L 279.869746 -50.112 
L 279.544767 -50.112 
L 279.219787 -50.112 
L 278.894808 -50.112 
L 278.569828 -50.112 
L 278.244848 -50.112 
L 277.919869 -50.112 
L 277.594889 -50.112 
L 277.26991 -50.112 
L 276.94493 -50.112 
L 276.619951 -50.112 
L 276.294971 -50.112 
L 275.969992 -50.112 
L 275.645012 -50.112 
L 275.320033 -50.112 
L 274.995053 -50.112 
L 274.670074 -50.112 
L 274.345094 -50.112 
L 274.020115 -50.112 
L 273.695135 -50.112 
L 273.370156 -50.112 
L 273.045176 -50.112 
L 272.720197 -50.112 
L 272.395217 -50.112 
L 272.070238 -50.112 
L 271.745258 -50.112 
L 271.420278 -50.112 
L 271.095299 -50.112 
L 270.770319 -50.112 
L 270.44534 -50.112 
L 270.12036 -50.112 
L 269.795381 -50.112 
L 269.470401 -50.112 
L 269.145422 -50.112 
L 268.820442 -50.112 
L 268.495463 -50.112 
L 268.170483 -50.112 
L 267.845504 -50.112 
L 267.520524 -50.112 
L 267.195545 -50.112 
L 266.870565 -50.112 
L 266.545586 -50.112 
L 266.220606 -50.112 
L 265.895627 -50.112 
L 265.570647 -50.112 
L 265.245667 -50.112 
L 264.920688 -50.112 
L 264.595708 -50.112 
L 264.270729 -50.112 
L 263.945749 -50.112 
L 263.62077 -50.112 
L 263.29579 -50.112 
L 262.970811 -50.112 
L 262.645831 -50.112 
L 262.320852 -50.112 
L 261.995872 -50.112 
L 261.670893 -50.112 
L 261.345913 -50.112 
L 261.020934 -50.112 
L 260.695954 -50.112 
L 260.370975 -50.112 
L 260.045995 -50.112 
L 259.721016 -50.112 
L 259.396036 -50.112 
L 259.071057 -50.112 
L 258.746077 -50.112 
L 258.421097 -50.112 
L 258.096118 -50.112 
L 257.771138 -50.112 
L 257.446159 -50.112 
L 257.121179 -50.112 
L 256.7962 -50.112 
L 256.47122 -50.112 
L 256.146241 -50.112 
L 255.821261 -50.112 
L 255.496282 -50.112 
L 255.171302 -50.112 
L 254.846323 -50.112 
L 254.521343 -50.112 
L 254.196364 -50.112 
L 253.871384 -50.112 
L 253.546405 -50.112 
L 253.221425 -50.112 
L 252.896446 -50.112 
L 252.571466 -50.112 
L 252.246486 -50.112 
L 251.921507 -50.112 
L 251.596527 -50.112 
L 251.271548 -50.112 
L 250.946568 -50.112 
L 250.621589 -50.112 
L 250.296609 -50.112 
L 249.97163 -50.112 
L 249.64665 -50.112 
L 249.321671 -50.112 
L 248.996691 -50.112 
L 248.671712 -50.112 
L 248.346732 -50.112 
L 248.021753 -50.112 
L 247.696773 -50.112 
L 247.371794 -50.112 
L 247.046814 -50.112 
L 246.721835 -50.112 
L 246.396855 -50.112 
L 246.071876 -50.112 
L 245.746896 -50.112 
L 245.421916 -50.112 
L 245.096937 -50.112 
L 244.771957 -50.112 
L 244.446978 -50.112 
L 244.121998 -50.112 
L 243.797019 -50.112 
L 243.472039 -50.112 
L 243.14706 -50.112 
L 242.82208 -50.112 
L 242.497101 -50.112 
L 242.172121 -50.112 
L 241.847142 -50.112 
L 241.522162 -50.112 
L 241.197183 -50.112 
L 240.872203 -50.112 
L 240.547224 -50.112 
L 240.222244 -50.112 
L 239.897265 -50.112 
L 239.572285 -50.112 
L 239.247305 -50.112 
L 238.922326 -50.112 
L 238.597346 -50.112 
L 238.272367 -50.112 
L 237.947387 -50.112 
L 237.622408 -50.112 
L 237.297428 -50.112 
L 236.972449 -50.112 
L 236.647469 -50.112 
L 236.32249 -50.112 
L 235.99751 -50.112 
L 235.672531 -50.112 
L 235.347551 -50.112 
L 235.022572 -50.112 
L 234.697592 -50.112 
L 234.372613 -50.112 
L 234.047633 -50.112 
L 233.722654 -50.112 
L 233.397674 -50.112 
L 233.072695 -50.112 
L 232.747715 -50.112 
L 232.422735 -50.112 
L 232.097756 -50.112 
L 231.772776 -50.112 
L 231.447797 -50.112 
L 231.122817 -50.112 
L 230.797838 -50.112 
L 230.472858 -50.112 
L 230.147879 -50.112 
L 229.822899 -50.112 
L 229.49792 -50.112 
L 229.17294 -50.112 
L 228.847961 -50.112 
L 228.522981 -50.112 
L 228.198002 -50.112 
L 227.873022 -50.112 
L 227.548043 -50.112 
L 227.223063 -50.112 
L 226.898084 -50.112 
L 226.573104 -50.112 
L 226.248124 -50.112 
L 225.923145 -50.112 
L 225.598165 -50.112 
L 225.273186 -50.112 
L 224.948206 -50.112 
L 224.623227 -50.112 
L 224.298247 -50.112 
L 223.973268 -50.112 
L 223.648288 -50.112 
L 223.323309 -50.112 
L 222.998329 -50.112 
L 222.67335 -50.112 
L 222.34837 -50.112 
L 222.023391 -50.112 
L 221.698411 -50.112 
L 221.373432 -50.112 
L 221.048452 -50.112 
L 220.723473 -50.112 
L 220.398493 -50.112 
L 220.073514 -50.112 
L 219.748534 -50.112 
L 219.423554 -50.112 
L 219.098575 -50.112 
L 218.773595 -50.112 
L 218.448616 -50.112 
L 218.123636 -50.112 
L 217.798657 -50.112 
L 217.473677 -50.112 
L 217.148698 -50.112 
L 216.823718 -50.112 
L 216.498739 -50.112 
L 216.173759 -50.112 
L 215.84878 -50.112 
L 215.5238 -50.112 
L 215.198821 -50.112 
L 214.873841 -50.112 
L 214.548862 -50.112 
L 214.223882 -50.112 
L 213.898903 -50.112 
L 213.573923 -50.112 
L 213.248943 -50.112 
L 212.923964 -50.112 
L 212.598984 -50.112 
L 212.274005 -50.112 
L 211.949025 -50.112 
L 211.624046 -50.112 
L 211.299066 -50.112 
L 210.974087 -50.112 
L 210.649107 -50.112 
L 210.324128 -50.112 
L 209.999148 -50.112 
L 209.674169 -50.112 
L 209.349189 -50.112 
L 209.02421 -50.112 
L 208.69923 -50.112 
L 208.374251 -50.112 
L 208.049271 -50.112 
L 207.724292 -50.112 
L 207.399312 -50.112 
L 207.074333 -50.112 
L 206.749353 -50.112 
L 206.424373 -50.112 
L 206.099394 -50.112 
L 205.774414 -50.112 
L 205.449435 -50.112 
L 205.124455 -50.112 
L 204.799476 -50.112 
L 204.474496 -50.112 
L 204.149517 -50.112 
L 203.824537 -50.112 
L 203.499558 -50.112 
L 203.174578 -50.112 
L 202.849599 -50.112 
L 202.524619 -50.112 
L 202.19964 -50.112 
L 201.87466 -50.112 
L 201.549681 -50.112 
L 201.224701 -50.112 
L 200.899722 -50.112 
L 200.574742 -50.112 
L 200.249762 -50.112 
L 199.924783 -50.112 
L 199.599803 -50.112 
L 199.274824 -50.112 
L 198.949844 -50.112 
L 198.624865 -50.112 
L 198.299885 -50.112 
L 197.974906 -50.112 
L 197.649926 -50.112 
L 197.324947 -50.112 
L 196.999967 -50.112 
L 196.674988 -50.112 
L 196.350008 -50.112 
L 196.025029 -50.112 
L 195.700049 -50.112 
L 195.37507 -50.112 
L 195.05009 -50.112 
L 194.725111 -50.112 
L 194.400131 -50.112 
L 194.075152 -50.112 
L 193.750172 -50.112 
L 193.425192 -50.112 
L 193.100213 -50.112 
L 192.775233 -50.112 
L 192.450254 -50.112 
L 192.125274 -50.112 
L 191.800295 -50.112 
L 191.475315 -50.112 
L 191.150336 -50.112 
L 190.825356 -50.112 
L 190.500377 -50.112 
L 190.175397 -50.112 
L 189.850418 -50.112 
L 189.525438 -50.112 
L 189.200459 -50.112 
L 188.875479 -50.112 
L 188.5505 -50.112 
L 188.22552 -50.112 
L 187.900541 -50.112 
L 187.575561 -50.112 
L 187.250581 -50.112 
L 186.925602 -50.112 
L 186.600622 -50.112 
L 186.275643 -50.112 
L 185.950663 -50.112 
L 185.625684 -50.112 
L 185.300704 -50.112 
L 184.975725 -50.112 
L 184.650745 -50.112 
L 184.325766 -50.112 
L 184.000786 -50.112 
L 183.675807 -50.112 
L 183.350827 -50.112 
L 183.025848 -50.112 
L 182.700868 -50.112 
L 182.375889 -50.112 
L 182.050909 -50.112 
z
" style="stroke: #002d8b; stroke-opacity: 0.5"/>
    </defs>
    <g clip-path="url(#pfa324220c3)">
     <use xlink:href="#mc5d0e8a6e8" x="0" y="345.6" style="fill: #002d8b; fill-opacity: 0.5; stroke: #002d8b; stroke-opacity: 0.5"/>
    </g>
   </g>
   <g id="matplotlib.axis_1">
    <g id="xtick_1">
     <g id="line2d_1">
      <path d="M 73.832727 307.584 
L 73.832727 41.472 
" clip-path="url(#pfa324220c3)" style="fill: none; stroke: #b0b0b0; stroke-opacity: 0.3; stroke-width: 0.8; stroke-linecap: square"/>
     </g>
     <g id="line2d_2">
      <defs>
       <path id="m9583659a27" d="M 0 0 
L 0 3.5 
" style="stroke: #000000; stroke-width: 0.8"/>
      </defs>
      <g>
       <use xlink:href="#m9583659a27" x="73.832727" y="307.584" style="stroke: #000000; stroke-width: 0.8"/>
      </g>
     </g>
     <g id="text_1">
      <!-- 40 -->
      <g transform="translate(67.470227 322.182437) scale(0.1 -0.1)">
       <defs>
        <path id="DejaVuSans-34" d="M 2419 4116 
L 825 1625 
L 2419 1625 
L 2419 4116 
z
M 2253 4666 
L 3047 4666 
L 3047 1625 
L 3713 1625 
L 3713 1100 
L 3047 1100 
L 3047 0 
L 2419 0 
L 2419 1100 
L 313 1100 
L 313 1709 
L 2253 4666 
z
" transform="scale(0.015625)"/>
        <path id="DejaVuSans-30" d="M 2034 4250 
Q 1547 4250 1301 3770 
Q 1056 3291 1056 2328 
Q 1056 1369 1301 889 
Q 1547 409 2034 409 
Q 2525 409 2770 889 
Q 3016 1369 3016 2328 
Q 3016 3291 2770 3770 
Q 2525 4250 2034 4250 
z
M 2034 4750 
Q 2819 4750 3233 4129 
Q 3647 3509 3647 2328 
Q 3647 1150 3233 529 
Q 2819 -91 2034 -91 
Q 1250 -91 836 529 
Q 422 1150 422 2328 
Q 422 3509 836 4129 
Q 1250 4750 2034 4750 
z
" transform="scale(0.015625)"/>
       </defs>
       <use xlink:href="#DejaVuSans-34"/>
       <use xlink:href="#DejaVuSans-30" transform="translate(63.623047 0)"/>
      </g>
     </g>
    </g>
    <g id="xtick_2">
     <g id="line2d_3">
      <path d="M 127.941818 307.584 
L 127.941818 41.472 
" clip-path="url(#pfa324220c3)" style="fill: none; stroke: #b0b0b0; stroke-opacity: 0.3; stroke-width: 0.8; stroke-linecap: square"/>
     </g>
     <g id="line2d_4">
      <g>
       <use xlink:href="#m9583659a27" x="127.941818" y="307.584" style="stroke: #000000; stroke-width: 0.8"/>
      </g>
     </g>
     <g id="text_2">
      <!-- 60 -->
      <g transform="translate(121.579318 322.182437) scale(0.1 -0.1)">
       <defs>
        <path id="DejaVuSans-36" d="M 2113 2584 
Q 1688 2584 1439 2293 
Q 1191 2003 1191 1497 
Q 1191 994 1439 701 
Q 1688 409 2113 409 
Q 2538 409 2786 701 
Q 3034 994 3034 1497 
Q 3034 2003 2786 2293 
Q 2538 2584 2113 2584 
z
M 3366 4563 
L 3366 3988 
Q 3128 4100 2886 4159 
Q 2644 4219 2406 4219 
Q 1781 4219 1451 3797 
Q 1122 3375 1075 2522 
Q 1259 2794 1537 2939 
Q 1816 3084 2150 3084 
Q 2853 3084 3261 2657 
Q 3669 2231 3669 1497 
Q 3669 778 3244 343 
Q 2819 -91 2113 -91 
Q 1303 -91 875 529 
Q 447 1150 447 2328 
Q 447 3434 972 4092 
Q 1497 4750 2381 4750 
Q 2619 4750 2861 4703 
Q 3103 4656 3366 4563 
z
" transform="scale(0.015625)"/>
       </defs>
       <use xlink:href="#DejaVuSans-36"/>
       <use xlink:href="#DejaVuSans-30" transform="translate(63.623047 0)"/>
      </g>
     </g>
    </g>
    <g id="xtick_3">
     <g id="line2d_5">
      <path d="M 182.050909 307.584 
L 182.050909 41.472 
" clip-path="url(#pfa324220c3)" style="fill: none; stroke: #b0b0b0; stroke-opacity: 0.3; stroke-width: 0.8; stroke-linecap: square"/>
     </g>
     <g id="line2d_6">
      <g>
       <use xlink:href="#m9583659a27" x="182.050909" y="307.584" style="stroke: #000000; stroke-width: 0.8"/>
      </g>
     </g>
     <g id="text_3">
      <!-- 80 -->
      <g transform="translate(175.688409 322.182437) scale(0.1 -0.1)">
       <defs>
        <path id="DejaVuSans-38" d="M 2034 2216 
Q 1584 2216 1326 1975 
Q 1069 1734 1069 1313 
Q 1069 891 1326 650 
Q 1584 409 2034 409 
Q 2484 409 2743 651 
Q 3003 894 3003 1313 
Q 3003 1734 2745 1975 
Q 2488 2216 2034 2216 
z
M 1403 2484 
Q 997 2584 770 2862 
Q 544 3141 544 3541 
Q 544 4100 942 4425 
Q 1341 4750 2034 4750 
Q 2731 4750 3128 4425 
Q 3525 4100 3525 3541 
Q 3525 3141 3298 2862 
Q 3072 2584 2669 2484 
Q 3125 2378 3379 2068 
Q 3634 1759 3634 1313 
Q 3634 634 3220 271 
Q 2806 -91 2034 -91 
Q 1263 -91 848 271 
Q 434 634 434 1313 
Q 434 1759 690 2068 
Q 947 2378 1403 2484 
z
M 1172 3481 
Q 1172 3119 1398 2916 
Q 1625 2713 2034 2713 
Q 2441 2713 2670 2916 
Q 2900 3119 2900 3481 
Q 2900 3844 2670 4047 
Q 2441 4250 2034 4250 
Q 1625 4250 1398 4047 
Q 1172 3844 1172 3481 
z
" transform="scale(0.015625)"/>
       </defs>
       <use xlink:href="#DejaVuSans-38"/>
       <use xlink:href="#DejaVuSans-30" transform="translate(63.623047 0)"/>
      </g>
     </g>
    </g>
    <g id="xtick_4">
     <g id="line2d_7">
      <path d="M 236.16 307.584 
L 236.16 41.472 
" clip-path="url(#pfa324220c3)" style="fill: none; stroke: #b0b0b0; stroke-opacity: 0.3; stroke-width: 0.8; stroke-linecap: square"/>
     </g>
     <g id="line2d_8">
      <g>
       <use xlink:href="#m9583659a27" x="236.16" y="307.584" style="stroke: #000000; stroke-width: 0.8"/>
      </g>
     </g>
     <g id="text_4">
      <!-- 100 -->
      <g transform="translate(226.61625 322.182437) scale(0.1 -0.1)">
       <defs>
        <path id="DejaVuSans-31" d="M 794 531 
L 1825 531 
L 1825 4091 
L 703 3866 
L 703 4441 
L 1819 4666 
L 2450 4666 
L 2450 531 
L 3481 531 
L 3481 0 
L 794 0 
L 794 531 
z
" transform="scale(0.015625)"/>
       </defs>
       <use xlink:href="#DejaVuSans-31"/>
       <use xlink:href="#DejaVuSans-30" transform="translate(63.623047 0)"/>
       <use xlink:href="#DejaVuSans-30" transform="translate(127.246094 0)"/>
      </g>
     </g>
    </g>
    <g id="xtick_5">
     <g id="line2d_9">
      <path d="M 290.269091 307.584 
L 290.269091 41.472 
" clip-path="url(#pfa324220c3)" style="fill: none; stroke: #b0b0b0; stroke-opacity: 0.3; stroke-width: 0.8; stroke-linecap: square"/>
     </g>
     <g id="line2d_10">
      <g>
       <use xlink:href="#m9583659a27" x="290.269091" y="307.584" style="stroke: #000000; stroke-width: 0.8"/>
      </g>
     </g>
     <g id="text_5">
      <!-- 120 -->
      <g transform="translate(280.725341 322.182437) scale(0.1 -0.1)">
       <defs>
        <path id="DejaVuSans-32" d="M 1228 531 
L 3431 531 
L 3431 0 
L 469 0 
L 469 531 
Q 828 903 1448 1529 
Q 2069 2156 2228 2338 
Q 2531 2678 2651 2914 
Q 2772 3150 2772 3378 
Q 2772 3750 2511 3984 
Q 2250 4219 1831 4219 
Q 1534 4219 1204 4116 
Q 875 4013 500 3803 
L 500 4441 
Q 881 4594 1212 4672 
Q 1544 4750 1819 4750 
Q 2544 4750 2975 4387 
Q 3406 4025 3406 3419 
Q 3406 3131 3298 2873 
Q 3191 2616 2906 2266 
Q 2828 2175 2409 1742 
Q 1991 1309 1228 531 
z
" transform="scale(0.015625)"/>
       </defs>
       <use xlink:href="#DejaVuSans-31"/>
       <use xlink:href="#DejaVuSans-32" transform="translate(63.623047 0)"/>
       <use xlink:href="#DejaVuSans-30" transform="translate(127.246094 0)"/>
      </g>
     </g>
    </g>
    <g id="xtick_6">
     <g id="line2d_11">
      <path d="M 344.378182 307.584 
L 344.378182 41.472 
" clip-path="url(#pfa324220c3)" style="fill: none; stroke: #b0b0b0; stroke-opacity: 0.3; stroke-width: 0.8; stroke-linecap: square"/>
     </g>
     <g id="line2d_12">
      <g>
       <use xlink:href="#m9583659a27" x="344.378182" y="307.584" style="stroke: #000000; stroke-width: 0.8"/>
      </g>
     </g>
     <g id="text_6">
      <!-- 140 -->
      <g transform="translate(334.834432 322.182437) scale(0.1 -0.1)">
       <use xlink:href="#DejaVuSans-31"/>
       <use xlink:href="#DejaVuSans-34" transform="translate(63.623047 0)"/>
       <use xlink:href="#DejaVuSans-30" transform="translate(127.246094 0)"/>
      </g>
     </g>
    </g>
    <g id="xtick_7">
     <g id="line2d_13">
      <path d="M 398.487273 307.584 
L 398.487273 41.472 
" clip-path="url(#pfa324220c3)" style="fill: none; stroke: #b0b0b0; stroke-opacity: 0.3; stroke-width: 0.8; stroke-linecap: square"/>
     </g>
     <g id="line2d_14">
      <g>
       <use xlink:href="#m9583659a27" x="398.487273" y="307.584" style="stroke: #000000; stroke-width: 0.8"/>
      </g>
     </g>
     <g id="text_7">
      <!-- 160 -->
      <g transform="translate(388.943523 322.182437) scale(0.1 -0.1)">
       <use xlink:href="#DejaVuSans-31"/>
       <use xlink:href="#DejaVuSans-36" transform="translate(63.623047 0)"/>
       <use xlink:href="#DejaVuSans-30" transform="translate(127.246094 0)"/>
      </g>
     </g>
    </g>
    <g id="text_8">
     <!-- IQ Score -->
     <g transform="translate(215.157656 335.860562) scale(0.1 -0.1)">
      <defs>
       <path id="DejaVuSans-49" d="M 628 4666 
L 1259 4666 
L 1259 0 
L 628 0 
L 628 4666 
z
" transform="scale(0.015625)"/>
       <path id="DejaVuSans-51" d="M 2522 4238 
Q 1834 4238 1429 3725 
Q 1025 3213 1025 2328 
Q 1025 1447 1429 934 
Q 1834 422 2522 422 
Q 3209 422 3611 934 
Q 4013 1447 4013 2328 
Q 4013 3213 3611 3725 
Q 3209 4238 2522 4238 
z
M 3406 84 
L 4238 -825 
L 3475 -825 
L 2784 -78 
Q 2681 -84 2626 -87 
Q 2572 -91 2522 -91 
Q 1538 -91 948 567 
Q 359 1225 359 2328 
Q 359 3434 948 4092 
Q 1538 4750 2522 4750 
Q 3503 4750 4090 4092 
Q 4678 3434 4678 2328 
Q 4678 1516 4351 937 
Q 4025 359 3406 84 
z
" transform="scale(0.015625)"/>
       <path id="DejaVuSans-20" transform="scale(0.015625)"/>
       <path id="DejaVuSans-53" d="M 3425 4513 
L 3425 3897 
Q 3066 4069 2747 4153 
Q 2428 4238 2131 4238 
Q 1616 4238 1336 4038 
Q 1056 3838 1056 3469 
Q 1056 3159 1242 3001 
Q 1428 2844 1947 2747 
L 2328 2669 
Q 3034 2534 3370 2195 
Q 3706 1856 3706 1288 
Q 3706 609 3251 259 
Q 2797 -91 1919 -91 
Q 1588 -91 1214 -16 
Q 841 59 441 206 
L 441 856 
Q 825 641 1194 531 
Q 1563 422 1919 422 
Q 2459 422 2753 634 
Q 3047 847 3047 1241 
Q 3047 1584 2836 1778 
Q 2625 1972 2144 2069 
L 1759 2144 
Q 1053 2284 737 2584 
Q 422 2884 422 3419 
Q 422 4038 858 4394 
Q 1294 4750 2059 4750 
Q 2388 4750 2728 4690 
Q 3069 4631 3425 4513 
z
" transform="scale(0.015625)"/>
       <path id="DejaVuSans-63" d="M 3122 3366 
L 3122 2828 
Q 2878 2963 2633 3030 
Q 2388 3097 2138 3097 
Q 1578 3097 1268 2742 
Q 959 2388 959 1747 
Q 959 1106 1268 751 
Q 1578 397 2138 397 
Q 2388 397 2633 464 
Q 2878 531 3122 666 
L 3122 134 
Q 2881 22 2623 -34 
Q 2366 -91 2075 -91 
Q 1284 -91 818 406 
Q 353 903 353 1747 
Q 353 2603 823 3093 
Q 1294 3584 2113 3584 
Q 2378 3584 2631 3529 
Q 2884 3475 3122 3366 
z
" transform="scale(0.015625)"/>
       <path id="DejaVuSans-6f" d="M 1959 3097 
Q 1497 3097 1228 2736 
Q 959 2375 959 1747 
Q 959 1119 1226 758 
Q 1494 397 1959 397 
Q 2419 397 2687 759 
Q 2956 1122 2956 1747 
Q 2956 2369 2687 2733 
Q 2419 3097 1959 3097 
z
M 1959 3584 
Q 2709 3584 3137 3096 
Q 3566 2609 3566 1747 
Q 3566 888 3137 398 
Q 2709 -91 1959 -91 
Q 1206 -91 779 398 
Q 353 888 353 1747 
Q 353 2609 779 3096 
Q 1206 3584 1959 3584 
z
" transform="scale(0.015625)"/>
       <path id="DejaVuSans-72" d="M 2631 2963 
Q 2534 3019 2420 3045 
Q 2306 3072 2169 3072 
Q 1681 3072 1420 2755 
Q 1159 2438 1159 1844 
L 1159 0 
L 581 0 
L 581 3500 
L 1159 3500 
L 1159 2956 
Q 1341 3275 1631 3429 
Q 1922 3584 2338 3584 
Q 2397 3584 2469 3576 
Q 2541 3569 2628 3553 
L 2631 2963 
z
" transform="scale(0.015625)"/>
       <path id="DejaVuSans-65" d="M 3597 1894 
L 3597 1613 
L 953 1613 
Q 991 1019 1311 708 
Q 1631 397 2203 397 
Q 2534 397 2845 478 
Q 3156 559 3463 722 
L 3463 178 
Q 3153 47 2828 -22 
Q 2503 -91 2169 -91 
Q 1331 -91 842 396 
Q 353 884 353 1716 
Q 353 2575 817 3079 
Q 1281 3584 2069 3584 
Q 2775 3584 3186 3129 
Q 3597 2675 3597 1894 
z
M 3022 2063 
Q 3016 2534 2758 2815 
Q 2500 3097 2075 3097 
Q 1594 3097 1305 2825 
Q 1016 2553 972 2059 
L 3022 2063 
z
" transform="scale(0.015625)"/>
      </defs>
      <use xlink:href="#DejaVuSans-49"/>
      <use xlink:href="#DejaVuSans-51" transform="translate(29.492188 0)"/>
      <use xlink:href="#DejaVuSans-20" transform="translate(108.203125 0)"/>
      <use xlink:href="#DejaVuSans-53" transform="translate(139.990234 0)"/>
      <use xlink:href="#DejaVuSans-63" transform="translate(203.466797 0)"/>
      <use xlink:href="#DejaVuSans-6f" transform="translate(258.447266 0)"/>
      <use xlink:href="#DejaVuSans-72" transform="translate(319.628906 0)"/>
      <use xlink:href="#DejaVuSans-65" transform="translate(358.492188 0)"/>
     </g>
    </g>
   </g>
   <g id="matplotlib.axis_2">
    <g id="ytick_1">
     <g id="line2d_15">
      <path d="M 57.6 295.488 
L 414.72 295.488 
" clip-path="url(#pfa324220c3)" style="fill: none; stroke: #b0b0b0; stroke-opacity: 0.3; stroke-width: 0.8; stroke-linecap: square"/>
     </g>
     <g id="line2d_16">
      <defs>
       <path id="m08c5f63d60" d="M 0 0 
L -3.5 0 
" style="stroke: #000000; stroke-width: 0.8"/>
      </defs>
      <g>
       <use xlink:href="#m08c5f63d60" x="57.6" y="295.488" style="stroke: #000000; stroke-width: 0.8"/>
      </g>
     </g>
     <g id="text_9">
      <!-- 0.000 -->
      <g transform="translate(21.971875 299.287219) scale(0.1 -0.1)">
       <defs>
        <path id="DejaVuSans-2e" d="M 684 794 
L 1344 794 
L 1344 0 
L 684 0 
L 684 794 
z
" transform="scale(0.015625)"/>
       </defs>
       <use xlink:href="#DejaVuSans-30"/>
       <use xlink:href="#DejaVuSans-2e" transform="translate(63.623047 0)"/>
       <use xlink:href="#DejaVuSans-30" transform="translate(95.410156 0)"/>
       <use xlink:href="#DejaVuSans-30" transform="translate(159.033203 0)"/>
       <use xlink:href="#DejaVuSans-30" transform="translate(222.65625 0)"/>
      </g>
     </g>
    </g>
    <g id="ytick_2">
     <g id="line2d_17">
      <path d="M 57.6 250.007372 
L 414.72 250.007372 
" clip-path="url(#pfa324220c3)" style="fill: none; stroke: #b0b0b0; stroke-opacity: 0.3; stroke-width: 0.8; stroke-linecap: square"/>
     </g>
     <g id="line2d_18">
      <g>
       <use xlink:href="#m08c5f63d60" x="57.6" y="250.007372" style="stroke: #000000; stroke-width: 0.8"/>
      </g>
     </g>
     <g id="text_10">
      <!-- 0.005 -->
      <g transform="translate(21.971875 253.806591) scale(0.1 -0.1)">
       <defs>
        <path id="DejaVuSans-35" d="M 691 4666 
L 3169 4666 
L 3169 4134 
L 1269 4134 
L 1269 2991 
Q 1406 3038 1543 3061 
Q 1681 3084 1819 3084 
Q 2600 3084 3056 2656 
Q 3513 2228 3513 1497 
Q 3513 744 3044 326 
Q 2575 -91 1722 -91 
Q 1428 -91 1123 -41 
Q 819 9 494 109 
L 494 744 
Q 775 591 1075 516 
Q 1375 441 1709 441 
Q 2250 441 2565 725 
Q 2881 1009 2881 1497 
Q 2881 1984 2565 2268 
Q 2250 2553 1709 2553 
Q 1456 2553 1204 2497 
Q 953 2441 691 2322 
L 691 4666 
z
" transform="scale(0.015625)"/>
       </defs>
       <use xlink:href="#DejaVuSans-30"/>
       <use xlink:href="#DejaVuSans-2e" transform="translate(63.623047 0)"/>
       <use xlink:href="#DejaVuSans-30" transform="translate(95.410156 0)"/>
       <use xlink:href="#DejaVuSans-30" transform="translate(159.033203 0)"/>
       <use xlink:href="#DejaVuSans-35" transform="translate(222.65625 0)"/>
      </g>
     </g>
    </g>
    <g id="ytick_3">
     <g id="line2d_19">
      <path d="M 57.6 204.526744 
L 414.72 204.526744 
" clip-path="url(#pfa324220c3)" style="fill: none; stroke: #b0b0b0; stroke-opacity: 0.3; stroke-width: 0.8; stroke-linecap: square"/>
     </g>
     <g id="line2d_20">
      <g>
       <use xlink:href="#m08c5f63d60" x="57.6" y="204.526744" style="stroke: #000000; stroke-width: 0.8"/>
      </g>
     </g>
     <g id="text_11">
      <!-- 0.010 -->
      <g transform="translate(21.971875 208.325963) scale(0.1 -0.1)">
       <use xlink:href="#DejaVuSans-30"/>
       <use xlink:href="#DejaVuSans-2e" transform="translate(63.623047 0)"/>
       <use xlink:href="#DejaVuSans-30" transform="translate(95.410156 0)"/>
       <use xlink:href="#DejaVuSans-31" transform="translate(159.033203 0)"/>
       <use xlink:href="#DejaVuSans-30" transform="translate(222.65625 0)"/>
      </g>
     </g>
    </g>
    <g id="ytick_4">
     <g id="line2d_21">
      <path d="M 57.6 159.046116 
L 414.72 159.046116 
" clip-path="url(#pfa324220c3)" style="fill: none; stroke: #b0b0b0; stroke-opacity: 0.3; stroke-width: 0.8; stroke-linecap: square"/>
     </g>
     <g id="line2d_22">
      <g>
       <use xlink:href="#m08c5f63d60" x="57.6" y="159.046116" style="stroke: #000000; stroke-width: 0.8"/>
      </g>
     </g>
     <g id="text_12">
      <!-- 0.015 -->
      <g transform="translate(21.971875 162.845335) scale(0.1 -0.1)">
       <use xlink:href="#DejaVuSans-30"/>
       <use xlink:href="#DejaVuSans-2e" transform="translate(63.623047 0)"/>
       <use xlink:href="#DejaVuSans-30" transform="translate(95.410156 0)"/>
       <use xlink:href="#DejaVuSans-31" transform="translate(159.033203 0)"/>
       <use xlink:href="#DejaVuSans-35" transform="translate(222.65625 0)"/>
      </g>
     </g>
    </g>
    <g id="ytick_5">
     <g id="line2d_23">
      <path d="M 57.6 113.565488 
L 414.72 113.565488 
" clip-path="url(#pfa324220c3)" style="fill: none; stroke: #b0b0b0; stroke-opacity: 0.3; stroke-width: 0.8; stroke-linecap: square"/>
     </g>
     <g id="line2d_24">
      <g>
       <use xlink:href="#m08c5f63d60" x="57.6" y="113.565488" style="stroke: #000000; stroke-width: 0.8"/>
      </g>
     </g>
     <g id="text_13">
      <!-- 0.020 -->
      <g transform="translate(21.971875 117.364707) scale(0.1 -0.1)">
       <use xlink:href="#DejaVuSans-30"/>
       <use xlink:href="#DejaVuSans-2e" transform="translate(63.623047 0)"/>
       <use xlink:href="#DejaVuSans-30" transform="translate(95.410156 0)"/>
       <use xlink:href="#DejaVuSans-32" transform="translate(159.033203 0)"/>
       <use xlink:href="#DejaVuSans-30" transform="translate(222.65625 0)"/>
      </g>
     </g>
    </g>
    <g id="ytick_6">
     <g id="line2d_25">
      <path d="M 57.6 68.08486 
L 414.72 68.08486 
" clip-path="url(#pfa324220c3)" style="fill: none; stroke: #b0b0b0; stroke-opacity: 0.3; stroke-width: 0.8; stroke-linecap: square"/>
     </g>
     <g id="line2d_26">
      <g>
       <use xlink:href="#m08c5f63d60" x="57.6" y="68.08486" style="stroke: #000000; stroke-width: 0.8"/>
      </g>
     </g>
     <g id="text_14">
      <!-- 0.025 -->
      <g transform="translate(21.971875 71.884079) scale(0.1 -0.1)">
       <use xlink:href="#DejaVuSans-30"/>
       <use xlink:href="#DejaVuSans-2e" transform="translate(63.623047 0)"/>
       <use xlink:href="#DejaVuSans-30" transform="translate(95.410156 0)"/>
       <use xlink:href="#DejaVuSans-32" transform="translate(159.033203 0)"/>
       <use xlink:href="#DejaVuSans-35" transform="translate(222.65625 0)"/>
      </g>
     </g>
    </g>
    <g id="text_15">
     <!-- Probability Density -->
     <g transform="translate(15.892187 221.554563) rotate(-90) scale(0.1 -0.1)">
      <defs>
       <path id="DejaVuSans-50" d="M 1259 4147 
L 1259 2394 
L 2053 2394 
Q 2494 2394 2734 2622 
Q 2975 2850 2975 3272 
Q 2975 3691 2734 3919 
Q 2494 4147 2053 4147 
L 1259 4147 
z
M 628 4666 
L 2053 4666 
Q 2838 4666 3239 4311 
Q 3641 3956 3641 3272 
Q 3641 2581 3239 2228 
Q 2838 1875 2053 1875 
L 1259 1875 
L 1259 0 
L 628 0 
L 628 4666 
z
" transform="scale(0.015625)"/>
       <path id="DejaVuSans-62" d="M 3116 1747 
Q 3116 2381 2855 2742 
Q 2594 3103 2138 3103 
Q 1681 3103 1420 2742 
Q 1159 2381 1159 1747 
Q 1159 1113 1420 752 
Q 1681 391 2138 391 
Q 2594 391 2855 752 
Q 3116 1113 3116 1747 
z
M 1159 2969 
Q 1341 3281 1617 3432 
Q 1894 3584 2278 3584 
Q 2916 3584 3314 3078 
Q 3713 2572 3713 1747 
Q 3713 922 3314 415 
Q 2916 -91 2278 -91 
Q 1894 -91 1617 61 
Q 1341 213 1159 525 
L 1159 0 
L 581 0 
L 581 4863 
L 1159 4863 
L 1159 2969 
z
" transform="scale(0.015625)"/>
       <path id="DejaVuSans-61" d="M 2194 1759 
Q 1497 1759 1228 1600 
Q 959 1441 959 1056 
Q 959 750 1161 570 
Q 1363 391 1709 391 
Q 2188 391 2477 730 
Q 2766 1069 2766 1631 
L 2766 1759 
L 2194 1759 
z
M 3341 1997 
L 3341 0 
L 2766 0 
L 2766 531 
Q 2569 213 2275 61 
Q 1981 -91 1556 -91 
Q 1019 -91 701 211 
Q 384 513 384 1019 
Q 384 1609 779 1909 
Q 1175 2209 1959 2209 
L 2766 2209 
L 2766 2266 
Q 2766 2663 2505 2880 
Q 2244 3097 1772 3097 
Q 1472 3097 1187 3025 
Q 903 2953 641 2809 
L 641 3341 
Q 956 3463 1253 3523 
Q 1550 3584 1831 3584 
Q 2591 3584 2966 3190 
Q 3341 2797 3341 1997 
z
" transform="scale(0.015625)"/>
       <path id="DejaVuSans-69" d="M 603 3500 
L 1178 3500 
L 1178 0 
L 603 0 
L 603 3500 
z
M 603 4863 
L 1178 4863 
L 1178 4134 
L 603 4134 
L 603 4863 
z
" transform="scale(0.015625)"/>
       <path id="DejaVuSans-6c" d="M 603 4863 
L 1178 4863 
L 1178 0 
L 603 0 
L 603 4863 
z
" transform="scale(0.015625)"/>
       <path id="DejaVuSans-74" d="M 1172 4494 
L 1172 3500 
L 2356 3500 
L 2356 3053 
L 1172 3053 
L 1172 1153 
Q 1172 725 1289 603 
Q 1406 481 1766 481 
L 2356 481 
L 2356 0 
L 1766 0 
Q 1100 0 847 248 
Q 594 497 594 1153 
L 594 3053 
L 172 3053 
L 172 3500 
L 594 3500 
L 594 4494 
L 1172 4494 
z
" transform="scale(0.015625)"/>
       <path id="DejaVuSans-79" d="M 2059 -325 
Q 1816 -950 1584 -1140 
Q 1353 -1331 966 -1331 
L 506 -1331 
L 506 -850 
L 844 -850 
Q 1081 -850 1212 -737 
Q 1344 -625 1503 -206 
L 1606 56 
L 191 3500 
L 800 3500 
L 1894 763 
L 2988 3500 
L 3597 3500 
L 2059 -325 
z
" transform="scale(0.015625)"/>
       <path id="DejaVuSans-44" d="M 1259 4147 
L 1259 519 
L 2022 519 
Q 2988 519 3436 956 
Q 3884 1394 3884 2338 
Q 3884 3275 3436 3711 
Q 2988 4147 2022 4147 
L 1259 4147 
z
M 628 4666 
L 1925 4666 
Q 3281 4666 3915 4102 
Q 4550 3538 4550 2338 
Q 4550 1131 3912 565 
Q 3275 0 1925 0 
L 628 0 
L 628 4666 
z
" transform="scale(0.015625)"/>
       <path id="DejaVuSans-6e" d="M 3513 2113 
L 3513 0 
L 2938 0 
L 2938 2094 
Q 2938 2591 2744 2837 
Q 2550 3084 2163 3084 
Q 1697 3084 1428 2787 
Q 1159 2491 1159 1978 
L 1159 0 
L 581 0 
L 581 3500 
L 1159 3500 
L 1159 2956 
Q 1366 3272 1645 3428 
Q 1925 3584 2291 3584 
Q 2894 3584 3203 3211 
Q 3513 2838 3513 2113 
z
" transform="scale(0.015625)"/>
       <path id="DejaVuSans-73" d="M 2834 3397 
L 2834 2853 
Q 2591 2978 2328 3040 
Q 2066 3103 1784 3103 
Q 1356 3103 1142 2972 
Q 928 2841 928 2578 
Q 928 2378 1081 2264 
Q 1234 2150 1697 2047 
L 1894 2003 
Q 2506 1872 2764 1633 
Q 3022 1394 3022 966 
Q 3022 478 2636 193 
Q 2250 -91 1575 -91 
Q 1294 -91 989 -36 
Q 684 19 347 128 
L 347 722 
Q 666 556 975 473 
Q 1284 391 1588 391 
Q 1994 391 2212 530 
Q 2431 669 2431 922 
Q 2431 1156 2273 1281 
Q 2116 1406 1581 1522 
L 1381 1569 
Q 847 1681 609 1914 
Q 372 2147 372 2553 
Q 372 3047 722 3315 
Q 1072 3584 1716 3584 
Q 2034 3584 2315 3537 
Q 2597 3491 2834 3397 
z
" transform="scale(0.015625)"/>
      </defs>
      <use xlink:href="#DejaVuSans-50"/>
      <use xlink:href="#DejaVuSans-72" transform="translate(58.552734 0)"/>
      <use xlink:href="#DejaVuSans-6f" transform="translate(97.416016 0)"/>
      <use xlink:href="#DejaVuSans-62" transform="translate(158.597656 0)"/>
      <use xlink:href="#DejaVuSans-61" transform="translate(222.074219 0)"/>
      <use xlink:href="#DejaVuSans-62" transform="translate(283.353516 0)"/>
      <use xlink:href="#DejaVuSans-69" transform="translate(346.830078 0)"/>
      <use xlink:href="#DejaVuSans-6c" transform="translate(374.613281 0)"/>
      <use xlink:href="#DejaVuSans-69" transform="translate(402.396484 0)"/>
      <use xlink:href="#DejaVuSans-74" transform="translate(430.179688 0)"/>
      <use xlink:href="#DejaVuSans-79" transform="translate(469.388672 0)"/>
      <use xlink:href="#DejaVuSans-20" transform="translate(528.568359 0)"/>
      <use xlink:href="#DejaVuSans-44" transform="translate(560.355469 0)"/>
      <use xlink:href="#DejaVuSans-65" transform="translate(637.357422 0)"/>
      <use xlink:href="#DejaVuSans-6e" transform="translate(698.880859 0)"/>
      <use xlink:href="#DejaVuSans-73" transform="translate(762.259766 0)"/>
      <use xlink:href="#DejaVuSans-69" transform="translate(814.359375 0)"/>
      <use xlink:href="#DejaVuSans-74" transform="translate(842.142578 0)"/>
      <use xlink:href="#DejaVuSans-79" transform="translate(881.351562 0)"/>
     </g>
    </g>
   </g>
   <g id="line2d_27">
    <path d="M 73.832727 295.406844 
L 87.806847 295.184779 
L 96.581294 294.835051 
L 103.080885 294.369735 
L 108.605536 293.756582 
L 113.15525 293.040565 
L 117.379984 292.150692 
L 120.954758 291.185862 
L 124.529533 289.984962 
L 127.779328 288.650828 
L 130.704144 287.221115 
L 133.62896 285.544223 
L 136.553776 283.58915 
L 139.153612 281.59157 
L 141.753448 279.325108 
L 144.353284 276.76599 
L 146.95312 273.890503 
L 149.552957 270.675418 
L 152.152793 267.09848 
L 154.752629 263.138937 
L 157.352465 258.778123 
L 159.952301 254.000074 
L 162.552138 248.792172 
L 165.476953 242.408916 
L 168.401769 235.465667 
L 171.326585 227.965825 
L 174.57638 218.996058 
L 177.826175 209.388645 
L 181.40095 198.144761 
L 185.625684 184.069069 
L 190.500377 167.022314 
L 206.749353 109.440476 
L 210.324128 97.943869 
L 213.248943 89.205098 
L 215.84878 82.046085 
L 218.448616 75.543173 
L 220.723473 70.449727 
L 222.67335 66.563394 
L 224.623227 63.146951 
L 226.573104 60.223284 
L 228.198002 58.177684 
L 229.822899 56.497755 
L 231.122817 55.422522 
L 232.422735 54.589753 
L 233.722654 54.001999 
L 235.022572 53.661065 
L 236.32249 53.568 
L 237.622408 53.723089 
L 238.922326 54.125856 
L 240.222244 54.775062 
L 241.522162 55.668715 
L 242.82208 56.804078 
L 244.446978 58.557836 
L 246.071876 60.675462 
L 247.696773 63.146951 
L 249.64665 66.563394 
L 251.596527 70.449727 
L 253.871384 75.543173 
L 256.146241 81.195762 
L 258.746077 88.277018 
L 261.670893 96.940546 
L 264.920688 107.292542 
L 268.820442 120.492594 
L 274.345094 140.099228 
L 285.719378 180.718649 
L 290.269091 196.030917 
L 294.168845 208.394621 
L 297.74362 218.996058 
L 300.993415 227.965825 
L 304.24321 236.264767 
L 307.168026 243.145795 
L 310.092842 249.467004 
L 313.017658 255.234455 
L 315.617494 259.906871 
L 318.21733 264.165754 
L 320.817166 268.027804 
L 323.417002 271.512265 
L 326.016839 274.640317 
L 328.616675 277.434508 
L 331.216511 279.918229 
L 333.816347 282.115248 
L 336.416183 284.049293 
L 339.340999 285.939789 
L 342.265815 287.559132 
L 345.190631 288.937952 
L 348.440426 290.222817 
L 352.015201 291.377614 
L 355.589975 292.303935 
L 359.814709 293.156837 
L 364.364423 293.841796 
L 369.564095 294.398753 
L 375.738706 294.835051 
L 383.538215 295.15704 
L 394.587518 295.369355 
L 398.487273 295.406844 
L 398.487273 295.406844 
" clip-path="url(#pfa324220c3)" style="fill: none; stroke: #1f77b4; stroke-width: 1.5; stroke-linecap: square"/>
   </g>
   <g id="patch_3">
    <path d="M 57.6 307.584 
L 57.6 41.472 
" style="fill: none; stroke: #000000; stroke-width: 0.8; stroke-linejoin: miter; stroke-linecap: square"/>
   </g>
   <g id="patch_4">
    <path d="M 414.72 307.584 
L 414.72 41.472 
" style="fill: none; stroke: #000000; stroke-width: 0.8; stroke-linejoin: miter; stroke-linecap: square"/>
   </g>
   <g id="patch_5">
    <path d="M 57.6 307.584 
L 414.72 307.584 
" style="fill: none; stroke: #000000; stroke-width: 0.8; stroke-linejoin: miter; stroke-linecap: square"/>
   </g>
   <g id="patch_6">
    <path d="M 57.6 41.472 
L 414.72 41.472 
" style="fill: none; stroke: #000000; stroke-width: 0.8; stroke-linejoin: miter; stroke-linecap: square"/>
   </g>
   <g id="text_16">
    <!-- IQ Score (Normal Distribution) -->
    <g transform="translate(145.749375 35.472) scale(0.12 -0.12)">
     <defs>
      <path id="DejaVuSans-28" d="M 1984 4856 
Q 1566 4138 1362 3434 
Q 1159 2731 1159 2009 
Q 1159 1288 1364 580 
Q 1569 -128 1984 -844 
L 1484 -844 
Q 1016 -109 783 600 
Q 550 1309 550 2009 
Q 550 2706 781 3412 
Q 1013 4119 1484 4856 
L 1984 4856 
z
" transform="scale(0.015625)"/>
      <path id="DejaVuSans-4e" d="M 628 4666 
L 1478 4666 
L 3547 763 
L 3547 4666 
L 4159 4666 
L 4159 0 
L 3309 0 
L 1241 3903 
L 1241 0 
L 628 0 
L 628 4666 
z
" transform="scale(0.015625)"/>
      <path id="DejaVuSans-6d" d="M 3328 2828 
Q 3544 3216 3844 3400 
Q 4144 3584 4550 3584 
Q 5097 3584 5394 3201 
Q 5691 2819 5691 2113 
L 5691 0 
L 5113 0 
L 5113 2094 
Q 5113 2597 4934 2840 
Q 4756 3084 4391 3084 
Q 3944 3084 3684 2787 
Q 3425 2491 3425 1978 
L 3425 0 
L 2847 0 
L 2847 2094 
Q 2847 2600 2669 2842 
Q 2491 3084 2119 3084 
Q 1678 3084 1418 2786 
Q 1159 2488 1159 1978 
L 1159 0 
L 581 0 
L 581 3500 
L 1159 3500 
L 1159 2956 
Q 1356 3278 1631 3431 
Q 1906 3584 2284 3584 
Q 2666 3584 2933 3390 
Q 3200 3197 3328 2828 
z
" transform="scale(0.015625)"/>
      <path id="DejaVuSans-75" d="M 544 1381 
L 544 3500 
L 1119 3500 
L 1119 1403 
Q 1119 906 1312 657 
Q 1506 409 1894 409 
Q 2359 409 2629 706 
Q 2900 1003 2900 1516 
L 2900 3500 
L 3475 3500 
L 3475 0 
L 2900 0 
L 2900 538 
Q 2691 219 2414 64 
Q 2138 -91 1772 -91 
Q 1169 -91 856 284 
Q 544 659 544 1381 
z
M 1991 3584 
L 1991 3584 
z
" transform="scale(0.015625)"/>
      <path id="DejaVuSans-29" d="M 513 4856 
L 1013 4856 
Q 1481 4119 1714 3412 
Q 1947 2706 1947 2009 
Q 1947 1309 1714 600 
Q 1481 -109 1013 -844 
L 513 -844 
Q 928 -128 1133 580 
Q 1338 1288 1338 2009 
Q 1338 2731 1133 3434 
Q 928 4138 513 4856 
z
" transform="scale(0.015625)"/>
     </defs>
     <use xlink:href="#DejaVuSans-49"/>
     <use xlink:href="#DejaVuSans-51" transform="translate(29.492188 0)"/>
     <use xlink:href="#DejaVuSans-20" transform="translate(108.203125 0)"/>
     <use xlink:href="#DejaVuSans-53" transform="translate(139.990234 0)"/>
     <use xlink:href="#DejaVuSans-63" transform="translate(203.466797 0)"/>
     <use xlink:href="#DejaVuSans-6f" transform="translate(258.447266 0)"/>
     <use xlink:href="#DejaVuSans-72" transform="translate(319.628906 0)"/>
     <use xlink:href="#DejaVuSans-65" transform="translate(358.492188 0)"/>
     <use xlink:href="#DejaVuSans-20" transform="translate(420.015625 0)"/>
     <use xlink:href="#DejaVuSans-28" transform="translate(451.802734 0)"/>
     <use xlink:href="#DejaVuSans-4e" transform="translate(490.816406 0)"/>
     <use xlink:href="#DejaVuSans-6f" transform="translate(565.621094 0)"/>
     <use xlink:href="#DejaVuSans-72" transform="translate(626.802734 0)"/>
     <use xlink:href="#DejaVuSans-6d" transform="translate(666.166016 0)"/>
     <use xlink:href="#DejaVuSans-61" transform="translate(763.578125 0)"/>
     <use xlink:href="#DejaVuSans-6c" transform="translate(824.857422 0)"/>
     <use xlink:href="#DejaVuSans-20" transform="translate(852.640625 0)"/>
     <use xlink:href="#DejaVuSans-44" transform="translate(884.427734 0)"/>
     <use xlink:href="#DejaVuSans-69" transform="translate(961.429688 0)"/>
     <use xlink:href="#DejaVuSans-73" transform="translate(989.212891 0)"/>
     <use xlink:href="#DejaVuSans-74" transform="translate(1041.3125 0)"/>
     <use xlink:href="#DejaVuSans-72" transform="translate(1080.521484 0)"/>
     <use xlink:href="#DejaVuSans-69" transform="translate(1121.634766 0)"/>
     <use xlink:href="#DejaVuSans-62" transform="translate(1149.417969 0)"/>
     <use xlink:href="#DejaVuSans-75" transform="translate(1212.894531 0)"/>
     <use xlink:href="#DejaVuSans-74" transform="translate(1276.273438 0)"/>
     <use xlink:href="#DejaVuSans-69" transform="translate(1315.482422 0)"/>
     <use xlink:href="#DejaVuSans-6f" transform="translate(1343.265625 0)"/>
     <use xlink:href="#DejaVuSans-6e" transform="translate(1404.447266 0)"/>
     <use xlink:href="#DejaVuSans-29" transform="translate(1467.826172 0)"/>
    </g>
   </g>
  </g>
 </g>
 <defs>
  <clipPath id="pfa324220c3">
   <rect x="57.6" y="41.472" width="357.12" height="266.112"/>
  </clipPath>
 </defs>
</svg>
