<?xml version="1.0" encoding="utf-8" standalone="no"?>
<!DOCTYPE svg PUBLIC "-//W3C//DTD SVG 1.1//EN"
  "http://www.w3.org/Graphics/SVG/1.1/DTD/svg11.dtd">
<svg xmlns:xlink="http://www.w3.org/1999/xlink" width="460.8pt" height="345.6pt" viewBox="0 0 460.8 345.6" xmlns="http://www.w3.org/2000/svg" version="1.1">
 <metadata>
  <rdf:RDF xmlns:dc="http://purl.org/dc/elements/1.1/" xmlns:cc="http://creativecommons.org/ns#" xmlns:rdf="http://www.w3.org/1999/02/22-rdf-syntax-ns#">
   <cc:Work>
    <dc:type rdf:resource="http://purl.org/dc/dcmitype/StillImage"/>
    <dc:date>2025-08-27T17:05:13.589182</dc:date>
    <dc:format>image/svg+xml</dc:format>
    <dc:creator>
     <cc:Agent>
      <dc:title>Matplotlib v3.10.5, https://matplotlib.org/</dc:title>
     </cc:Agent>
    </dc:creator>
   </cc:Work>
  </rdf:RDF>
 </metadata>
 <defs>
  <style type="text/css">*{stroke-linejoin: round; stroke-linecap: butt}</style>
 </defs>
 <g id="figure_1">
  <g id="patch_1">
   <path d="M 0 345.6 
L 460.8 345.6 
L 460.8 0 
L 0 0 
L 0 345.6 
z
" style="fill: none"/>
  </g>
  <g id="axes_1">
   <g id="patch_2">
    <path d="M 57.6 307.584 
L 414.72 307.584 
L 414.72 41.472 
L 57.6 41.472 
L 57.6 307.584 
z
" style="fill: none"/>
   </g>
   <g id="patch_3">
    <path d="M 61.101176 307.584 
L 66.936471 307.584 
L 66.936471 65.664 
L 61.101176 65.664 
z
" clip-path="url(#pfe92ff7e9f)" style="fill: #1f77b4; stroke: #ffffff; stroke-linejoin: miter"/>
   </g>
   <g id="patch_4">
    <path d="M 66.936471 307.584 
L 72.771765 307.584 
L 72.771765 280.347781 
L 66.936471 280.347781 
z
" clip-path="url(#pfe92ff7e9f)" style="fill: #1f77b4; stroke: #ffffff; stroke-linejoin: miter"/>
   </g>
   <g id="patch_5">
    <path d="M 72.771765 307.584 
L 78.607059 307.584 
L 78.607059 291.676326 
L 72.771765 291.676326 
z
" clip-path="url(#pfe92ff7e9f)" style="fill: #1f77b4; stroke: #ffffff; stroke-linejoin: miter"/>
   </g>
   <g id="patch_6">
    <path d="M 78.607059 307.584 
L 84.442353 307.584 
L 84.442353 292.194169 
L 78.607059 292.194169 
z
" clip-path="url(#pfe92ff7e9f)" style="fill: #1f77b4; stroke: #ffffff; stroke-linejoin: miter"/>
   </g>
   <g id="patch_7">
    <path d="M 84.442353 307.584 
L 90.277647 307.584 
L 90.277647 300.450566 
L 84.442353 300.450566 
z
" clip-path="url(#pfe92ff7e9f)" style="fill: #1f77b4; stroke: #ffffff; stroke-linejoin: miter"/>
   </g>
   <g id="patch_8">
    <path d="M 90.277647 307.584 
L 96.112941 307.584 
L 96.112941 296.238 
L 90.277647 296.238 
z
" clip-path="url(#pfe92ff7e9f)" style="fill: #1f77b4; stroke: #ffffff; stroke-linejoin: miter"/>
   </g>
   <g id="patch_9">
    <path d="M 96.112941 307.584 
L 101.948235 307.584 
L 101.948235 303.976554 
L 96.112941 303.976554 
z
" clip-path="url(#pfe92ff7e9f)" style="fill: #1f77b4; stroke: #ffffff; stroke-linejoin: miter"/>
   </g>
   <g id="patch_10">
    <path d="M 101.948235 307.584 
L 107.783529 307.584 
L 107.783529 300.578572 
L 101.948235 300.578572 
z
" clip-path="url(#pfe92ff7e9f)" style="fill: #1f77b4; stroke: #ffffff; stroke-linejoin: miter"/>
   </g>
   <g id="patch_11">
    <path d="M 107.783529 307.584 
L 113.618824 307.584 
L 113.618824 306.082837 
L 107.783529 306.082837 
z
" clip-path="url(#pfe92ff7e9f)" style="fill: #1f77b4; stroke: #ffffff; stroke-linejoin: miter"/>
   </g>
   <g id="patch_12">
    <path d="M 113.618824 307.584 
L 119.454118 307.584 
L 119.454118 302.940868 
L 113.618824 302.940868 
z
" clip-path="url(#pfe92ff7e9f)" style="fill: #1f77b4; stroke: #ffffff; stroke-linejoin: miter"/>
   </g>
   <g id="patch_13">
    <path d="M 119.454118 307.584 
L 125.289412 307.584 
L 125.289412 306.653046 
L 119.454118 306.653046 
z
" clip-path="url(#pfe92ff7e9f)" style="fill: #1f77b4; stroke: #ffffff; stroke-linejoin: miter"/>
   </g>
   <g id="patch_14">
    <path d="M 125.289412 307.584 
L 131.124706 307.584 
L 131.124706 304.674769 
L 125.289412 304.674769 
z
" clip-path="url(#pfe92ff7e9f)" style="fill: #1f77b4; stroke: #ffffff; stroke-linejoin: miter"/>
   </g>
   <g id="patch_15">
    <path d="M 131.124706 307.584 
L 136.96 307.584 
L 136.96 306.990517 
L 131.124706 306.990517 
z
" clip-path="url(#pfe92ff7e9f)" style="fill: #1f77b4; stroke: #ffffff; stroke-linejoin: miter"/>
   </g>
   <g id="patch_16">
    <path d="M 136.96 307.584 
L 142.795294 307.584 
L 142.795294 305.809369 
L 136.96 305.809369 
z
" clip-path="url(#pfe92ff7e9f)" style="fill: #1f77b4; stroke: #ffffff; stroke-linejoin: miter"/>
   </g>
   <g id="patch_17">
    <path d="M 142.795294 307.584 
L 148.630588 307.584 
L 148.630588 305.663908 
L 142.795294 305.663908 
z
" clip-path="url(#pfe92ff7e9f)" style="fill: #1f77b4; stroke: #ffffff; stroke-linejoin: miter"/>
   </g>
   <g id="patch_18">
    <path d="M 148.630588 307.584 
L 154.465882 307.584 
L 154.465882 307.217437 
L 148.630588 307.217437 
z
" clip-path="url(#pfe92ff7e9f)" style="fill: #1f77b4; stroke: #ffffff; stroke-linejoin: miter"/>
   </g>
   <g id="patch_19">
    <path d="M 154.465882 307.584 
L 160.301176 307.584 
L 160.301176 306.810145 
L 154.465882 306.810145 
z
" clip-path="url(#pfe92ff7e9f)" style="fill: #1f77b4; stroke: #ffffff; stroke-linejoin: miter"/>
   </g>
   <g id="patch_20">
    <path d="M 160.301176 307.584 
L 166.136471 307.584 
L 166.136471 307.368717 
L 160.301176 307.368717 
z
" clip-path="url(#pfe92ff7e9f)" style="fill: #1f77b4; stroke: #ffffff; stroke-linejoin: miter"/>
   </g>
   <g id="patch_21">
    <path d="M 166.136471 307.584 
L 171.971765 307.584 
L 171.971765 306.397034 
L 166.136471 306.397034 
z
" clip-path="url(#pfe92ff7e9f)" style="fill: #1f77b4; stroke: #ffffff; stroke-linejoin: miter"/>
   </g>
   <g id="patch_22">
    <path d="M 171.971765 307.584 
L 177.807059 307.584 
L 177.807059 307.43272 
L 171.971765 307.43272 
z
" clip-path="url(#pfe92ff7e9f)" style="fill: #1f77b4; stroke: #ffffff; stroke-linejoin: miter"/>
   </g>
   <g id="patch_23">
    <path d="M 177.807059 307.584 
L 183.642353 307.584 
L 183.642353 307.124342 
L 177.807059 307.124342 
z
" clip-path="url(#pfe92ff7e9f)" style="fill: #1f77b4; stroke: #ffffff; stroke-linejoin: miter"/>
   </g>
   <g id="patch_24">
    <path d="M 183.642353 307.584 
L 189.477647 307.584 
L 189.477647 307.479268 
L 183.642353 307.479268 
z
" clip-path="url(#pfe92ff7e9f)" style="fill: #1f77b4; stroke: #ffffff; stroke-linejoin: miter"/>
   </g>
   <g id="patch_25">
    <path d="M 189.477647 307.584 
L 195.312941 307.584 
L 195.312941 307.246529 
L 189.477647 307.246529 
z
" clip-path="url(#pfe92ff7e9f)" style="fill: #1f77b4; stroke: #ffffff; stroke-linejoin: miter"/>
   </g>
   <g id="patch_26">
    <path d="M 195.312941 307.584 
L 201.148235 307.584 
L 201.148235 307.525815 
L 195.312941 307.525815 
z
" clip-path="url(#pfe92ff7e9f)" style="fill: #1f77b4; stroke: #ffffff; stroke-linejoin: miter"/>
   </g>
   <g id="patch_27">
    <path d="M 201.148235 307.584 
L 206.983529 307.584 
L 206.983529 307.327988 
L 201.148235 307.327988 
z
" clip-path="url(#pfe92ff7e9f)" style="fill: #1f77b4; stroke: #ffffff; stroke-linejoin: miter"/>
   </g>
   <g id="patch_28">
    <path d="M 206.983529 307.584 
L 212.818824 307.584 
L 212.818824 307.549089 
L 206.983529 307.549089 
z
" clip-path="url(#pfe92ff7e9f)" style="fill: #1f77b4; stroke: #ffffff; stroke-linejoin: miter"/>
   </g>
   <g id="patch_29">
    <path d="M 212.818824 307.584 
L 218.654118 307.584 
L 218.654118 307.43272 
L 212.818824 307.43272 
z
" clip-path="url(#pfe92ff7e9f)" style="fill: #1f77b4; stroke: #ffffff; stroke-linejoin: miter"/>
   </g>
   <g id="patch_30">
    <path d="M 218.654118 307.584 
L 224.489412 307.584 
L 224.489412 307.554908 
L 218.654118 307.554908 
z
" clip-path="url(#pfe92ff7e9f)" style="fill: #1f77b4; stroke: #ffffff; stroke-linejoin: miter"/>
   </g>
   <g id="patch_31">
    <path d="M 224.489412 307.584 
L 230.324706 307.584 
L 230.324706 307.490905 
L 224.489412 307.490905 
z
" clip-path="url(#pfe92ff7e9f)" style="fill: #1f77b4; stroke: #ffffff; stroke-linejoin: miter"/>
   </g>
   <g id="patch_32">
    <path d="M 230.324706 307.584 
L 236.16 307.584 
L 236.16 307.531634 
L 230.324706 307.531634 
z
" clip-path="url(#pfe92ff7e9f)" style="fill: #1f77b4; stroke: #ffffff; stroke-linejoin: miter"/>
   </g>
   <g id="patch_33">
    <path d="M 236.16 307.584 
L 241.995294 307.584 
L 241.995294 307.572363 
L 236.16 307.572363 
z
" clip-path="url(#pfe92ff7e9f)" style="fill: #1f77b4; stroke: #ffffff; stroke-linejoin: miter"/>
   </g>
   <g id="patch_34">
    <path d="M 241.995294 307.584 
L 247.830588 307.584 
L 247.830588 307.560726 
L 241.995294 307.560726 
z
" clip-path="url(#pfe92ff7e9f)" style="fill: #1f77b4; stroke: #ffffff; stroke-linejoin: miter"/>
   </g>
   <g id="patch_35">
    <path d="M 247.830588 307.584 
L 253.665882 307.584 
L 253.665882 307.578182 
L 247.830588 307.578182 
z
" clip-path="url(#pfe92ff7e9f)" style="fill: #1f77b4; stroke: #ffffff; stroke-linejoin: miter"/>
   </g>
   <g id="patch_36">
    <path d="M 253.665882 307.584 
L 259.501176 307.584 
L 259.501176 307.554908 
L 253.665882 307.554908 
z
" clip-path="url(#pfe92ff7e9f)" style="fill: #1f77b4; stroke: #ffffff; stroke-linejoin: miter"/>
   </g>
   <g id="patch_37">
    <path d="M 259.501176 307.584 
L 265.336471 307.584 
L 265.336471 307.584 
L 259.501176 307.584 
z
" clip-path="url(#pfe92ff7e9f)" style="fill: #1f77b4; stroke: #ffffff; stroke-linejoin: miter"/>
   </g>
   <g id="patch_38">
    <path d="M 265.336471 307.584 
L 271.171765 307.584 
L 271.171765 307.566545 
L 265.336471 307.566545 
z
" clip-path="url(#pfe92ff7e9f)" style="fill: #1f77b4; stroke: #ffffff; stroke-linejoin: miter"/>
   </g>
   <g id="patch_39">
    <path d="M 271.171765 307.584 
L 277.007059 307.584 
L 277.007059 307.584 
L 271.171765 307.584 
z
" clip-path="url(#pfe92ff7e9f)" style="fill: #1f77b4; stroke: #ffffff; stroke-linejoin: miter"/>
   </g>
   <g id="patch_40">
    <path d="M 277.007059 307.584 
L 282.842353 307.584 
L 282.842353 307.560726 
L 277.007059 307.560726 
z
" clip-path="url(#pfe92ff7e9f)" style="fill: #1f77b4; stroke: #ffffff; stroke-linejoin: miter"/>
   </g>
   <g id="patch_41">
    <path d="M 282.842353 307.584 
L 288.677647 307.584 
L 288.677647 307.584 
L 282.842353 307.584 
z
" clip-path="url(#pfe92ff7e9f)" style="fill: #1f77b4; stroke: #ffffff; stroke-linejoin: miter"/>
   </g>
   <g id="patch_42">
    <path d="M 288.677647 307.584 
L 294.512941 307.584 
L 294.512941 307.578182 
L 288.677647 307.578182 
z
" clip-path="url(#pfe92ff7e9f)" style="fill: #1f77b4; stroke: #ffffff; stroke-linejoin: miter"/>
   </g>
   <g id="patch_43">
    <path d="M 294.512941 307.584 
L 300.348235 307.584 
L 300.348235 307.584 
L 294.512941 307.584 
z
" clip-path="url(#pfe92ff7e9f)" style="fill: #1f77b4; stroke: #ffffff; stroke-linejoin: miter"/>
   </g>
   <g id="patch_44">
    <path d="M 300.348235 307.584 
L 306.183529 307.584 
L 306.183529 307.578182 
L 300.348235 307.578182 
z
" clip-path="url(#pfe92ff7e9f)" style="fill: #1f77b4; stroke: #ffffff; stroke-linejoin: miter"/>
   </g>
   <g id="patch_45">
    <path d="M 306.183529 307.584 
L 312.018824 307.584 
L 312.018824 307.584 
L 306.183529 307.584 
z
" clip-path="url(#pfe92ff7e9f)" style="fill: #1f77b4; stroke: #ffffff; stroke-linejoin: miter"/>
   </g>
   <g id="patch_46">
    <path d="M 312.018824 307.584 
L 317.854118 307.584 
L 317.854118 307.578182 
L 312.018824 307.578182 
z
" clip-path="url(#pfe92ff7e9f)" style="fill: #1f77b4; stroke: #ffffff; stroke-linejoin: miter"/>
   </g>
   <g id="patch_47">
    <path d="M 317.854118 307.584 
L 323.689412 307.584 
L 323.689412 307.584 
L 317.854118 307.584 
z
" clip-path="url(#pfe92ff7e9f)" style="fill: #1f77b4; stroke: #ffffff; stroke-linejoin: miter"/>
   </g>
   <g id="patch_48">
    <path d="M 323.689412 307.584 
L 329.524706 307.584 
L 329.524706 307.584 
L 323.689412 307.584 
z
" clip-path="url(#pfe92ff7e9f)" style="fill: #1f77b4; stroke: #ffffff; stroke-linejoin: miter"/>
   </g>
   <g id="patch_49">
    <path d="M 329.524706 307.584 
L 335.36 307.584 
L 335.36 307.572363 
L 329.524706 307.572363 
z
" clip-path="url(#pfe92ff7e9f)" style="fill: #1f77b4; stroke: #ffffff; stroke-linejoin: miter"/>
   </g>
   <g id="patch_50">
    <path d="M 335.36 307.584 
L 341.195294 307.584 
L 341.195294 307.584 
L 335.36 307.584 
z
" clip-path="url(#pfe92ff7e9f)" style="fill: #1f77b4; stroke: #ffffff; stroke-linejoin: miter"/>
   </g>
   <g id="patch_51">
    <path d="M 341.195294 307.584 
L 347.030588 307.584 
L 347.030588 307.584 
L 341.195294 307.584 
z
" clip-path="url(#pfe92ff7e9f)" style="fill: #1f77b4; stroke: #ffffff; stroke-linejoin: miter"/>
   </g>
   <g id="patch_52">
    <path d="M 347.030588 307.584 
L 352.865882 307.584 
L 352.865882 307.584 
L 347.030588 307.584 
z
" clip-path="url(#pfe92ff7e9f)" style="fill: #1f77b4; stroke: #ffffff; stroke-linejoin: miter"/>
   </g>
   <g id="patch_53">
    <path d="M 352.865882 307.584 
L 358.701176 307.584 
L 358.701176 307.584 
L 352.865882 307.584 
z
" clip-path="url(#pfe92ff7e9f)" style="fill: #1f77b4; stroke: #ffffff; stroke-linejoin: miter"/>
   </g>
   <g id="patch_54">
    <path d="M 358.701176 307.584 
L 364.536471 307.584 
L 364.536471 307.584 
L 358.701176 307.584 
z
" clip-path="url(#pfe92ff7e9f)" style="fill: #1f77b4; stroke: #ffffff; stroke-linejoin: miter"/>
   </g>
   <g id="patch_55">
    <path d="M 364.536471 307.584 
L 370.371765 307.584 
L 370.371765 307.584 
L 364.536471 307.584 
z
" clip-path="url(#pfe92ff7e9f)" style="fill: #1f77b4; stroke: #ffffff; stroke-linejoin: miter"/>
   </g>
   <g id="patch_56">
    <path d="M 370.371765 307.584 
L 376.207059 307.584 
L 376.207059 307.584 
L 370.371765 307.584 
z
" clip-path="url(#pfe92ff7e9f)" style="fill: #1f77b4; stroke: #ffffff; stroke-linejoin: miter"/>
   </g>
   <g id="patch_57">
    <path d="M 376.207059 307.584 
L 382.042353 307.584 
L 382.042353 307.578182 
L 376.207059 307.578182 
z
" clip-path="url(#pfe92ff7e9f)" style="fill: #1f77b4; stroke: #ffffff; stroke-linejoin: miter"/>
   </g>
   <g id="patch_58">
    <path d="M 382.042353 307.584 
L 387.877647 307.584 
L 387.877647 307.584 
L 382.042353 307.584 
z
" clip-path="url(#pfe92ff7e9f)" style="fill: #1f77b4; stroke: #ffffff; stroke-linejoin: miter"/>
   </g>
   <g id="patch_59">
    <path d="M 387.877647 307.584 
L 393.712941 307.584 
L 393.712941 307.578182 
L 387.877647 307.578182 
z
" clip-path="url(#pfe92ff7e9f)" style="fill: #1f77b4; stroke: #ffffff; stroke-linejoin: miter"/>
   </g>
   <g id="patch_60">
    <path d="M 393.712941 307.584 
L 399.548235 307.584 
L 399.548235 307.584 
L 393.712941 307.584 
z
" clip-path="url(#pfe92ff7e9f)" style="fill: #1f77b4; stroke: #ffffff; stroke-linejoin: miter"/>
   </g>
   <g id="patch_61">
    <path d="M 399.548235 307.584 
L 405.383529 307.584 
L 405.383529 307.584 
L 399.548235 307.584 
z
" clip-path="url(#pfe92ff7e9f)" style="fill: #1f77b4; stroke: #ffffff; stroke-linejoin: miter"/>
   </g>
   <g id="patch_62">
    <path d="M 405.383529 307.584 
L 411.218824 307.584 
L 411.218824 307.578182 
L 405.383529 307.578182 
z
" clip-path="url(#pfe92ff7e9f)" style="fill: #1f77b4; stroke: #ffffff; stroke-linejoin: miter"/>
   </g>
   <g id="matplotlib.axis_1">
    <g id="xtick_1">
     <g id="line2d_1">
      <defs>
       <path id="mbc7ba3d111" d="M 0 0 
L 0 3.5 
" style="stroke: #000000; stroke-width: 0.8"/>
      </defs>
      <g>
       <use xlink:href="#mbc7ba3d111" x="61.101176" y="307.584" style="stroke: #000000; stroke-width: 0.8"/>
      </g>
     </g>
     <g id="text_1">
      <!-- 0 -->
      <g transform="translate(57.919926 322.182437) scale(0.1 -0.1)">
       <defs>
        <path id="DejaVuSans-30" d="M 2034 4250 
Q 1547 4250 1301 3770 
Q 1056 3291 1056 2328 
Q 1056 1369 1301 889 
Q 1547 409 2034 409 
Q 2525 409 2770 889 
Q 3016 1369 3016 2328 
Q 3016 3291 2770 3770 
Q 2525 4250 2034 4250 
z
M 2034 4750 
Q 2819 4750 3233 4129 
Q 3647 3509 3647 2328 
Q 3647 1150 3233 529 
Q 2819 -91 2034 -91 
Q 1250 -91 836 529 
Q 422 1150 422 2328 
Q 422 3509 836 4129 
Q 1250 4750 2034 4750 
z
" transform="scale(0.015625)"/>
       </defs>
       <use xlink:href="#DejaVuSans-30"/>
      </g>
     </g>
    </g>
    <g id="xtick_2">
     <g id="line2d_2">
      <g>
       <use xlink:href="#mbc7ba3d111" x="115.807059" y="307.584" style="stroke: #000000; stroke-width: 0.8"/>
      </g>
     </g>
     <g id="text_2">
      <!-- 5000 -->
      <g transform="translate(103.082059 322.182437) scale(0.1 -0.1)">
       <defs>
        <path id="DejaVuSans-35" d="M 691 4666 
L 3169 4666 
L 3169 4134 
L 1269 4134 
L 1269 2991 
Q 1406 3038 1543 3061 
Q 1681 3084 1819 3084 
Q 2600 3084 3056 2656 
Q 3513 2228 3513 1497 
Q 3513 744 3044 326 
Q 2575 -91 1722 -91 
Q 1428 -91 1123 -41 
Q 819 9 494 109 
L 494 744 
Q 775 591 1075 516 
Q 1375 441 1709 441 
Q 2250 441 2565 725 
Q 2881 1009 2881 1497 
Q 2881 1984 2565 2268 
Q 2250 2553 1709 2553 
Q 1456 2553 1204 2497 
Q 953 2441 691 2322 
L 691 4666 
z
" transform="scale(0.015625)"/>
       </defs>
       <use xlink:href="#DejaVuSans-35"/>
       <use xlink:href="#DejaVuSans-30" transform="translate(63.623047 0)"/>
       <use xlink:href="#DejaVuSans-30" transform="translate(127.246094 0)"/>
       <use xlink:href="#DejaVuSans-30" transform="translate(190.869141 0)"/>
      </g>
     </g>
    </g>
    <g id="xtick_3">
     <g id="line2d_3">
      <g>
       <use xlink:href="#mbc7ba3d111" x="170.512941" y="307.584" style="stroke: #000000; stroke-width: 0.8"/>
      </g>
     </g>
     <g id="text_3">
      <!-- 10000 -->
      <g transform="translate(154.606691 322.182437) scale(0.1 -0.1)">
       <defs>
        <path id="DejaVuSans-31" d="M 794 531 
L 1825 531 
L 1825 4091 
L 703 3866 
L 703 4441 
L 1819 4666 
L 2450 4666 
L 2450 531 
L 3481 531 
L 3481 0 
L 794 0 
L 794 531 
z
" transform="scale(0.015625)"/>
       </defs>
       <use xlink:href="#DejaVuSans-31"/>
       <use xlink:href="#DejaVuSans-30" transform="translate(63.623047 0)"/>
       <use xlink:href="#DejaVuSans-30" transform="translate(127.246094 0)"/>
       <use xlink:href="#DejaVuSans-30" transform="translate(190.869141 0)"/>
       <use xlink:href="#DejaVuSans-30" transform="translate(254.492188 0)"/>
      </g>
     </g>
    </g>
    <g id="xtick_4">
     <g id="line2d_4">
      <g>
       <use xlink:href="#mbc7ba3d111" x="225.218824" y="307.584" style="stroke: #000000; stroke-width: 0.8"/>
      </g>
     </g>
     <g id="text_4">
      <!-- 15000 -->
      <g transform="translate(209.312574 322.182437) scale(0.1 -0.1)">
       <use xlink:href="#DejaVuSans-31"/>
       <use xlink:href="#DejaVuSans-35" transform="translate(63.623047 0)"/>
       <use xlink:href="#DejaVuSans-30" transform="translate(127.246094 0)"/>
       <use xlink:href="#DejaVuSans-30" transform="translate(190.869141 0)"/>
       <use xlink:href="#DejaVuSans-30" transform="translate(254.492188 0)"/>
      </g>
     </g>
    </g>
    <g id="xtick_5">
     <g id="line2d_5">
      <g>
       <use xlink:href="#mbc7ba3d111" x="279.924706" y="307.584" style="stroke: #000000; stroke-width: 0.8"/>
      </g>
     </g>
     <g id="text_5">
      <!-- 20000 -->
      <g transform="translate(264.018456 322.182437) scale(0.1 -0.1)">
       <defs>
        <path id="DejaVuSans-32" d="M 1228 531 
L 3431 531 
L 3431 0 
L 469 0 
L 469 531 
Q 828 903 1448 1529 
Q 2069 2156 2228 2338 
Q 2531 2678 2651 2914 
Q 2772 3150 2772 3378 
Q 2772 3750 2511 3984 
Q 2250 4219 1831 4219 
Q 1534 4219 1204 4116 
Q 875 4013 500 3803 
L 500 4441 
Q 881 4594 1212 4672 
Q 1544 4750 1819 4750 
Q 2544 4750 2975 4387 
Q 3406 4025 3406 3419 
Q 3406 3131 3298 2873 
Q 3191 2616 2906 2266 
Q 2828 2175 2409 1742 
Q 1991 1309 1228 531 
z
" transform="scale(0.015625)"/>
       </defs>
       <use xlink:href="#DejaVuSans-32"/>
       <use xlink:href="#DejaVuSans-30" transform="translate(63.623047 0)"/>
       <use xlink:href="#DejaVuSans-30" transform="translate(127.246094 0)"/>
       <use xlink:href="#DejaVuSans-30" transform="translate(190.869141 0)"/>
       <use xlink:href="#DejaVuSans-30" transform="translate(254.492188 0)"/>
      </g>
     </g>
    </g>
    <g id="xtick_6">
     <g id="line2d_6">
      <g>
       <use xlink:href="#mbc7ba3d111" x="334.630588" y="307.584" style="stroke: #000000; stroke-width: 0.8"/>
      </g>
     </g>
     <g id="text_6">
      <!-- 25000 -->
      <g transform="translate(318.724338 322.182437) scale(0.1 -0.1)">
       <use xlink:href="#DejaVuSans-32"/>
       <use xlink:href="#DejaVuSans-35" transform="translate(63.623047 0)"/>
       <use xlink:href="#DejaVuSans-30" transform="translate(127.246094 0)"/>
       <use xlink:href="#DejaVuSans-30" transform="translate(190.869141 0)"/>
       <use xlink:href="#DejaVuSans-30" transform="translate(254.492188 0)"/>
      </g>
     </g>
    </g>
    <g id="xtick_7">
     <g id="line2d_7">
      <g>
       <use xlink:href="#mbc7ba3d111" x="389.336471" y="307.584" style="stroke: #000000; stroke-width: 0.8"/>
      </g>
     </g>
     <g id="text_7">
      <!-- 30000 -->
      <g transform="translate(373.430221 322.182437) scale(0.1 -0.1)">
       <defs>
        <path id="DejaVuSans-33" d="M 2597 2516 
Q 3050 2419 3304 2112 
Q 3559 1806 3559 1356 
Q 3559 666 3084 287 
Q 2609 -91 1734 -91 
Q 1441 -91 1130 -33 
Q 819 25 488 141 
L 488 750 
Q 750 597 1062 519 
Q 1375 441 1716 441 
Q 2309 441 2620 675 
Q 2931 909 2931 1356 
Q 2931 1769 2642 2001 
Q 2353 2234 1838 2234 
L 1294 2234 
L 1294 2753 
L 1863 2753 
Q 2328 2753 2575 2939 
Q 2822 3125 2822 3475 
Q 2822 3834 2567 4026 
Q 2313 4219 1838 4219 
Q 1578 4219 1281 4162 
Q 984 4106 628 3988 
L 628 4550 
Q 988 4650 1302 4700 
Q 1616 4750 1894 4750 
Q 2613 4750 3031 4423 
Q 3450 4097 3450 3541 
Q 3450 3153 3228 2886 
Q 3006 2619 2597 2516 
z
" transform="scale(0.015625)"/>
       </defs>
       <use xlink:href="#DejaVuSans-33"/>
       <use xlink:href="#DejaVuSans-30" transform="translate(63.623047 0)"/>
       <use xlink:href="#DejaVuSans-30" transform="translate(127.246094 0)"/>
       <use xlink:href="#DejaVuSans-30" transform="translate(190.869141 0)"/>
       <use xlink:href="#DejaVuSans-30" transform="translate(254.492188 0)"/>
      </g>
     </g>
    </g>
    <g id="text_8">
     <!-- HEIGHT (Feet) -->
     <g transform="translate(200.8725 335.860562) scale(0.1 -0.1)">
      <defs>
       <path id="DejaVuSans-48" d="M 628 4666 
L 1259 4666 
L 1259 2753 
L 3553 2753 
L 3553 4666 
L 4184 4666 
L 4184 0 
L 3553 0 
L 3553 2222 
L 1259 2222 
L 1259 0 
L 628 0 
L 628 4666 
z
" transform="scale(0.015625)"/>
       <path id="DejaVuSans-45" d="M 628 4666 
L 3578 4666 
L 3578 4134 
L 1259 4134 
L 1259 2753 
L 3481 2753 
L 3481 2222 
L 1259 2222 
L 1259 531 
L 3634 531 
L 3634 0 
L 628 0 
L 628 4666 
z
" transform="scale(0.015625)"/>
       <path id="DejaVuSans-49" d="M 628 4666 
L 1259 4666 
L 1259 0 
L 628 0 
L 628 4666 
z
" transform="scale(0.015625)"/>
       <path id="DejaVuSans-47" d="M 3809 666 
L 3809 1919 
L 2778 1919 
L 2778 2438 
L 4434 2438 
L 4434 434 
Q 4069 175 3628 42 
Q 3188 -91 2688 -91 
Q 1594 -91 976 548 
Q 359 1188 359 2328 
Q 359 3472 976 4111 
Q 1594 4750 2688 4750 
Q 3144 4750 3555 4637 
Q 3966 4525 4313 4306 
L 4313 3634 
Q 3963 3931 3569 4081 
Q 3175 4231 2741 4231 
Q 1884 4231 1454 3753 
Q 1025 3275 1025 2328 
Q 1025 1384 1454 906 
Q 1884 428 2741 428 
Q 3075 428 3337 486 
Q 3600 544 3809 666 
z
" transform="scale(0.015625)"/>
       <path id="DejaVuSans-54" d="M -19 4666 
L 3928 4666 
L 3928 4134 
L 2272 4134 
L 2272 0 
L 1638 0 
L 1638 4134 
L -19 4134 
L -19 4666 
z
" transform="scale(0.015625)"/>
       <path id="DejaVuSans-20" transform="scale(0.015625)"/>
       <path id="DejaVuSans-28" d="M 1984 4856 
Q 1566 4138 1362 3434 
Q 1159 2731 1159 2009 
Q 1159 1288 1364 580 
Q 1569 -128 1984 -844 
L 1484 -844 
Q 1016 -109 783 600 
Q 550 1309 550 2009 
Q 550 2706 781 3412 
Q 1013 4119 1484 4856 
L 1984 4856 
z
" transform="scale(0.015625)"/>
       <path id="DejaVuSans-46" d="M 628 4666 
L 3309 4666 
L 3309 4134 
L 1259 4134 
L 1259 2759 
L 3109 2759 
L 3109 2228 
L 1259 2228 
L 1259 0 
L 628 0 
L 628 4666 
z
" transform="scale(0.015625)"/>
       <path id="DejaVuSans-65" d="M 3597 1894 
L 3597 1613 
L 953 1613 
Q 991 1019 1311 708 
Q 1631 397 2203 397 
Q 2534 397 2845 478 
Q 3156 559 3463 722 
L 3463 178 
Q 3153 47 2828 -22 
Q 2503 -91 2169 -91 
Q 1331 -91 842 396 
Q 353 884 353 1716 
Q 353 2575 817 3079 
Q 1281 3584 2069 3584 
Q 2775 3584 3186 3129 
Q 3597 2675 3597 1894 
z
M 3022 2063 
Q 3016 2534 2758 2815 
Q 2500 3097 2075 3097 
Q 1594 3097 1305 2825 
Q 1016 2553 972 2059 
L 3022 2063 
z
" transform="scale(0.015625)"/>
       <path id="DejaVuSans-74" d="M 1172 4494 
L 1172 3500 
L 2356 3500 
L 2356 3053 
L 1172 3053 
L 1172 1153 
Q 1172 725 1289 603 
Q 1406 481 1766 481 
L 2356 481 
L 2356 0 
L 1766 0 
Q 1100 0 847 248 
Q 594 497 594 1153 
L 594 3053 
L 172 3053 
L 172 3500 
L 594 3500 
L 594 4494 
L 1172 4494 
z
" transform="scale(0.015625)"/>
       <path id="DejaVuSans-29" d="M 513 4856 
L 1013 4856 
Q 1481 4119 1714 3412 
Q 1947 2706 1947 2009 
Q 1947 1309 1714 600 
Q 1481 -109 1013 -844 
L 513 -844 
Q 928 -128 1133 580 
Q 1338 1288 1338 2009 
Q 1338 2731 1133 3434 
Q 928 4138 513 4856 
z
" transform="scale(0.015625)"/>
      </defs>
      <use xlink:href="#DejaVuSans-48"/>
      <use xlink:href="#DejaVuSans-45" transform="translate(75.195312 0)"/>
      <use xlink:href="#DejaVuSans-49" transform="translate(138.378906 0)"/>
      <use xlink:href="#DejaVuSans-47" transform="translate(167.871094 0)"/>
      <use xlink:href="#DejaVuSans-48" transform="translate(245.361328 0)"/>
      <use xlink:href="#DejaVuSans-54" transform="translate(320.556641 0)"/>
      <use xlink:href="#DejaVuSans-20" transform="translate(381.640625 0)"/>
      <use xlink:href="#DejaVuSans-28" transform="translate(413.427734 0)"/>
      <use xlink:href="#DejaVuSans-46" transform="translate(452.441406 0)"/>
      <use xlink:href="#DejaVuSans-65" transform="translate(504.460938 0)"/>
      <use xlink:href="#DejaVuSans-65" transform="translate(565.984375 0)"/>
      <use xlink:href="#DejaVuSans-74" transform="translate(627.507812 0)"/>
      <use xlink:href="#DejaVuSans-29" transform="translate(666.716797 0)"/>
     </g>
    </g>
   </g>
   <g id="matplotlib.axis_2">
    <g id="ytick_1">
     <g id="line2d_8">
      <defs>
       <path id="m9440546102" d="M 0 0 
L -3.5 0 
" style="stroke: #000000; stroke-width: 0.8"/>
      </defs>
      <g>
       <use xlink:href="#m9440546102" x="57.6" y="307.584" style="stroke: #000000; stroke-width: 0.8"/>
      </g>
     </g>
     <g id="text_9">
      <!-- 0 -->
      <g transform="translate(44.2375 311.383219) scale(0.1 -0.1)">
       <use xlink:href="#DejaVuSans-30"/>
      </g>
     </g>
    </g>
    <g id="ytick_2">
     <g id="line2d_9">
      <g>
       <use xlink:href="#m9440546102" x="57.6" y="249.399383" style="stroke: #000000; stroke-width: 0.8"/>
      </g>
     </g>
     <g id="text_10">
      <!-- 10000 -->
      <g transform="translate(18.7875 253.198602) scale(0.1 -0.1)">
       <use xlink:href="#DejaVuSans-31"/>
       <use xlink:href="#DejaVuSans-30" transform="translate(63.623047 0)"/>
       <use xlink:href="#DejaVuSans-30" transform="translate(127.246094 0)"/>
       <use xlink:href="#DejaVuSans-30" transform="translate(190.869141 0)"/>
       <use xlink:href="#DejaVuSans-30" transform="translate(254.492188 0)"/>
      </g>
     </g>
    </g>
    <g id="ytick_3">
     <g id="line2d_10">
      <g>
       <use xlink:href="#m9440546102" x="57.6" y="191.214766" style="stroke: #000000; stroke-width: 0.8"/>
      </g>
     </g>
     <g id="text_11">
      <!-- 20000 -->
      <g transform="translate(18.7875 195.013985) scale(0.1 -0.1)">
       <use xlink:href="#DejaVuSans-32"/>
       <use xlink:href="#DejaVuSans-30" transform="translate(63.623047 0)"/>
       <use xlink:href="#DejaVuSans-30" transform="translate(127.246094 0)"/>
       <use xlink:href="#DejaVuSans-30" transform="translate(190.869141 0)"/>
       <use xlink:href="#DejaVuSans-30" transform="translate(254.492188 0)"/>
      </g>
     </g>
    </g>
    <g id="ytick_4">
     <g id="line2d_11">
      <g>
       <use xlink:href="#m9440546102" x="57.6" y="133.030149" style="stroke: #000000; stroke-width: 0.8"/>
      </g>
     </g>
     <g id="text_12">
      <!-- 30000 -->
      <g transform="translate(18.7875 136.829368) scale(0.1 -0.1)">
       <use xlink:href="#DejaVuSans-33"/>
       <use xlink:href="#DejaVuSans-30" transform="translate(63.623047 0)"/>
       <use xlink:href="#DejaVuSans-30" transform="translate(127.246094 0)"/>
       <use xlink:href="#DejaVuSans-30" transform="translate(190.869141 0)"/>
       <use xlink:href="#DejaVuSans-30" transform="translate(254.492188 0)"/>
      </g>
     </g>
    </g>
    <g id="ytick_5">
     <g id="line2d_12">
      <g>
       <use xlink:href="#m9440546102" x="57.6" y="74.845533" style="stroke: #000000; stroke-width: 0.8"/>
      </g>
     </g>
     <g id="text_13">
      <!-- 40000 -->
      <g transform="translate(18.7875 78.644751) scale(0.1 -0.1)">
       <defs>
        <path id="DejaVuSans-34" d="M 2419 4116 
L 825 1625 
L 2419 1625 
L 2419 4116 
z
M 2253 4666 
L 3047 4666 
L 3047 1625 
L 3713 1625 
L 3713 1100 
L 3047 1100 
L 3047 0 
L 2419 0 
L 2419 1100 
L 313 1100 
L 313 1709 
L 2253 4666 
z
" transform="scale(0.015625)"/>
       </defs>
       <use xlink:href="#DejaVuSans-34"/>
       <use xlink:href="#DejaVuSans-30" transform="translate(63.623047 0)"/>
       <use xlink:href="#DejaVuSans-30" transform="translate(127.246094 0)"/>
       <use xlink:href="#DejaVuSans-30" transform="translate(190.869141 0)"/>
       <use xlink:href="#DejaVuSans-30" transform="translate(254.492188 0)"/>
      </g>
     </g>
    </g>
    <g id="text_14">
     <!-- # Bird Strikes -->
     <g transform="translate(12.707812 208.831906) rotate(-90) scale(0.1 -0.1)">
      <defs>
       <path id="DejaVuSans-23" d="M 3272 2816 
L 2363 2816 
L 2100 1772 
L 3016 1772 
L 3272 2816 
z
M 2803 4594 
L 2478 3297 
L 3391 3297 
L 3719 4594 
L 4219 4594 
L 3897 3297 
L 4872 3297 
L 4872 2816 
L 3775 2816 
L 3519 1772 
L 4513 1772 
L 4513 1294 
L 3397 1294 
L 3072 0 
L 2572 0 
L 2894 1294 
L 1978 1294 
L 1656 0 
L 1153 0 
L 1478 1294 
L 494 1294 
L 494 1772 
L 1594 1772 
L 1856 2816 
L 850 2816 
L 850 3297 
L 1978 3297 
L 2297 4594 
L 2803 4594 
z
" transform="scale(0.015625)"/>
       <path id="DejaVuSans-42" d="M 1259 2228 
L 1259 519 
L 2272 519 
Q 2781 519 3026 730 
Q 3272 941 3272 1375 
Q 3272 1813 3026 2020 
Q 2781 2228 2272 2228 
L 1259 2228 
z
M 1259 4147 
L 1259 2741 
L 2194 2741 
Q 2656 2741 2882 2914 
Q 3109 3088 3109 3444 
Q 3109 3797 2882 3972 
Q 2656 4147 2194 4147 
L 1259 4147 
z
M 628 4666 
L 2241 4666 
Q 2963 4666 3353 4366 
Q 3744 4066 3744 3513 
Q 3744 3084 3544 2831 
Q 3344 2578 2956 2516 
Q 3422 2416 3680 2098 
Q 3938 1781 3938 1306 
Q 3938 681 3513 340 
Q 3088 0 2303 0 
L 628 0 
L 628 4666 
z
" transform="scale(0.015625)"/>
       <path id="DejaVuSans-69" d="M 603 3500 
L 1178 3500 
L 1178 0 
L 603 0 
L 603 3500 
z
M 603 4863 
L 1178 4863 
L 1178 4134 
L 603 4134 
L 603 4863 
z
" transform="scale(0.015625)"/>
       <path id="DejaVuSans-72" d="M 2631 2963 
Q 2534 3019 2420 3045 
Q 2306 3072 2169 3072 
Q 1681 3072 1420 2755 
Q 1159 2438 1159 1844 
L 1159 0 
L 581 0 
L 581 3500 
L 1159 3500 
L 1159 2956 
Q 1341 3275 1631 3429 
Q 1922 3584 2338 3584 
Q 2397 3584 2469 3576 
Q 2541 3569 2628 3553 
L 2631 2963 
z
" transform="scale(0.015625)"/>
       <path id="DejaVuSans-64" d="M 2906 2969 
L 2906 4863 
L 3481 4863 
L 3481 0 
L 2906 0 
L 2906 525 
Q 2725 213 2448 61 
Q 2172 -91 1784 -91 
Q 1150 -91 751 415 
Q 353 922 353 1747 
Q 353 2572 751 3078 
Q 1150 3584 1784 3584 
Q 2172 3584 2448 3432 
Q 2725 3281 2906 2969 
z
M 947 1747 
Q 947 1113 1208 752 
Q 1469 391 1925 391 
Q 2381 391 2643 752 
Q 2906 1113 2906 1747 
Q 2906 2381 2643 2742 
Q 2381 3103 1925 3103 
Q 1469 3103 1208 2742 
Q 947 2381 947 1747 
z
" transform="scale(0.015625)"/>
       <path id="DejaVuSans-53" d="M 3425 4513 
L 3425 3897 
Q 3066 4069 2747 4153 
Q 2428 4238 2131 4238 
Q 1616 4238 1336 4038 
Q 1056 3838 1056 3469 
Q 1056 3159 1242 3001 
Q 1428 2844 1947 2747 
L 2328 2669 
Q 3034 2534 3370 2195 
Q 3706 1856 3706 1288 
Q 3706 609 3251 259 
Q 2797 -91 1919 -91 
Q 1588 -91 1214 -16 
Q 841 59 441 206 
L 441 856 
Q 825 641 1194 531 
Q 1563 422 1919 422 
Q 2459 422 2753 634 
Q 3047 847 3047 1241 
Q 3047 1584 2836 1778 
Q 2625 1972 2144 2069 
L 1759 2144 
Q 1053 2284 737 2584 
Q 422 2884 422 3419 
Q 422 4038 858 4394 
Q 1294 4750 2059 4750 
Q 2388 4750 2728 4690 
Q 3069 4631 3425 4513 
z
" transform="scale(0.015625)"/>
       <path id="DejaVuSans-6b" d="M 581 4863 
L 1159 4863 
L 1159 1991 
L 2875 3500 
L 3609 3500 
L 1753 1863 
L 3688 0 
L 2938 0 
L 1159 1709 
L 1159 0 
L 581 0 
L 581 4863 
z
" transform="scale(0.015625)"/>
       <path id="DejaVuSans-73" d="M 2834 3397 
L 2834 2853 
Q 2591 2978 2328 3040 
Q 2066 3103 1784 3103 
Q 1356 3103 1142 2972 
Q 928 2841 928 2578 
Q 928 2378 1081 2264 
Q 1234 2150 1697 2047 
L 1894 2003 
Q 2506 1872 2764 1633 
Q 3022 1394 3022 966 
Q 3022 478 2636 193 
Q 2250 -91 1575 -91 
Q 1294 -91 989 -36 
Q 684 19 347 128 
L 347 722 
Q 666 556 975 473 
Q 1284 391 1588 391 
Q 1994 391 2212 530 
Q 2431 669 2431 922 
Q 2431 1156 2273 1281 
Q 2116 1406 1581 1522 
L 1381 1569 
Q 847 1681 609 1914 
Q 372 2147 372 2553 
Q 372 3047 722 3315 
Q 1072 3584 1716 3584 
Q 2034 3584 2315 3537 
Q 2597 3491 2834 3397 
z
" transform="scale(0.015625)"/>
      </defs>
      <use xlink:href="#DejaVuSans-23"/>
      <use xlink:href="#DejaVuSans-20" transform="translate(83.789062 0)"/>
      <use xlink:href="#DejaVuSans-42" transform="translate(115.576172 0)"/>
      <use xlink:href="#DejaVuSans-69" transform="translate(184.179688 0)"/>
      <use xlink:href="#DejaVuSans-72" transform="translate(211.962891 0)"/>
      <use xlink:href="#DejaVuSans-64" transform="translate(251.326172 0)"/>
      <use xlink:href="#DejaVuSans-20" transform="translate(314.802734 0)"/>
      <use xlink:href="#DejaVuSans-53" transform="translate(346.589844 0)"/>
      <use xlink:href="#DejaVuSans-74" transform="translate(410.066406 0)"/>
      <use xlink:href="#DejaVuSans-72" transform="translate(449.275391 0)"/>
      <use xlink:href="#DejaVuSans-69" transform="translate(490.388672 0)"/>
      <use xlink:href="#DejaVuSans-6b" transform="translate(518.171875 0)"/>
      <use xlink:href="#DejaVuSans-65" transform="translate(572.457031 0)"/>
      <use xlink:href="#DejaVuSans-73" transform="translate(633.980469 0)"/>
     </g>
    </g>
   </g>
   <g id="line2d_13">
    <path d="M 61.101176 88.12589 
L 61.451645 86.051199 
L 61.802113 88.624319 
L 62.152581 95.535317 
L 62.853517 119.805023 
L 65.306794 226.808102 
L 66.00773 245.898493 
L 66.708666 258.965183 
L 67.409603 267.546078 
L 68.110539 273.059191 
L 68.811475 276.502746 
L 69.512411 278.53753 
L 70.213347 279.686611 
L 71.965688 281.852495 
L 72.666624 283.297684 
L 75.119901 289.163964 
L 75.820837 290.064713 
L 76.521774 290.610013 
L 78.274114 291.781246 
L 79.675987 292.79544 
L 80.376923 292.960846 
L 81.077859 292.848423 
L 82.129263 292.601989 
L 82.479731 292.645708 
L 82.8302 292.804242 
L 83.531136 293.51143 
L 84.232072 294.670964 
L 85.984413 297.856437 
L 86.685349 298.645598 
L 87.386285 299.103224 
L 88.437689 299.427313 
L 89.489094 299.508298 
L 90.19003 299.322385 
L 90.890966 298.811227 
L 91.591902 297.964031 
L 92.993775 296.088146 
L 93.344243 295.827369 
L 93.694711 295.728006 
L 94.045179 295.81061 
L 94.395647 296.079722 
L 95.096584 297.114652 
L 97.54986 301.978524 
L 98.250797 302.744857 
L 98.951733 303.185094 
L 99.652669 303.387803 
L 100.353605 303.397189 
L 101.054542 303.193958 
L 101.755478 302.73889 
L 102.806882 301.64527 
L 103.858287 300.535176 
L 104.559223 300.175713 
L 104.909691 300.179754 
L 105.260159 300.316978 
L 105.961095 300.95741 
L 107.0125 302.484504 
L 108.063904 303.995261 
L 108.76484 304.72464 
L 109.465776 305.189825 
L 110.166713 305.430179 
L 110.867649 305.490928 
L 111.568585 305.387001 
L 112.269521 305.10596 
L 113.320926 304.356715 
L 114.722798 303.171838 
L 115.423734 302.83475 
L 116.124671 302.83567 
L 116.825607 303.186999 
L 117.877011 304.148062 
L 119.278884 305.445321 
L 120.330288 306.019016 
L 121.381692 306.235936 
L 122.433097 306.173137 
L 123.484501 305.842965 
L 124.886373 305.078034 
L 125.937778 304.574634 
L 126.638714 304.457554 
L 127.33965 304.576477 
L 128.391055 305.122111 
L 130.143395 306.219088 
L 131.1948 306.599425 
L 132.246204 306.749989 
L 133.648076 306.696506 
L 135.049949 306.368535 
L 137.152757 305.749776 
L 138.204162 305.754799 
L 139.255566 306.027258 
L 141.358375 306.68777 
L 142.760247 306.861657 
L 144.512588 306.826279 
L 145.91446 306.564116 
L 148.367737 305.982377 
L 149.419141 306.058576 
L 150.821014 306.468624 
L 152.573355 306.949117 
L 154.325695 307.120225 
L 156.428504 307.064124 
L 159.933185 306.792345 
L 162.035994 307.064759 
L 163.788334 307.228514 
L 165.891143 307.17219 
L 167.643483 306.889616 
L 170.09676 306.380407 
L 171.148165 306.416315 
L 172.550037 306.737658 
L 174.652846 307.229754 
L 176.405186 307.363276 
L 178.507995 307.294774 
L 181.662208 307.116754 
L 184.115485 307.313954 
L 186.568762 307.437281 
L 189.722975 307.359157 
L 192.877188 307.235931 
L 200.237018 307.439751 
L 204.092167 307.336305 
L 210.400594 307.522993 
L 217.059488 307.485586 
L 222.316509 307.521475 
L 227.923999 307.533786 
L 233.531489 307.556838 
L 241.942724 307.568566 
L 403.508525 307.583983 
L 411.218824 307.577974 
L 411.218824 307.577974 
" clip-path="url(#pfe92ff7e9f)" style="fill: none; stroke: #ff0000; stroke-width: 2; stroke-linecap: square"/>
   </g>
   <g id="patch_63">
    <path d="M 57.6 307.584 
L 57.6 41.472 
" style="fill: none; stroke: #000000; stroke-width: 0.8; stroke-linejoin: miter; stroke-linecap: square"/>
   </g>
   <g id="patch_64">
    <path d="M 414.72 307.584 
L 414.72 41.472 
" style="fill: none; stroke: #000000; stroke-width: 0.8; stroke-linejoin: miter; stroke-linecap: square"/>
   </g>
   <g id="patch_65">
    <path d="M 57.6 307.584 
L 414.72 307.584 
" style="fill: none; stroke: #000000; stroke-width: 0.8; stroke-linejoin: miter; stroke-linecap: square"/>
   </g>
   <g id="patch_66">
    <path d="M 57.6 41.472 
L 414.72 41.472 
" style="fill: none; stroke: #000000; stroke-width: 0.8; stroke-linejoin: miter; stroke-linecap: square"/>
   </g>
   <g id="text_15">
    <!-- Height vs Bird Strike Incidents -->
    <g transform="translate(145.50375 35.472) scale(0.12 -0.12)">
     <defs>
      <path id="DejaVuSans-67" d="M 2906 1791 
Q 2906 2416 2648 2759 
Q 2391 3103 1925 3103 
Q 1463 3103 1205 2759 
Q 947 2416 947 1791 
Q 947 1169 1205 825 
Q 1463 481 1925 481 
Q 2391 481 2648 825 
Q 2906 1169 2906 1791 
z
M 3481 434 
Q 3481 -459 3084 -895 
Q 2688 -1331 1869 -1331 
Q 1566 -1331 1297 -1286 
Q 1028 -1241 775 -1147 
L 775 -588 
Q 1028 -725 1275 -790 
Q 1522 -856 1778 -856 
Q 2344 -856 2625 -561 
Q 2906 -266 2906 331 
L 2906 616 
Q 2728 306 2450 153 
Q 2172 0 1784 0 
Q 1141 0 747 490 
Q 353 981 353 1791 
Q 353 2603 747 3093 
Q 1141 3584 1784 3584 
Q 2172 3584 2450 3431 
Q 2728 3278 2906 2969 
L 2906 3500 
L 3481 3500 
L 3481 434 
z
" transform="scale(0.015625)"/>
      <path id="DejaVuSans-68" d="M 3513 2113 
L 3513 0 
L 2938 0 
L 2938 2094 
Q 2938 2591 2744 2837 
Q 2550 3084 2163 3084 
Q 1697 3084 1428 2787 
Q 1159 2491 1159 1978 
L 1159 0 
L 581 0 
L 581 4863 
L 1159 4863 
L 1159 2956 
Q 1366 3272 1645 3428 
Q 1925 3584 2291 3584 
Q 2894 3584 3203 3211 
Q 3513 2838 3513 2113 
z
" transform="scale(0.015625)"/>
      <path id="DejaVuSans-76" d="M 191 3500 
L 800 3500 
L 1894 563 
L 2988 3500 
L 3597 3500 
L 2284 0 
L 1503 0 
L 191 3500 
z
" transform="scale(0.015625)"/>
      <path id="DejaVuSans-6e" d="M 3513 2113 
L 3513 0 
L 2938 0 
L 2938 2094 
Q 2938 2591 2744 2837 
Q 2550 3084 2163 3084 
Q 1697 3084 1428 2787 
Q 1159 2491 1159 1978 
L 1159 0 
L 581 0 
L 581 3500 
L 1159 3500 
L 1159 2956 
Q 1366 3272 1645 3428 
Q 1925 3584 2291 3584 
Q 2894 3584 3203 3211 
Q 3513 2838 3513 2113 
z
" transform="scale(0.015625)"/>
      <path id="DejaVuSans-63" d="M 3122 3366 
L 3122 2828 
Q 2878 2963 2633 3030 
Q 2388 3097 2138 3097 
Q 1578 3097 1268 2742 
Q 959 2388 959 1747 
Q 959 1106 1268 751 
Q 1578 397 2138 397 
Q 2388 397 2633 464 
Q 2878 531 3122 666 
L 3122 134 
Q 2881 22 2623 -34 
Q 2366 -91 2075 -91 
Q 1284 -91 818 406 
Q 353 903 353 1747 
Q 353 2603 823 3093 
Q 1294 3584 2113 3584 
Q 2378 3584 2631 3529 
Q 2884 3475 3122 3366 
z
" transform="scale(0.015625)"/>
     </defs>
     <use xlink:href="#DejaVuSans-48"/>
     <use xlink:href="#DejaVuSans-65" transform="translate(75.195312 0)"/>
     <use xlink:href="#DejaVuSans-69" transform="translate(136.71875 0)"/>
     <use xlink:href="#DejaVuSans-67" transform="translate(164.501953 0)"/>
     <use xlink:href="#DejaVuSans-68" transform="translate(227.978516 0)"/>
     <use xlink:href="#DejaVuSans-74" transform="translate(291.357422 0)"/>
     <use xlink:href="#DejaVuSans-20" transform="translate(330.566406 0)"/>
     <use xlink:href="#DejaVuSans-76" transform="translate(362.353516 0)"/>
     <use xlink:href="#DejaVuSans-73" transform="translate(421.533203 0)"/>
     <use xlink:href="#DejaVuSans-20" transform="translate(473.632812 0)"/>
     <use xlink:href="#DejaVuSans-42" transform="translate(505.419922 0)"/>
     <use xlink:href="#DejaVuSans-69" transform="translate(574.023438 0)"/>
     <use xlink:href="#DejaVuSans-72" transform="translate(601.806641 0)"/>
     <use xlink:href="#DejaVuSans-64" transform="translate(641.169922 0)"/>
     <use xlink:href="#DejaVuSans-20" transform="translate(704.646484 0)"/>
     <use xlink:href="#DejaVuSans-53" transform="translate(736.433594 0)"/>
     <use xlink:href="#DejaVuSans-74" transform="translate(799.910156 0)"/>
     <use xlink:href="#DejaVuSans-72" transform="translate(839.119141 0)"/>
     <use xlink:href="#DejaVuSans-69" transform="translate(880.232422 0)"/>
     <use xlink:href="#DejaVuSans-6b" transform="translate(908.015625 0)"/>
     <use xlink:href="#DejaVuSans-65" transform="translate(962.300781 0)"/>
     <use xlink:href="#DejaVuSans-20" transform="translate(1023.824219 0)"/>
     <use xlink:href="#DejaVuSans-49" transform="translate(1055.611328 0)"/>
     <use xlink:href="#DejaVuSans-6e" transform="translate(1085.103516 0)"/>
     <use xlink:href="#DejaVuSans-63" transform="translate(1148.482422 0)"/>
     <use xlink:href="#DejaVuSans-69" transform="translate(1203.462891 0)"/>
     <use xlink:href="#DejaVuSans-64" transform="translate(1231.246094 0)"/>
     <use xlink:href="#DejaVuSans-65" transform="translate(1294.722656 0)"/>
     <use xlink:href="#DejaVuSans-6e" transform="translate(1356.246094 0)"/>
     <use xlink:href="#DejaVuSans-74" transform="translate(1419.625 0)"/>
     <use xlink:href="#DejaVuSans-73" transform="translate(1458.833984 0)"/>
    </g>
   </g>
   <g id="legend_1">
    <g id="patch_67">
     <path d="M 355.143438 64.150125 
L 407.72 64.150125 
Q 409.72 64.150125 409.72 62.150125 
L 409.72 48.472 
Q 409.72 46.472 407.72 46.472 
L 355.143438 46.472 
Q 353.143438 46.472 353.143438 48.472 
L 353.143438 62.150125 
Q 353.143438 64.150125 355.143438 64.150125 
z
" style="fill: #ffffff; opacity: 0.8; stroke: #cccccc; stroke-linejoin: miter"/>
    </g>
    <g id="line2d_14">
     <path d="M 357.143438 54.570438 
L 367.143438 54.570438 
L 377.143438 54.570438 
" style="fill: none; stroke: #ff0000; stroke-width: 2; stroke-linecap: square"/>
    </g>
    <g id="text_16">
     <!-- KDE -->
     <g transform="translate(385.143438 58.070438) scale(0.1 -0.1)">
      <defs>
       <path id="DejaVuSans-4b" d="M 628 4666 
L 1259 4666 
L 1259 2694 
L 3353 4666 
L 4166 4666 
L 1850 2491 
L 4331 0 
L 3500 0 
L 1259 2247 
L 1259 0 
L 628 0 
L 628 4666 
z
" transform="scale(0.015625)"/>
       <path id="DejaVuSans-44" d="M 1259 4147 
L 1259 519 
L 2022 519 
Q 2988 519 3436 956 
Q 3884 1394 3884 2338 
Q 3884 3275 3436 3711 
Q 2988 4147 2022 4147 
L 1259 4147 
z
M 628 4666 
L 1925 4666 
Q 3281 4666 3915 4102 
Q 4550 3538 4550 2338 
Q 4550 1131 3912 565 
Q 3275 0 1925 0 
L 628 0 
L 628 4666 
z
" transform="scale(0.015625)"/>
      </defs>
      <use xlink:href="#DejaVuSans-4b"/>
      <use xlink:href="#DejaVuSans-44" transform="translate(65.576172 0)"/>
      <use xlink:href="#DejaVuSans-45" transform="translate(142.578125 0)"/>
     </g>
    </g>
   </g>
  </g>
 </g>
 <defs>
  <clipPath id="pfe92ff7e9f">
   <rect x="57.6" y="41.472" width="357.12" height="266.112"/>
  </clipPath>
 </defs>
</svg>
