<?xml version="1.0" encoding="utf-8" standalone="no"?>
<!DOCTYPE svg PUBLIC "-//W3C//DTD SVG 1.1//EN"
  "http://www.w3.org/Graphics/SVG/1.1/DTD/svg11.dtd">
<svg xmlns:xlink="http://www.w3.org/1999/xlink" width="864pt" height="360pt" viewBox="0 0 864 360" xmlns="http://www.w3.org/2000/svg" version="1.1">
 <metadata>
  <rdf:RDF xmlns:dc="http://purl.org/dc/elements/1.1/" xmlns:cc="http://creativecommons.org/ns#" xmlns:rdf="http://www.w3.org/1999/02/22-rdf-syntax-ns#">
   <cc:Work>
    <dc:type rdf:resource="http://purl.org/dc/dcmitype/StillImage"/>
    <dc:date>2025-08-27T17:19:01.740604</dc:date>
    <dc:format>image/svg+xml</dc:format>
    <dc:creator>
     <cc:Agent>
      <dc:title>Matplotlib v3.10.5, https://matplotlib.org/</dc:title>
     </cc:Agent>
    </dc:creator>
   </cc:Work>
  </rdf:RDF>
 </metadata>
 <defs>
  <style type="text/css">*{stroke-linejoin: round; stroke-linecap: butt}</style>
 </defs>
 <g id="figure_1">
  <g id="patch_1">
   <path d="M 0 360 
L 864 360 
L 864 0 
L 0 0 
L 0 360 
z
" style="fill: none"/>
  </g>
  <g id="axes_1">
   <g id="patch_2">
    <path d="M 54.02 318.04 
L 429.75 318.04 
L 429.75 26.88 
L 54.02 26.88 
L 54.02 318.04 
z
" style="fill: none"/>
   </g>
   <g id="patch_3">
    <path d="M 71.098636 318.04 
L 82.484394 318.04 
L 82.484394 308.69297 
L 71.098636 308.69297 
z
" clip-path="url(#p6d17bb7d4e)" style="fill: #0000ff; opacity: 0.6"/>
   </g>
   <g id="patch_4">
    <path d="M 82.484394 318.04 
L 93.870152 318.04 
L 93.870152 308.69297 
L 82.484394 308.69297 
z
" clip-path="url(#p6d17bb7d4e)" style="fill: #0000ff; opacity: 0.6"/>
   </g>
   <g id="patch_5">
    <path d="M 93.870152 318.04 
L 105.255909 318.04 
L 105.255909 302.461616 
L 93.870152 302.461616 
z
" clip-path="url(#p6d17bb7d4e)" style="fill: #0000ff; opacity: 0.6"/>
   </g>
   <g id="patch_6">
    <path d="M 105.255909 318.04 
L 116.641667 318.04 
L 116.641667 311.808646 
L 105.255909 311.808646 
z
" clip-path="url(#p6d17bb7d4e)" style="fill: #0000ff; opacity: 0.6"/>
   </g>
   <g id="patch_7">
    <path d="M 116.641667 318.04 
L 128.027424 318.04 
L 128.027424 293.114585 
L 116.641667 293.114585 
z
" clip-path="url(#p6d17bb7d4e)" style="fill: #0000ff; opacity: 0.6"/>
   </g>
   <g id="patch_8">
    <path d="M 128.027424 318.04 
L 139.413182 318.04 
L 139.413182 283.767555 
L 128.027424 283.767555 
z
" clip-path="url(#p6d17bb7d4e)" style="fill: #0000ff; opacity: 0.6"/>
   </g>
   <g id="patch_9">
    <path d="M 139.413182 318.04 
L 150.798939 318.04 
L 150.798939 274.420524 
L 139.413182 274.420524 
z
" clip-path="url(#p6d17bb7d4e)" style="fill: #0000ff; opacity: 0.6"/>
   </g>
   <g id="patch_10">
    <path d="M 150.798939 318.04 
L 162.184697 318.04 
L 162.184697 240.148079 
L 150.798939 240.148079 
z
" clip-path="url(#p6d17bb7d4e)" style="fill: #0000ff; opacity: 0.6"/>
   </g>
   <g id="patch_11">
    <path d="M 162.184697 318.04 
L 173.570455 318.04 
L 173.570455 246.379433 
L 162.184697 246.379433 
z
" clip-path="url(#p6d17bb7d4e)" style="fill: #0000ff; opacity: 0.6"/>
   </g>
   <g id="patch_12">
    <path d="M 173.570455 318.04 
L 184.956212 318.04 
L 184.956212 159.140482 
L 173.570455 159.140482 
z
" clip-path="url(#p6d17bb7d4e)" style="fill: #0000ff; opacity: 0.6"/>
   </g>
   <g id="patch_13">
    <path d="M 184.956212 318.04 
L 196.34197 318.04 
L 196.34197 171.603189 
L 184.956212 171.603189 
z
" clip-path="url(#p6d17bb7d4e)" style="fill: #0000ff; opacity: 0.6"/>
   </g>
   <g id="patch_14">
    <path d="M 196.34197 318.04 
L 207.727727 318.04 
L 207.727727 106.173975 
L 196.34197 106.173975 
z
" clip-path="url(#p6d17bb7d4e)" style="fill: #0000ff; opacity: 0.6"/>
   </g>
   <g id="patch_15">
    <path d="M 207.727727 318.04 
L 219.113485 318.04 
L 219.113485 78.132884 
L 207.727727 78.132884 
z
" clip-path="url(#p6d17bb7d4e)" style="fill: #0000ff; opacity: 0.6"/>
   </g>
   <g id="patch_16">
    <path d="M 219.113485 318.04 
L 230.499242 318.04 
L 230.499242 84.364238 
L 219.113485 84.364238 
z
" clip-path="url(#p6d17bb7d4e)" style="fill: #0000ff; opacity: 0.6"/>
   </g>
   <g id="patch_17">
    <path d="M 230.499242 318.04 
L 241.885 318.04 
L 241.885 71.90153 
L 230.499242 71.90153 
z
" clip-path="url(#p6d17bb7d4e)" style="fill: #0000ff; opacity: 0.6"/>
   </g>
   <g id="patch_18">
    <path d="M 241.885 318.04 
L 253.270758 318.04 
L 253.270758 40.744762 
L 241.885 40.744762 
z
" clip-path="url(#p6d17bb7d4e)" style="fill: #0000ff; opacity: 0.6"/>
   </g>
   <g id="patch_19">
    <path d="M 253.270758 318.04 
L 264.656515 318.04 
L 264.656515 96.826945 
L 253.270758 96.826945 
z
" clip-path="url(#p6d17bb7d4e)" style="fill: #0000ff; opacity: 0.6"/>
   </g>
   <g id="patch_20">
    <path d="M 264.656515 318.04 
L 276.042273 318.04 
L 276.042273 65.670177 
L 264.656515 65.670177 
z
" clip-path="url(#p6d17bb7d4e)" style="fill: #0000ff; opacity: 0.6"/>
   </g>
   <g id="patch_21">
    <path d="M 276.042273 318.04 
L 287.42803 318.04 
L 287.42803 103.058299 
L 276.042273 103.058299 
z
" clip-path="url(#p6d17bb7d4e)" style="fill: #0000ff; opacity: 0.6"/>
   </g>
   <g id="patch_22">
    <path d="M 287.42803 318.04 
L 298.813788 318.04 
L 298.813788 162.256158 
L 287.42803 162.256158 
z
" clip-path="url(#p6d17bb7d4e)" style="fill: #0000ff; opacity: 0.6"/>
   </g>
   <g id="patch_23">
    <path d="M 298.813788 318.04 
L 310.199545 318.04 
L 310.199545 193.412927 
L 298.813788 193.412927 
z
" clip-path="url(#p6d17bb7d4e)" style="fill: #0000ff; opacity: 0.6"/>
   </g>
   <g id="patch_24">
    <path d="M 310.199545 318.04 
L 321.585303 318.04 
L 321.585303 196.528604 
L 310.199545 196.528604 
z
" clip-path="url(#p6d17bb7d4e)" style="fill: #0000ff; opacity: 0.6"/>
   </g>
   <g id="patch_25">
    <path d="M 321.585303 318.04 
L 332.971061 318.04 
L 332.971061 233.916726 
L 321.585303 233.916726 
z
" clip-path="url(#p6d17bb7d4e)" style="fill: #0000ff; opacity: 0.6"/>
   </g>
   <g id="patch_26">
    <path d="M 332.971061 318.04 
L 344.356818 318.04 
L 344.356818 271.304848 
L 332.971061 271.304848 
z
" clip-path="url(#p6d17bb7d4e)" style="fill: #0000ff; opacity: 0.6"/>
   </g>
   <g id="patch_27">
    <path d="M 344.356818 318.04 
L 355.742576 318.04 
L 355.742576 283.767555 
L 344.356818 283.767555 
z
" clip-path="url(#p6d17bb7d4e)" style="fill: #0000ff; opacity: 0.6"/>
   </g>
   <g id="patch_28">
    <path d="M 355.742576 318.04 
L 367.128333 318.04 
L 367.128333 296.230262 
L 355.742576 296.230262 
z
" clip-path="url(#p6d17bb7d4e)" style="fill: #0000ff; opacity: 0.6"/>
   </g>
   <g id="patch_29">
    <path d="M 367.128333 318.04 
L 378.514091 318.04 
L 378.514091 308.69297 
L 367.128333 308.69297 
z
" clip-path="url(#p6d17bb7d4e)" style="fill: #0000ff; opacity: 0.6"/>
   </g>
   <g id="patch_30">
    <path d="M 378.514091 318.04 
L 389.899848 318.04 
L 389.899848 299.345939 
L 378.514091 299.345939 
z
" clip-path="url(#p6d17bb7d4e)" style="fill: #0000ff; opacity: 0.6"/>
   </g>
   <g id="patch_31">
    <path d="M 389.899848 318.04 
L 401.285606 318.04 
L 401.285606 318.04 
L 389.899848 318.04 
z
" clip-path="url(#p6d17bb7d4e)" style="fill: #0000ff; opacity: 0.6"/>
   </g>
   <g id="patch_32">
    <path d="M 401.285606 318.04 
L 412.671364 318.04 
L 412.671364 314.924323 
L 401.285606 314.924323 
z
" clip-path="url(#p6d17bb7d4e)" style="fill: #0000ff; opacity: 0.6"/>
   </g>
   <g id="matplotlib.axis_1">
    <g id="xtick_1">
     <g id="line2d_1">
      <defs>
       <path id="m389f7a8954" d="M 0 0 
L 0 3.5 
" style="stroke: #000000; stroke-width: 0.8"/>
      </defs>
      <g>
       <use xlink:href="#m389f7a8954" x="80.620407" y="318.04" style="stroke: #000000; stroke-width: 0.8"/>
      </g>
     </g>
     <g id="text_1">
      <!-- −3 -->
      <g transform="translate(73.249313 332.638438) scale(0.1 -0.1)">
       <defs>
        <path id="DejaVuSans-2212" d="M 678 2272 
L 4684 2272 
L 4684 1741 
L 678 1741 
L 678 2272 
z
" transform="scale(0.015625)"/>
        <path id="DejaVuSans-33" d="M 2597 2516 
Q 3050 2419 3304 2112 
Q 3559 1806 3559 1356 
Q 3559 666 3084 287 
Q 2609 -91 1734 -91 
Q 1441 -91 1130 -33 
Q 819 25 488 141 
L 488 750 
Q 750 597 1062 519 
Q 1375 441 1716 441 
Q 2309 441 2620 675 
Q 2931 909 2931 1356 
Q 2931 1769 2642 2001 
Q 2353 2234 1838 2234 
L 1294 2234 
L 1294 2753 
L 1863 2753 
Q 2328 2753 2575 2939 
Q 2822 3125 2822 3475 
Q 2822 3834 2567 4026 
Q 2313 4219 1838 4219 
Q 1578 4219 1281 4162 
Q 984 4106 628 3988 
L 628 4550 
Q 988 4650 1302 4700 
Q 1616 4750 1894 4750 
Q 2613 4750 3031 4423 
Q 3450 4097 3450 3541 
Q 3450 3153 3228 2886 
Q 3006 2619 2597 2516 
z
" transform="scale(0.015625)"/>
       </defs>
       <use xlink:href="#DejaVuSans-2212"/>
       <use xlink:href="#DejaVuSans-33" transform="translate(83.789062 0)"/>
      </g>
     </g>
    </g>
    <g id="xtick_2">
     <g id="line2d_2">
      <g>
       <use xlink:href="#m389f7a8954" x="134.68813" y="318.04" style="stroke: #000000; stroke-width: 0.8"/>
      </g>
     </g>
     <g id="text_2">
      <!-- −2 -->
      <g transform="translate(127.317036 332.638438) scale(0.1 -0.1)">
       <defs>
        <path id="DejaVuSans-32" d="M 1228 531 
L 3431 531 
L 3431 0 
L 469 0 
L 469 531 
Q 828 903 1448 1529 
Q 2069 2156 2228 2338 
Q 2531 2678 2651 2914 
Q 2772 3150 2772 3378 
Q 2772 3750 2511 3984 
Q 2250 4219 1831 4219 
Q 1534 4219 1204 4116 
Q 875 4013 500 3803 
L 500 4441 
Q 881 4594 1212 4672 
Q 1544 4750 1819 4750 
Q 2544 4750 2975 4387 
Q 3406 4025 3406 3419 
Q 3406 3131 3298 2873 
Q 3191 2616 2906 2266 
Q 2828 2175 2409 1742 
Q 1991 1309 1228 531 
z
" transform="scale(0.015625)"/>
       </defs>
       <use xlink:href="#DejaVuSans-2212"/>
       <use xlink:href="#DejaVuSans-32" transform="translate(83.789062 0)"/>
      </g>
     </g>
    </g>
    <g id="xtick_3">
     <g id="line2d_3">
      <g>
       <use xlink:href="#m389f7a8954" x="188.755853" y="318.04" style="stroke: #000000; stroke-width: 0.8"/>
      </g>
     </g>
     <g id="text_3">
      <!-- −1 -->
      <g transform="translate(181.384759 332.638438) scale(0.1 -0.1)">
       <defs>
        <path id="DejaVuSans-31" d="M 794 531 
L 1825 531 
L 1825 4091 
L 703 3866 
L 703 4441 
L 1819 4666 
L 2450 4666 
L 2450 531 
L 3481 531 
L 3481 0 
L 794 0 
L 794 531 
z
" transform="scale(0.015625)"/>
       </defs>
       <use xlink:href="#DejaVuSans-2212"/>
       <use xlink:href="#DejaVuSans-31" transform="translate(83.789062 0)"/>
      </g>
     </g>
    </g>
    <g id="xtick_4">
     <g id="line2d_4">
      <g>
       <use xlink:href="#m389f7a8954" x="242.823576" y="318.04" style="stroke: #000000; stroke-width: 0.8"/>
      </g>
     </g>
     <g id="text_4">
      <!-- 0 -->
      <g transform="translate(239.642326 332.638438) scale(0.1 -0.1)">
       <defs>
        <path id="DejaVuSans-30" d="M 2034 4250 
Q 1547 4250 1301 3770 
Q 1056 3291 1056 2328 
Q 1056 1369 1301 889 
Q 1547 409 2034 409 
Q 2525 409 2770 889 
Q 3016 1369 3016 2328 
Q 3016 3291 2770 3770 
Q 2525 4250 2034 4250 
z
M 2034 4750 
Q 2819 4750 3233 4129 
Q 3647 3509 3647 2328 
Q 3647 1150 3233 529 
Q 2819 -91 2034 -91 
Q 1250 -91 836 529 
Q 422 1150 422 2328 
Q 422 3509 836 4129 
Q 1250 4750 2034 4750 
z
" transform="scale(0.015625)"/>
       </defs>
       <use xlink:href="#DejaVuSans-30"/>
      </g>
     </g>
    </g>
    <g id="xtick_5">
     <g id="line2d_5">
      <g>
       <use xlink:href="#m389f7a8954" x="296.891299" y="318.04" style="stroke: #000000; stroke-width: 0.8"/>
      </g>
     </g>
     <g id="text_5">
      <!-- 1 -->
      <g transform="translate(293.710049 332.638438) scale(0.1 -0.1)">
       <use xlink:href="#DejaVuSans-31"/>
      </g>
     </g>
    </g>
    <g id="xtick_6">
     <g id="line2d_6">
      <g>
       <use xlink:href="#m389f7a8954" x="350.959022" y="318.04" style="stroke: #000000; stroke-width: 0.8"/>
      </g>
     </g>
     <g id="text_6">
      <!-- 2 -->
      <g transform="translate(347.777772 332.638438) scale(0.1 -0.1)">
       <use xlink:href="#DejaVuSans-32"/>
      </g>
     </g>
    </g>
    <g id="xtick_7">
     <g id="line2d_7">
      <g>
       <use xlink:href="#m389f7a8954" x="405.026745" y="318.04" style="stroke: #000000; stroke-width: 0.8"/>
      </g>
     </g>
     <g id="text_7">
      <!-- 3 -->
      <g transform="translate(401.845495 332.638438) scale(0.1 -0.1)">
       <use xlink:href="#DejaVuSans-33"/>
      </g>
     </g>
    </g>
    <g id="text_8">
     <!-- Value -->
     <g transform="translate(228.15375 346.316563) scale(0.1 -0.1)">
      <defs>
       <path id="DejaVuSans-56" d="M 1831 0 
L 50 4666 
L 709 4666 
L 2188 738 
L 3669 4666 
L 4325 4666 
L 2547 0 
L 1831 0 
z
" transform="scale(0.015625)"/>
       <path id="DejaVuSans-61" d="M 2194 1759 
Q 1497 1759 1228 1600 
Q 959 1441 959 1056 
Q 959 750 1161 570 
Q 1363 391 1709 391 
Q 2188 391 2477 730 
Q 2766 1069 2766 1631 
L 2766 1759 
L 2194 1759 
z
M 3341 1997 
L 3341 0 
L 2766 0 
L 2766 531 
Q 2569 213 2275 61 
Q 1981 -91 1556 -91 
Q 1019 -91 701 211 
Q 384 513 384 1019 
Q 384 1609 779 1909 
Q 1175 2209 1959 2209 
L 2766 2209 
L 2766 2266 
Q 2766 2663 2505 2880 
Q 2244 3097 1772 3097 
Q 1472 3097 1187 3025 
Q 903 2953 641 2809 
L 641 3341 
Q 956 3463 1253 3523 
Q 1550 3584 1831 3584 
Q 2591 3584 2966 3190 
Q 3341 2797 3341 1997 
z
" transform="scale(0.015625)"/>
       <path id="DejaVuSans-6c" d="M 603 4863 
L 1178 4863 
L 1178 0 
L 603 0 
L 603 4863 
z
" transform="scale(0.015625)"/>
       <path id="DejaVuSans-75" d="M 544 1381 
L 544 3500 
L 1119 3500 
L 1119 1403 
Q 1119 906 1312 657 
Q 1506 409 1894 409 
Q 2359 409 2629 706 
Q 2900 1003 2900 1516 
L 2900 3500 
L 3475 3500 
L 3475 0 
L 2900 0 
L 2900 538 
Q 2691 219 2414 64 
Q 2138 -91 1772 -91 
Q 1169 -91 856 284 
Q 544 659 544 1381 
z
M 1991 3584 
L 1991 3584 
z
" transform="scale(0.015625)"/>
       <path id="DejaVuSans-65" d="M 3597 1894 
L 3597 1613 
L 953 1613 
Q 991 1019 1311 708 
Q 1631 397 2203 397 
Q 2534 397 2845 478 
Q 3156 559 3463 722 
L 3463 178 
Q 3153 47 2828 -22 
Q 2503 -91 2169 -91 
Q 1331 -91 842 396 
Q 353 884 353 1716 
Q 353 2575 817 3079 
Q 1281 3584 2069 3584 
Q 2775 3584 3186 3129 
Q 3597 2675 3597 1894 
z
M 3022 2063 
Q 3016 2534 2758 2815 
Q 2500 3097 2075 3097 
Q 1594 3097 1305 2825 
Q 1016 2553 972 2059 
L 3022 2063 
z
" transform="scale(0.015625)"/>
      </defs>
      <use xlink:href="#DejaVuSans-56"/>
      <use xlink:href="#DejaVuSans-61" transform="translate(60.658203 0)"/>
      <use xlink:href="#DejaVuSans-6c" transform="translate(121.9375 0)"/>
      <use xlink:href="#DejaVuSans-75" transform="translate(149.720703 0)"/>
      <use xlink:href="#DejaVuSans-65" transform="translate(213.099609 0)"/>
     </g>
    </g>
   </g>
   <g id="matplotlib.axis_2">
    <g id="ytick_1">
     <g id="line2d_8">
      <defs>
       <path id="mb79b241085" d="M 0 0 
L -3.5 0 
" style="stroke: #000000; stroke-width: 0.8"/>
      </defs>
      <g>
       <use xlink:href="#mb79b241085" x="54.02" y="318.04" style="stroke: #000000; stroke-width: 0.8"/>
      </g>
     </g>
     <g id="text_9">
      <!-- 0.00 -->
      <g transform="translate(24.754375 321.839219) scale(0.1 -0.1)">
       <defs>
        <path id="DejaVuSans-2e" d="M 684 794 
L 1344 794 
L 1344 0 
L 684 0 
L 684 794 
z
" transform="scale(0.015625)"/>
       </defs>
       <use xlink:href="#DejaVuSans-30"/>
       <use xlink:href="#DejaVuSans-2e" transform="translate(63.623047 0)"/>
       <use xlink:href="#DejaVuSans-30" transform="translate(95.410156 0)"/>
       <use xlink:href="#DejaVuSans-30" transform="translate(159.033203 0)"/>
      </g>
     </g>
    </g>
    <g id="ytick_2">
     <g id="line2d_9">
      <g>
       <use xlink:href="#mb79b241085" x="54.02" y="285.23453" style="stroke: #000000; stroke-width: 0.8"/>
      </g>
     </g>
     <g id="text_10">
      <!-- 0.05 -->
      <g transform="translate(24.754375 289.033749) scale(0.1 -0.1)">
       <defs>
        <path id="DejaVuSans-35" d="M 691 4666 
L 3169 4666 
L 3169 4134 
L 1269 4134 
L 1269 2991 
Q 1406 3038 1543 3061 
Q 1681 3084 1819 3084 
Q 2600 3084 3056 2656 
Q 3513 2228 3513 1497 
Q 3513 744 3044 326 
Q 2575 -91 1722 -91 
Q 1428 -91 1123 -41 
Q 819 9 494 109 
L 494 744 
Q 775 591 1075 516 
Q 1375 441 1709 441 
Q 2250 441 2565 725 
Q 2881 1009 2881 1497 
Q 2881 1984 2565 2268 
Q 2250 2553 1709 2553 
Q 1456 2553 1204 2497 
Q 953 2441 691 2322 
L 691 4666 
z
" transform="scale(0.015625)"/>
       </defs>
       <use xlink:href="#DejaVuSans-30"/>
       <use xlink:href="#DejaVuSans-2e" transform="translate(63.623047 0)"/>
       <use xlink:href="#DejaVuSans-30" transform="translate(95.410156 0)"/>
       <use xlink:href="#DejaVuSans-35" transform="translate(159.033203 0)"/>
      </g>
     </g>
    </g>
    <g id="ytick_3">
     <g id="line2d_10">
      <g>
       <use xlink:href="#mb79b241085" x="54.02" y="252.42906" style="stroke: #000000; stroke-width: 0.8"/>
      </g>
     </g>
     <g id="text_11">
      <!-- 0.10 -->
      <g transform="translate(24.754375 256.228279) scale(0.1 -0.1)">
       <use xlink:href="#DejaVuSans-30"/>
       <use xlink:href="#DejaVuSans-2e" transform="translate(63.623047 0)"/>
       <use xlink:href="#DejaVuSans-31" transform="translate(95.410156 0)"/>
       <use xlink:href="#DejaVuSans-30" transform="translate(159.033203 0)"/>
      </g>
     </g>
    </g>
    <g id="ytick_4">
     <g id="line2d_11">
      <g>
       <use xlink:href="#mb79b241085" x="54.02" y="219.623591" style="stroke: #000000; stroke-width: 0.8"/>
      </g>
     </g>
     <g id="text_12">
      <!-- 0.15 -->
      <g transform="translate(24.754375 223.422809) scale(0.1 -0.1)">
       <use xlink:href="#DejaVuSans-30"/>
       <use xlink:href="#DejaVuSans-2e" transform="translate(63.623047 0)"/>
       <use xlink:href="#DejaVuSans-31" transform="translate(95.410156 0)"/>
       <use xlink:href="#DejaVuSans-35" transform="translate(159.033203 0)"/>
      </g>
     </g>
    </g>
    <g id="ytick_5">
     <g id="line2d_12">
      <g>
       <use xlink:href="#mb79b241085" x="54.02" y="186.818121" style="stroke: #000000; stroke-width: 0.8"/>
      </g>
     </g>
     <g id="text_13">
      <!-- 0.20 -->
      <g transform="translate(24.754375 190.617339) scale(0.1 -0.1)">
       <use xlink:href="#DejaVuSans-30"/>
       <use xlink:href="#DejaVuSans-2e" transform="translate(63.623047 0)"/>
       <use xlink:href="#DejaVuSans-32" transform="translate(95.410156 0)"/>
       <use xlink:href="#DejaVuSans-30" transform="translate(159.033203 0)"/>
      </g>
     </g>
    </g>
    <g id="ytick_6">
     <g id="line2d_13">
      <g>
       <use xlink:href="#mb79b241085" x="54.02" y="154.012651" style="stroke: #000000; stroke-width: 0.8"/>
      </g>
     </g>
     <g id="text_14">
      <!-- 0.25 -->
      <g transform="translate(24.754375 157.81187) scale(0.1 -0.1)">
       <use xlink:href="#DejaVuSans-30"/>
       <use xlink:href="#DejaVuSans-2e" transform="translate(63.623047 0)"/>
       <use xlink:href="#DejaVuSans-32" transform="translate(95.410156 0)"/>
       <use xlink:href="#DejaVuSans-35" transform="translate(159.033203 0)"/>
      </g>
     </g>
    </g>
    <g id="ytick_7">
     <g id="line2d_14">
      <g>
       <use xlink:href="#mb79b241085" x="54.02" y="121.207181" style="stroke: #000000; stroke-width: 0.8"/>
      </g>
     </g>
     <g id="text_15">
      <!-- 0.30 -->
      <g transform="translate(24.754375 125.0064) scale(0.1 -0.1)">
       <use xlink:href="#DejaVuSans-30"/>
       <use xlink:href="#DejaVuSans-2e" transform="translate(63.623047 0)"/>
       <use xlink:href="#DejaVuSans-33" transform="translate(95.410156 0)"/>
       <use xlink:href="#DejaVuSans-30" transform="translate(159.033203 0)"/>
      </g>
     </g>
    </g>
    <g id="ytick_8">
     <g id="line2d_15">
      <g>
       <use xlink:href="#mb79b241085" x="54.02" y="88.401711" style="stroke: #000000; stroke-width: 0.8"/>
      </g>
     </g>
     <g id="text_16">
      <!-- 0.35 -->
      <g transform="translate(24.754375 92.20093) scale(0.1 -0.1)">
       <use xlink:href="#DejaVuSans-30"/>
       <use xlink:href="#DejaVuSans-2e" transform="translate(63.623047 0)"/>
       <use xlink:href="#DejaVuSans-33" transform="translate(95.410156 0)"/>
       <use xlink:href="#DejaVuSans-35" transform="translate(159.033203 0)"/>
      </g>
     </g>
    </g>
    <g id="ytick_9">
     <g id="line2d_16">
      <g>
       <use xlink:href="#mb79b241085" x="54.02" y="55.596241" style="stroke: #000000; stroke-width: 0.8"/>
      </g>
     </g>
     <g id="text_17">
      <!-- 0.40 -->
      <g transform="translate(24.754375 59.39546) scale(0.1 -0.1)">
       <defs>
        <path id="DejaVuSans-34" d="M 2419 4116 
L 825 1625 
L 2419 1625 
L 2419 4116 
z
M 2253 4666 
L 3047 4666 
L 3047 1625 
L 3713 1625 
L 3713 1100 
L 3047 1100 
L 3047 0 
L 2419 0 
L 2419 1100 
L 313 1100 
L 313 1709 
L 2253 4666 
z
" transform="scale(0.015625)"/>
       </defs>
       <use xlink:href="#DejaVuSans-30"/>
       <use xlink:href="#DejaVuSans-2e" transform="translate(63.623047 0)"/>
       <use xlink:href="#DejaVuSans-34" transform="translate(95.410156 0)"/>
       <use xlink:href="#DejaVuSans-30" transform="translate(159.033203 0)"/>
      </g>
     </g>
    </g>
    <g id="text_18">
     <!-- Density -->
     <g transform="translate(18.674687 191.468594) rotate(-90) scale(0.1 -0.1)">
      <defs>
       <path id="DejaVuSans-44" d="M 1259 4147 
L 1259 519 
L 2022 519 
Q 2988 519 3436 956 
Q 3884 1394 3884 2338 
Q 3884 3275 3436 3711 
Q 2988 4147 2022 4147 
L 1259 4147 
z
M 628 4666 
L 1925 4666 
Q 3281 4666 3915 4102 
Q 4550 3538 4550 2338 
Q 4550 1131 3912 565 
Q 3275 0 1925 0 
L 628 0 
L 628 4666 
z
" transform="scale(0.015625)"/>
       <path id="DejaVuSans-6e" d="M 3513 2113 
L 3513 0 
L 2938 0 
L 2938 2094 
Q 2938 2591 2744 2837 
Q 2550 3084 2163 3084 
Q 1697 3084 1428 2787 
Q 1159 2491 1159 1978 
L 1159 0 
L 581 0 
L 581 3500 
L 1159 3500 
L 1159 2956 
Q 1366 3272 1645 3428 
Q 1925 3584 2291 3584 
Q 2894 3584 3203 3211 
Q 3513 2838 3513 2113 
z
" transform="scale(0.015625)"/>
       <path id="DejaVuSans-73" d="M 2834 3397 
L 2834 2853 
Q 2591 2978 2328 3040 
Q 2066 3103 1784 3103 
Q 1356 3103 1142 2972 
Q 928 2841 928 2578 
Q 928 2378 1081 2264 
Q 1234 2150 1697 2047 
L 1894 2003 
Q 2506 1872 2764 1633 
Q 3022 1394 3022 966 
Q 3022 478 2636 193 
Q 2250 -91 1575 -91 
Q 1294 -91 989 -36 
Q 684 19 347 128 
L 347 722 
Q 666 556 975 473 
Q 1284 391 1588 391 
Q 1994 391 2212 530 
Q 2431 669 2431 922 
Q 2431 1156 2273 1281 
Q 2116 1406 1581 1522 
L 1381 1569 
Q 847 1681 609 1914 
Q 372 2147 372 2553 
Q 372 3047 722 3315 
Q 1072 3584 1716 3584 
Q 2034 3584 2315 3537 
Q 2597 3491 2834 3397 
z
" transform="scale(0.015625)"/>
       <path id="DejaVuSans-69" d="M 603 3500 
L 1178 3500 
L 1178 0 
L 603 0 
L 603 3500 
z
M 603 4863 
L 1178 4863 
L 1178 4134 
L 603 4134 
L 603 4863 
z
" transform="scale(0.015625)"/>
       <path id="DejaVuSans-74" d="M 1172 4494 
L 1172 3500 
L 2356 3500 
L 2356 3053 
L 1172 3053 
L 1172 1153 
Q 1172 725 1289 603 
Q 1406 481 1766 481 
L 2356 481 
L 2356 0 
L 1766 0 
Q 1100 0 847 248 
Q 594 497 594 1153 
L 594 3053 
L 172 3053 
L 172 3500 
L 594 3500 
L 594 4494 
L 1172 4494 
z
" transform="scale(0.015625)"/>
       <path id="DejaVuSans-79" d="M 2059 -325 
Q 1816 -950 1584 -1140 
Q 1353 -1331 966 -1331 
L 506 -1331 
L 506 -850 
L 844 -850 
Q 1081 -850 1212 -737 
Q 1344 -625 1503 -206 
L 1606 56 
L 191 3500 
L 800 3500 
L 1894 763 
L 2988 3500 
L 3597 3500 
L 2059 -325 
z
" transform="scale(0.015625)"/>
      </defs>
      <use xlink:href="#DejaVuSans-44"/>
      <use xlink:href="#DejaVuSans-65" transform="translate(77.001953 0)"/>
      <use xlink:href="#DejaVuSans-6e" transform="translate(138.525391 0)"/>
      <use xlink:href="#DejaVuSans-73" transform="translate(201.904297 0)"/>
      <use xlink:href="#DejaVuSans-69" transform="translate(254.003906 0)"/>
      <use xlink:href="#DejaVuSans-74" transform="translate(281.787109 0)"/>
      <use xlink:href="#DejaVuSans-79" transform="translate(320.996094 0)"/>
     </g>
    </g>
   </g>
   <g id="line2d_17">
    <path d="M 71.098636 314.040441 
L 76.911185 312.445758 
L 83.407563 310.42419 
L 93.323088 307.058078 
L 108.709247 301.689741 
L 112.128393 300.201569 
L 115.205625 298.618136 
L 117.940942 296.96452 
L 120.676259 295.043991 
L 123.411577 292.835153 
L 126.146894 290.330246 
L 128.882211 287.535122 
L 131.959443 284.066297 
L 135.378589 279.854588 
L 139.13965 274.853656 
L 143.242626 269.019773 
L 147.345602 262.783611 
L 150.764748 257.195201 
L 153.84198 251.749668 
L 156.577297 246.482689 
L 159.312614 240.73555 
L 162.047931 234.45627 
L 164.783248 227.632184 
L 167.86048 219.351205 
L 171.621541 208.545873 
L 178.801749 187.016584 
L 184.956212 168.918661 
L 191.110676 151.572136 
L 198.974712 130.113091 
L 203.761517 117.585803 
L 207.180664 109.178207 
L 210.257896 102.193007 
L 212.993213 96.556187 
L 215.386615 92.113683 
L 217.780018 88.140857 
L 220.17342 84.623056 
L 222.566823 81.522827 
L 224.960225 78.786417 
L 227.695542 76.026532 
L 230.430859 73.577995 
L 233.508091 71.123061 
L 236.585323 68.963893 
L 239.32064 67.330325 
L 241.714043 66.182291 
L 243.765531 65.460331 
L 245.475104 65.078358 
L 247.184677 64.923302 
L 248.89425 65.017789 
L 250.603823 65.38023 
L 252.313397 66.023914 
L 254.02297 66.95662 
L 255.732543 68.180767 
L 257.442116 69.694008 
L 259.151689 71.490173 
L 261.203177 74.00643 
L 263.254665 76.899254 
L 265.306153 80.150059 
L 267.699555 84.372188 
L 270.092958 89.034601 
L 272.828275 94.876929 
L 275.563592 101.24055 
L 278.640824 108.979444 
L 282.05997 118.209298 
L 286.504861 130.934597 
L 296.420385 159.610708 
L 300.181446 169.620601 
L 303.600593 178.110634 
L 307.703569 187.691091 
L 317.619093 210.534451 
L 322.063984 221.552229 
L 335.05674 254.326598 
L 338.133972 261.183199 
L 340.869289 266.761911 
L 343.604606 271.835094 
L 346.339923 276.4189 
L 349.07524 280.551302 
L 351.810557 284.278399 
L 354.545875 287.642646 
L 357.281192 290.67565 
L 360.016509 293.396797 
L 362.751826 295.817304 
L 365.487143 297.947783 
L 368.22246 299.806436 
L 371.299692 301.612446 
L 374.718838 303.344822 
L 379.505643 305.492549 
L 395.917546 312.475149 
L 399.678607 313.77231 
L 403.097754 314.723455 
L 406.5169 315.454738 
L 410.619876 316.087543 
L 412.671364 316.328559 
L 412.671364 316.328559 
" clip-path="url(#p6d17bb7d4e)" style="fill: none; stroke: #00008b; stroke-width: 2; stroke-linecap: square"/>
   </g>
   <g id="patch_33">
    <path d="M 54.02 318.04 
L 54.02 26.88 
" style="fill: none; stroke: #000000; stroke-width: 0.8; stroke-linejoin: miter; stroke-linecap: square"/>
   </g>
   <g id="patch_34">
    <path d="M 429.75 318.04 
L 429.75 26.88 
" style="fill: none; stroke: #000000; stroke-width: 0.8; stroke-linejoin: miter; stroke-linecap: square"/>
   </g>
   <g id="patch_35">
    <path d="M 54.02 318.04 
L 429.75 318.04 
" style="fill: none; stroke: #000000; stroke-width: 0.8; stroke-linejoin: miter; stroke-linecap: square"/>
   </g>
   <g id="patch_36">
    <path d="M 54.02 26.88 
L 429.75 26.88 
" style="fill: none; stroke: #000000; stroke-width: 0.8; stroke-linejoin: miter; stroke-linecap: square"/>
   </g>
   <g id="text_19">
    <!-- Symmetrical Distribution (Normal) -->
    <g transform="translate(138.807813 20.88) scale(0.12 -0.12)">
     <defs>
      <path id="DejaVuSans-53" d="M 3425 4513 
L 3425 3897 
Q 3066 4069 2747 4153 
Q 2428 4238 2131 4238 
Q 1616 4238 1336 4038 
Q 1056 3838 1056 3469 
Q 1056 3159 1242 3001 
Q 1428 2844 1947 2747 
L 2328 2669 
Q 3034 2534 3370 2195 
Q 3706 1856 3706 1288 
Q 3706 609 3251 259 
Q 2797 -91 1919 -91 
Q 1588 -91 1214 -16 
Q 841 59 441 206 
L 441 856 
Q 825 641 1194 531 
Q 1563 422 1919 422 
Q 2459 422 2753 634 
Q 3047 847 3047 1241 
Q 3047 1584 2836 1778 
Q 2625 1972 2144 2069 
L 1759 2144 
Q 1053 2284 737 2584 
Q 422 2884 422 3419 
Q 422 4038 858 4394 
Q 1294 4750 2059 4750 
Q 2388 4750 2728 4690 
Q 3069 4631 3425 4513 
z
" transform="scale(0.015625)"/>
      <path id="DejaVuSans-6d" d="M 3328 2828 
Q 3544 3216 3844 3400 
Q 4144 3584 4550 3584 
Q 5097 3584 5394 3201 
Q 5691 2819 5691 2113 
L 5691 0 
L 5113 0 
L 5113 2094 
Q 5113 2597 4934 2840 
Q 4756 3084 4391 3084 
Q 3944 3084 3684 2787 
Q 3425 2491 3425 1978 
L 3425 0 
L 2847 0 
L 2847 2094 
Q 2847 2600 2669 2842 
Q 2491 3084 2119 3084 
Q 1678 3084 1418 2786 
Q 1159 2488 1159 1978 
L 1159 0 
L 581 0 
L 581 3500 
L 1159 3500 
L 1159 2956 
Q 1356 3278 1631 3431 
Q 1906 3584 2284 3584 
Q 2666 3584 2933 3390 
Q 3200 3197 3328 2828 
z
" transform="scale(0.015625)"/>
      <path id="DejaVuSans-72" d="M 2631 2963 
Q 2534 3019 2420 3045 
Q 2306 3072 2169 3072 
Q 1681 3072 1420 2755 
Q 1159 2438 1159 1844 
L 1159 0 
L 581 0 
L 581 3500 
L 1159 3500 
L 1159 2956 
Q 1341 3275 1631 3429 
Q 1922 3584 2338 3584 
Q 2397 3584 2469 3576 
Q 2541 3569 2628 3553 
L 2631 2963 
z
" transform="scale(0.015625)"/>
      <path id="DejaVuSans-63" d="M 3122 3366 
L 3122 2828 
Q 2878 2963 2633 3030 
Q 2388 3097 2138 3097 
Q 1578 3097 1268 2742 
Q 959 2388 959 1747 
Q 959 1106 1268 751 
Q 1578 397 2138 397 
Q 2388 397 2633 464 
Q 2878 531 3122 666 
L 3122 134 
Q 2881 22 2623 -34 
Q 2366 -91 2075 -91 
Q 1284 -91 818 406 
Q 353 903 353 1747 
Q 353 2603 823 3093 
Q 1294 3584 2113 3584 
Q 2378 3584 2631 3529 
Q 2884 3475 3122 3366 
z
" transform="scale(0.015625)"/>
      <path id="DejaVuSans-20" transform="scale(0.015625)"/>
      <path id="DejaVuSans-62" d="M 3116 1747 
Q 3116 2381 2855 2742 
Q 2594 3103 2138 3103 
Q 1681 3103 1420 2742 
Q 1159 2381 1159 1747 
Q 1159 1113 1420 752 
Q 1681 391 2138 391 
Q 2594 391 2855 752 
Q 3116 1113 3116 1747 
z
M 1159 2969 
Q 1341 3281 1617 3432 
Q 1894 3584 2278 3584 
Q 2916 3584 3314 3078 
Q 3713 2572 3713 1747 
Q 3713 922 3314 415 
Q 2916 -91 2278 -91 
Q 1894 -91 1617 61 
Q 1341 213 1159 525 
L 1159 0 
L 581 0 
L 581 4863 
L 1159 4863 
L 1159 2969 
z
" transform="scale(0.015625)"/>
      <path id="DejaVuSans-6f" d="M 1959 3097 
Q 1497 3097 1228 2736 
Q 959 2375 959 1747 
Q 959 1119 1226 758 
Q 1494 397 1959 397 
Q 2419 397 2687 759 
Q 2956 1122 2956 1747 
Q 2956 2369 2687 2733 
Q 2419 3097 1959 3097 
z
M 1959 3584 
Q 2709 3584 3137 3096 
Q 3566 2609 3566 1747 
Q 3566 888 3137 398 
Q 2709 -91 1959 -91 
Q 1206 -91 779 398 
Q 353 888 353 1747 
Q 353 2609 779 3096 
Q 1206 3584 1959 3584 
z
" transform="scale(0.015625)"/>
      <path id="DejaVuSans-28" d="M 1984 4856 
Q 1566 4138 1362 3434 
Q 1159 2731 1159 2009 
Q 1159 1288 1364 580 
Q 1569 -128 1984 -844 
L 1484 -844 
Q 1016 -109 783 600 
Q 550 1309 550 2009 
Q 550 2706 781 3412 
Q 1013 4119 1484 4856 
L 1984 4856 
z
" transform="scale(0.015625)"/>
      <path id="DejaVuSans-4e" d="M 628 4666 
L 1478 4666 
L 3547 763 
L 3547 4666 
L 4159 4666 
L 4159 0 
L 3309 0 
L 1241 3903 
L 1241 0 
L 628 0 
L 628 4666 
z
" transform="scale(0.015625)"/>
      <path id="DejaVuSans-29" d="M 513 4856 
L 1013 4856 
Q 1481 4119 1714 3412 
Q 1947 2706 1947 2009 
Q 1947 1309 1714 600 
Q 1481 -109 1013 -844 
L 513 -844 
Q 928 -128 1133 580 
Q 1338 1288 1338 2009 
Q 1338 2731 1133 3434 
Q 928 4138 513 4856 
z
" transform="scale(0.015625)"/>
     </defs>
     <use xlink:href="#DejaVuSans-53"/>
     <use xlink:href="#DejaVuSans-79" transform="translate(63.476562 0)"/>
     <use xlink:href="#DejaVuSans-6d" transform="translate(122.65625 0)"/>
     <use xlink:href="#DejaVuSans-6d" transform="translate(220.068359 0)"/>
     <use xlink:href="#DejaVuSans-65" transform="translate(317.480469 0)"/>
     <use xlink:href="#DejaVuSans-74" transform="translate(379.003906 0)"/>
     <use xlink:href="#DejaVuSans-72" transform="translate(418.212891 0)"/>
     <use xlink:href="#DejaVuSans-69" transform="translate(459.326172 0)"/>
     <use xlink:href="#DejaVuSans-63" transform="translate(487.109375 0)"/>
     <use xlink:href="#DejaVuSans-61" transform="translate(542.089844 0)"/>
     <use xlink:href="#DejaVuSans-6c" transform="translate(603.369141 0)"/>
     <use xlink:href="#DejaVuSans-20" transform="translate(631.152344 0)"/>
     <use xlink:href="#DejaVuSans-44" transform="translate(662.939453 0)"/>
     <use xlink:href="#DejaVuSans-69" transform="translate(739.941406 0)"/>
     <use xlink:href="#DejaVuSans-73" transform="translate(767.724609 0)"/>
     <use xlink:href="#DejaVuSans-74" transform="translate(819.824219 0)"/>
     <use xlink:href="#DejaVuSans-72" transform="translate(859.033203 0)"/>
     <use xlink:href="#DejaVuSans-69" transform="translate(900.146484 0)"/>
     <use xlink:href="#DejaVuSans-62" transform="translate(927.929688 0)"/>
     <use xlink:href="#DejaVuSans-75" transform="translate(991.40625 0)"/>
     <use xlink:href="#DejaVuSans-74" transform="translate(1054.785156 0)"/>
     <use xlink:href="#DejaVuSans-69" transform="translate(1093.994141 0)"/>
     <use xlink:href="#DejaVuSans-6f" transform="translate(1121.777344 0)"/>
     <use xlink:href="#DejaVuSans-6e" transform="translate(1182.958984 0)"/>
     <use xlink:href="#DejaVuSans-20" transform="translate(1246.337891 0)"/>
     <use xlink:href="#DejaVuSans-28" transform="translate(1278.125 0)"/>
     <use xlink:href="#DejaVuSans-4e" transform="translate(1317.138672 0)"/>
     <use xlink:href="#DejaVuSans-6f" transform="translate(1391.943359 0)"/>
     <use xlink:href="#DejaVuSans-72" transform="translate(1453.125 0)"/>
     <use xlink:href="#DejaVuSans-6d" transform="translate(1492.488281 0)"/>
     <use xlink:href="#DejaVuSans-61" transform="translate(1589.900391 0)"/>
     <use xlink:href="#DejaVuSans-6c" transform="translate(1651.179688 0)"/>
     <use xlink:href="#DejaVuSans-29" transform="translate(1678.962891 0)"/>
    </g>
   </g>
   <g id="legend_1">
    <g id="patch_37">
     <path d="M 338.875 64.23625 
L 422.75 64.23625 
Q 424.75 64.23625 424.75 62.23625 
L 424.75 33.88 
Q 424.75 31.88 422.75 31.88 
L 338.875 31.88 
Q 336.875 31.88 336.875 33.88 
L 336.875 62.23625 
Q 336.875 64.23625 338.875 64.23625 
z
" style="fill: #ffffff; opacity: 0.8; stroke: #cccccc; stroke-linejoin: miter"/>
    </g>
    <g id="patch_38">
     <path d="M 340.875 43.478437 
L 360.875 43.478437 
L 360.875 36.478437 
L 340.875 36.478437 
z
" style="fill: #0000ff; opacity: 0.6"/>
    </g>
    <g id="text_20">
     <!-- Histogram -->
     <g transform="translate(368.875 43.478437) scale(0.1 -0.1)">
      <defs>
       <path id="DejaVuSans-48" d="M 628 4666 
L 1259 4666 
L 1259 2753 
L 3553 2753 
L 3553 4666 
L 4184 4666 
L 4184 0 
L 3553 0 
L 3553 2222 
L 1259 2222 
L 1259 0 
L 628 0 
L 628 4666 
z
" transform="scale(0.015625)"/>
       <path id="DejaVuSans-67" d="M 2906 1791 
Q 2906 2416 2648 2759 
Q 2391 3103 1925 3103 
Q 1463 3103 1205 2759 
Q 947 2416 947 1791 
Q 947 1169 1205 825 
Q 1463 481 1925 481 
Q 2391 481 2648 825 
Q 2906 1169 2906 1791 
z
M 3481 434 
Q 3481 -459 3084 -895 
Q 2688 -1331 1869 -1331 
Q 1566 -1331 1297 -1286 
Q 1028 -1241 775 -1147 
L 775 -588 
Q 1028 -725 1275 -790 
Q 1522 -856 1778 -856 
Q 2344 -856 2625 -561 
Q 2906 -266 2906 331 
L 2906 616 
Q 2728 306 2450 153 
Q 2172 0 1784 0 
Q 1141 0 747 490 
Q 353 981 353 1791 
Q 353 2603 747 3093 
Q 1141 3584 1784 3584 
Q 2172 3584 2450 3431 
Q 2728 3278 2906 2969 
L 2906 3500 
L 3481 3500 
L 3481 434 
z
" transform="scale(0.015625)"/>
      </defs>
      <use xlink:href="#DejaVuSans-48"/>
      <use xlink:href="#DejaVuSans-69" transform="translate(75.195312 0)"/>
      <use xlink:href="#DejaVuSans-73" transform="translate(102.978516 0)"/>
      <use xlink:href="#DejaVuSans-74" transform="translate(155.078125 0)"/>
      <use xlink:href="#DejaVuSans-6f" transform="translate(194.287109 0)"/>
      <use xlink:href="#DejaVuSans-67" transform="translate(255.46875 0)"/>
      <use xlink:href="#DejaVuSans-72" transform="translate(318.945312 0)"/>
      <use xlink:href="#DejaVuSans-61" transform="translate(360.058594 0)"/>
      <use xlink:href="#DejaVuSans-6d" transform="translate(421.337891 0)"/>
     </g>
    </g>
    <g id="line2d_18">
     <path d="M 340.875 54.656563 
L 350.875 54.656563 
L 360.875 54.656563 
" style="fill: none; stroke: #00008b; stroke-width: 2; stroke-linecap: square"/>
    </g>
    <g id="text_21">
     <!-- KDE -->
     <g transform="translate(368.875 58.156563) scale(0.1 -0.1)">
      <defs>
       <path id="DejaVuSans-4b" d="M 628 4666 
L 1259 4666 
L 1259 2694 
L 3353 4666 
L 4166 4666 
L 1850 2491 
L 4331 0 
L 3500 0 
L 1259 2247 
L 1259 0 
L 628 0 
L 628 4666 
z
" transform="scale(0.015625)"/>
       <path id="DejaVuSans-45" d="M 628 4666 
L 3578 4666 
L 3578 4134 
L 1259 4134 
L 1259 2753 
L 3481 2753 
L 3481 2222 
L 1259 2222 
L 1259 531 
L 3634 531 
L 3634 0 
L 628 0 
L 628 4666 
z
" transform="scale(0.015625)"/>
      </defs>
      <use xlink:href="#DejaVuSans-4b"/>
      <use xlink:href="#DejaVuSans-44" transform="translate(65.576172 0)"/>
      <use xlink:href="#DejaVuSans-45" transform="translate(142.578125 0)"/>
     </g>
    </g>
   </g>
  </g>
  <g id="axes_2">
   <g id="patch_39">
    <path d="M 477.47 318.04 
L 853.2 318.04 
L 853.2 26.88 
L 477.47 26.88 
L 477.47 318.04 
z
" style="fill: none"/>
   </g>
   <g id="patch_40">
    <path d="M 494.548636 318.04 
L 505.934394 318.04 
L 505.934394 296.709597 
L 494.548636 296.709597 
z
" clip-path="url(#p2cca5af3f7)" style="fill: #ff0000; opacity: 0.6"/>
   </g>
   <g id="patch_41">
    <path d="M 505.934394 318.04 
L 517.320152 318.04 
L 517.320152 275.379194 
L 505.934394 275.379194 
z
" clip-path="url(#p2cca5af3f7)" style="fill: #ff0000; opacity: 0.6"/>
   </g>
   <g id="patch_42">
    <path d="M 517.320152 318.04 
L 528.705909 318.04 
L 528.705909 200.722784 
L 517.320152 200.722784 
z
" clip-path="url(#p2cca5af3f7)" style="fill: #ff0000; opacity: 0.6"/>
   </g>
   <g id="patch_43">
    <path d="M 528.705909 318.04 
L 540.091667 318.04 
L 540.091667 142.064176 
L 528.705909 142.064176 
z
" clip-path="url(#p2cca5af3f7)" style="fill: #ff0000; opacity: 0.6"/>
   </g>
   <g id="patch_44">
    <path d="M 540.091667 318.04 
L 551.477424 318.04 
L 551.477424 54.076264 
L 540.091667 54.076264 
z
" clip-path="url(#p2cca5af3f7)" style="fill: #ff0000; opacity: 0.6"/>
   </g>
   <g id="patch_45">
    <path d="M 551.477424 318.04 
L 562.863182 318.04 
L 562.863182 40.744762 
L 551.477424 40.744762 
z
" clip-path="url(#p2cca5af3f7)" style="fill: #ff0000; opacity: 0.6"/>
   </g>
   <g id="patch_46">
    <path d="M 562.863182 318.04 
L 574.248939 318.04 
L 574.248939 62.075165 
L 562.863182 62.075165 
z
" clip-path="url(#p2cca5af3f7)" style="fill: #ff0000; opacity: 0.6"/>
   </g>
   <g id="patch_47">
    <path d="M 574.248939 318.04 
L 585.634697 318.04 
L 585.634697 56.742564 
L 574.248939 56.742564 
z
" clip-path="url(#p2cca5af3f7)" style="fill: #ff0000; opacity: 0.6"/>
   </g>
   <g id="patch_48">
    <path d="M 585.634697 318.04 
L 597.020455 318.04 
L 597.020455 86.071868 
L 585.634697 86.071868 
z
" clip-path="url(#p2cca5af3f7)" style="fill: #ff0000; opacity: 0.6"/>
   </g>
   <g id="patch_49">
    <path d="M 597.020455 318.04 
L 608.406212 318.04 
L 608.406212 182.058681 
L 597.020455 182.058681 
z
" clip-path="url(#p2cca5af3f7)" style="fill: #ff0000; opacity: 0.6"/>
   </g>
   <g id="patch_50">
    <path d="M 608.406212 318.04 
L 619.79197 318.04 
L 619.79197 160.728278 
L 608.406212 160.728278 
z
" clip-path="url(#p2cca5af3f7)" style="fill: #ff0000; opacity: 0.6"/>
   </g>
   <g id="patch_51">
    <path d="M 619.79197 318.04 
L 631.177727 318.04 
L 631.177727 206.055385 
L 619.79197 206.055385 
z
" clip-path="url(#p2cca5af3f7)" style="fill: #ff0000; opacity: 0.6"/>
   </g>
   <g id="patch_52">
    <path d="M 631.177727 318.04 
L 642.563485 318.04 
L 642.563485 219.386886 
L 631.177727 219.386886 
z
" clip-path="url(#p2cca5af3f7)" style="fill: #ff0000; opacity: 0.6"/>
   </g>
   <g id="patch_53">
    <path d="M 642.563485 318.04 
L 653.949242 318.04 
L 653.949242 176.726081 
L 642.563485 176.726081 
z
" clip-path="url(#p2cca5af3f7)" style="fill: #ff0000; opacity: 0.6"/>
   </g>
   <g id="patch_54">
    <path d="M 653.949242 318.04 
L 665.335 318.04 
L 665.335 235.384689 
L 653.949242 235.384689 
z
" clip-path="url(#p2cca5af3f7)" style="fill: #ff0000; opacity: 0.6"/>
   </g>
   <g id="patch_55">
    <path d="M 665.335 318.04 
L 676.720758 318.04 
L 676.720758 240.717289 
L 665.335 240.717289 
z
" clip-path="url(#p2cca5af3f7)" style="fill: #ff0000; opacity: 0.6"/>
   </g>
   <g id="patch_56">
    <path d="M 676.720758 318.04 
L 688.106515 318.04 
L 688.106515 256.715092 
L 676.720758 256.715092 
z
" clip-path="url(#p2cca5af3f7)" style="fill: #ff0000; opacity: 0.6"/>
   </g>
   <g id="patch_57">
    <path d="M 688.106515 318.04 
L 699.492273 318.04 
L 699.492273 283.378095 
L 688.106515 283.378095 
z
" clip-path="url(#p2cca5af3f7)" style="fill: #ff0000; opacity: 0.6"/>
   </g>
   <g id="patch_58">
    <path d="M 699.492273 318.04 
L 710.87803 318.04 
L 710.87803 283.378095 
L 699.492273 283.378095 
z
" clip-path="url(#p2cca5af3f7)" style="fill: #ff0000; opacity: 0.6"/>
   </g>
   <g id="patch_59">
    <path d="M 710.87803 318.04 
L 722.263788 318.04 
L 722.263788 288.710696 
L 710.87803 288.710696 
z
" clip-path="url(#p2cca5af3f7)" style="fill: #ff0000; opacity: 0.6"/>
   </g>
   <g id="patch_60">
    <path d="M 722.263788 318.04 
L 733.649545 318.04 
L 733.649545 294.043297 
L 722.263788 294.043297 
z
" clip-path="url(#p2cca5af3f7)" style="fill: #ff0000; opacity: 0.6"/>
   </g>
   <g id="patch_61">
    <path d="M 733.649545 318.04 
L 745.035303 318.04 
L 745.035303 312.707399 
L 733.649545 312.707399 
z
" clip-path="url(#p2cca5af3f7)" style="fill: #ff0000; opacity: 0.6"/>
   </g>
   <g id="patch_62">
    <path d="M 745.035303 318.04 
L 756.421061 318.04 
L 756.421061 307.374799 
L 745.035303 307.374799 
z
" clip-path="url(#p2cca5af3f7)" style="fill: #ff0000; opacity: 0.6"/>
   </g>
   <g id="patch_63">
    <path d="M 756.421061 318.04 
L 767.806818 318.04 
L 767.806818 315.3737 
L 756.421061 315.3737 
z
" clip-path="url(#p2cca5af3f7)" style="fill: #ff0000; opacity: 0.6"/>
   </g>
   <g id="patch_64">
    <path d="M 767.806818 318.04 
L 779.192576 318.04 
L 779.192576 315.3737 
L 767.806818 315.3737 
z
" clip-path="url(#p2cca5af3f7)" style="fill: #ff0000; opacity: 0.6"/>
   </g>
   <g id="patch_65">
    <path d="M 779.192576 318.04 
L 790.578333 318.04 
L 790.578333 318.04 
L 779.192576 318.04 
z
" clip-path="url(#p2cca5af3f7)" style="fill: #ff0000; opacity: 0.6"/>
   </g>
   <g id="patch_66">
    <path d="M 790.578333 318.04 
L 801.964091 318.04 
L 801.964091 318.04 
L 790.578333 318.04 
z
" clip-path="url(#p2cca5af3f7)" style="fill: #ff0000; opacity: 0.6"/>
   </g>
   <g id="patch_67">
    <path d="M 801.964091 318.04 
L 813.349848 318.04 
L 813.349848 315.3737 
L 801.964091 315.3737 
z
" clip-path="url(#p2cca5af3f7)" style="fill: #ff0000; opacity: 0.6"/>
   </g>
   <g id="patch_68">
    <path d="M 813.349848 318.04 
L 824.735606 318.04 
L 824.735606 318.04 
L 813.349848 318.04 
z
" clip-path="url(#p2cca5af3f7)" style="fill: #ff0000; opacity: 0.6"/>
   </g>
   <g id="patch_69">
    <path d="M 824.735606 318.04 
L 836.121364 318.04 
L 836.121364 312.707399 
L 824.735606 312.707399 
z
" clip-path="url(#p2cca5af3f7)" style="fill: #ff0000; opacity: 0.6"/>
   </g>
   <g id="matplotlib.axis_3">
    <g id="xtick_8">
     <g id="line2d_19">
      <g>
       <use xlink:href="#m389f7a8954" x="484.02011" y="318.04" style="stroke: #000000; stroke-width: 0.8"/>
      </g>
     </g>
     <g id="text_22">
      <!-- −0.5 -->
      <g transform="translate(471.878703 332.638438) scale(0.1 -0.1)">
       <use xlink:href="#DejaVuSans-2212"/>
       <use xlink:href="#DejaVuSans-30" transform="translate(83.789062 0)"/>
       <use xlink:href="#DejaVuSans-2e" transform="translate(147.412109 0)"/>
       <use xlink:href="#DejaVuSans-35" transform="translate(179.199219 0)"/>
      </g>
     </g>
    </g>
    <g id="xtick_9">
     <g id="line2d_20">
      <g>
       <use xlink:href="#m389f7a8954" x="525.97041" y="318.04" style="stroke: #000000; stroke-width: 0.8"/>
      </g>
     </g>
     <g id="text_23">
      <!-- 0.0 -->
      <g transform="translate(518.018848 332.638438) scale(0.1 -0.1)">
       <use xlink:href="#DejaVuSans-30"/>
       <use xlink:href="#DejaVuSans-2e" transform="translate(63.623047 0)"/>
       <use xlink:href="#DejaVuSans-30" transform="translate(95.410156 0)"/>
      </g>
     </g>
    </g>
    <g id="xtick_10">
     <g id="line2d_21">
      <g>
       <use xlink:href="#m389f7a8954" x="567.92071" y="318.04" style="stroke: #000000; stroke-width: 0.8"/>
      </g>
     </g>
     <g id="text_24">
      <!-- 0.5 -->
      <g transform="translate(559.969148 332.638438) scale(0.1 -0.1)">
       <use xlink:href="#DejaVuSans-30"/>
       <use xlink:href="#DejaVuSans-2e" transform="translate(63.623047 0)"/>
       <use xlink:href="#DejaVuSans-35" transform="translate(95.410156 0)"/>
      </g>
     </g>
    </g>
    <g id="xtick_11">
     <g id="line2d_22">
      <g>
       <use xlink:href="#m389f7a8954" x="609.871011" y="318.04" style="stroke: #000000; stroke-width: 0.8"/>
      </g>
     </g>
     <g id="text_25">
      <!-- 1.0 -->
      <g transform="translate(601.919448 332.638438) scale(0.1 -0.1)">
       <use xlink:href="#DejaVuSans-31"/>
       <use xlink:href="#DejaVuSans-2e" transform="translate(63.623047 0)"/>
       <use xlink:href="#DejaVuSans-30" transform="translate(95.410156 0)"/>
      </g>
     </g>
    </g>
    <g id="xtick_12">
     <g id="line2d_23">
      <g>
       <use xlink:href="#m389f7a8954" x="651.821311" y="318.04" style="stroke: #000000; stroke-width: 0.8"/>
      </g>
     </g>
     <g id="text_26">
      <!-- 1.5 -->
      <g transform="translate(643.869749 332.638438) scale(0.1 -0.1)">
       <use xlink:href="#DejaVuSans-31"/>
       <use xlink:href="#DejaVuSans-2e" transform="translate(63.623047 0)"/>
       <use xlink:href="#DejaVuSans-35" transform="translate(95.410156 0)"/>
      </g>
     </g>
    </g>
    <g id="xtick_13">
     <g id="line2d_24">
      <g>
       <use xlink:href="#m389f7a8954" x="693.771612" y="318.04" style="stroke: #000000; stroke-width: 0.8"/>
      </g>
     </g>
     <g id="text_27">
      <!-- 2.0 -->
      <g transform="translate(685.820049 332.638438) scale(0.1 -0.1)">
       <use xlink:href="#DejaVuSans-32"/>
       <use xlink:href="#DejaVuSans-2e" transform="translate(63.623047 0)"/>
       <use xlink:href="#DejaVuSans-30" transform="translate(95.410156 0)"/>
      </g>
     </g>
    </g>
    <g id="xtick_14">
     <g id="line2d_25">
      <g>
       <use xlink:href="#m389f7a8954" x="735.721912" y="318.04" style="stroke: #000000; stroke-width: 0.8"/>
      </g>
     </g>
     <g id="text_28">
      <!-- 2.5 -->
      <g transform="translate(727.77035 332.638438) scale(0.1 -0.1)">
       <use xlink:href="#DejaVuSans-32"/>
       <use xlink:href="#DejaVuSans-2e" transform="translate(63.623047 0)"/>
       <use xlink:href="#DejaVuSans-35" transform="translate(95.410156 0)"/>
      </g>
     </g>
    </g>
    <g id="xtick_15">
     <g id="line2d_26">
      <g>
       <use xlink:href="#m389f7a8954" x="777.672213" y="318.04" style="stroke: #000000; stroke-width: 0.8"/>
      </g>
     </g>
     <g id="text_29">
      <!-- 3.0 -->
      <g transform="translate(769.72065 332.638438) scale(0.1 -0.1)">
       <use xlink:href="#DejaVuSans-33"/>
       <use xlink:href="#DejaVuSans-2e" transform="translate(63.623047 0)"/>
       <use xlink:href="#DejaVuSans-30" transform="translate(95.410156 0)"/>
      </g>
     </g>
    </g>
    <g id="xtick_16">
     <g id="line2d_27">
      <g>
       <use xlink:href="#m389f7a8954" x="819.622513" y="318.04" style="stroke: #000000; stroke-width: 0.8"/>
      </g>
     </g>
     <g id="text_30">
      <!-- 3.5 -->
      <g transform="translate(811.670951 332.638438) scale(0.1 -0.1)">
       <use xlink:href="#DejaVuSans-33"/>
       <use xlink:href="#DejaVuSans-2e" transform="translate(63.623047 0)"/>
       <use xlink:href="#DejaVuSans-35" transform="translate(95.410156 0)"/>
      </g>
     </g>
    </g>
    <g id="text_31">
     <!-- Value -->
     <g transform="translate(651.60375 346.316563) scale(0.1 -0.1)">
      <use xlink:href="#DejaVuSans-56"/>
      <use xlink:href="#DejaVuSans-61" transform="translate(60.658203 0)"/>
      <use xlink:href="#DejaVuSans-6c" transform="translate(121.9375 0)"/>
      <use xlink:href="#DejaVuSans-75" transform="translate(149.720703 0)"/>
      <use xlink:href="#DejaVuSans-65" transform="translate(213.099609 0)"/>
     </g>
    </g>
   </g>
   <g id="matplotlib.axis_4">
    <g id="ytick_10">
     <g id="line2d_28">
      <g>
       <use xlink:href="#mb79b241085" x="477.47" y="318.04" style="stroke: #000000; stroke-width: 0.8"/>
      </g>
     </g>
     <g id="text_32">
      <!-- 0.0 -->
      <g transform="translate(454.566875 321.839219) scale(0.1 -0.1)">
       <use xlink:href="#DejaVuSans-30"/>
       <use xlink:href="#DejaVuSans-2e" transform="translate(63.623047 0)"/>
       <use xlink:href="#DejaVuSans-30" transform="translate(95.410156 0)"/>
      </g>
     </g>
    </g>
    <g id="ytick_11">
     <g id="line2d_29">
      <g>
       <use xlink:href="#mb79b241085" x="477.47" y="281.856887" style="stroke: #000000; stroke-width: 0.8"/>
      </g>
     </g>
     <g id="text_33">
      <!-- 0.1 -->
      <g transform="translate(454.566875 285.656105) scale(0.1 -0.1)">
       <use xlink:href="#DejaVuSans-30"/>
       <use xlink:href="#DejaVuSans-2e" transform="translate(63.623047 0)"/>
       <use xlink:href="#DejaVuSans-31" transform="translate(95.410156 0)"/>
      </g>
     </g>
    </g>
    <g id="ytick_12">
     <g id="line2d_30">
      <g>
       <use xlink:href="#mb79b241085" x="477.47" y="245.673773" style="stroke: #000000; stroke-width: 0.8"/>
      </g>
     </g>
     <g id="text_34">
      <!-- 0.2 -->
      <g transform="translate(454.566875 249.472992) scale(0.1 -0.1)">
       <use xlink:href="#DejaVuSans-30"/>
       <use xlink:href="#DejaVuSans-2e" transform="translate(63.623047 0)"/>
       <use xlink:href="#DejaVuSans-32" transform="translate(95.410156 0)"/>
      </g>
     </g>
    </g>
    <g id="ytick_13">
     <g id="line2d_31">
      <g>
       <use xlink:href="#mb79b241085" x="477.47" y="209.49066" style="stroke: #000000; stroke-width: 0.8"/>
      </g>
     </g>
     <g id="text_35">
      <!-- 0.3 -->
      <g transform="translate(454.566875 213.289879) scale(0.1 -0.1)">
       <use xlink:href="#DejaVuSans-30"/>
       <use xlink:href="#DejaVuSans-2e" transform="translate(63.623047 0)"/>
       <use xlink:href="#DejaVuSans-33" transform="translate(95.410156 0)"/>
      </g>
     </g>
    </g>
    <g id="ytick_14">
     <g id="line2d_32">
      <g>
       <use xlink:href="#mb79b241085" x="477.47" y="173.307546" style="stroke: #000000; stroke-width: 0.8"/>
      </g>
     </g>
     <g id="text_36">
      <!-- 0.4 -->
      <g transform="translate(454.566875 177.106765) scale(0.1 -0.1)">
       <use xlink:href="#DejaVuSans-30"/>
       <use xlink:href="#DejaVuSans-2e" transform="translate(63.623047 0)"/>
       <use xlink:href="#DejaVuSans-34" transform="translate(95.410156 0)"/>
      </g>
     </g>
    </g>
    <g id="ytick_15">
     <g id="line2d_33">
      <g>
       <use xlink:href="#mb79b241085" x="477.47" y="137.124433" style="stroke: #000000; stroke-width: 0.8"/>
      </g>
     </g>
     <g id="text_37">
      <!-- 0.5 -->
      <g transform="translate(454.566875 140.923652) scale(0.1 -0.1)">
       <use xlink:href="#DejaVuSans-30"/>
       <use xlink:href="#DejaVuSans-2e" transform="translate(63.623047 0)"/>
       <use xlink:href="#DejaVuSans-35" transform="translate(95.410156 0)"/>
      </g>
     </g>
    </g>
    <g id="ytick_16">
     <g id="line2d_34">
      <g>
       <use xlink:href="#mb79b241085" x="477.47" y="100.94132" style="stroke: #000000; stroke-width: 0.8"/>
      </g>
     </g>
     <g id="text_38">
      <!-- 0.6 -->
      <g transform="translate(454.566875 104.740538) scale(0.1 -0.1)">
       <defs>
        <path id="DejaVuSans-36" d="M 2113 2584 
Q 1688 2584 1439 2293 
Q 1191 2003 1191 1497 
Q 1191 994 1439 701 
Q 1688 409 2113 409 
Q 2538 409 2786 701 
Q 3034 994 3034 1497 
Q 3034 2003 2786 2293 
Q 2538 2584 2113 2584 
z
M 3366 4563 
L 3366 3988 
Q 3128 4100 2886 4159 
Q 2644 4219 2406 4219 
Q 1781 4219 1451 3797 
Q 1122 3375 1075 2522 
Q 1259 2794 1537 2939 
Q 1816 3084 2150 3084 
Q 2853 3084 3261 2657 
Q 3669 2231 3669 1497 
Q 3669 778 3244 343 
Q 2819 -91 2113 -91 
Q 1303 -91 875 529 
Q 447 1150 447 2328 
Q 447 3434 972 4092 
Q 1497 4750 2381 4750 
Q 2619 4750 2861 4703 
Q 3103 4656 3366 4563 
z
" transform="scale(0.015625)"/>
       </defs>
       <use xlink:href="#DejaVuSans-30"/>
       <use xlink:href="#DejaVuSans-2e" transform="translate(63.623047 0)"/>
       <use xlink:href="#DejaVuSans-36" transform="translate(95.410156 0)"/>
      </g>
     </g>
    </g>
    <g id="ytick_17">
     <g id="line2d_35">
      <g>
       <use xlink:href="#mb79b241085" x="477.47" y="64.758206" style="stroke: #000000; stroke-width: 0.8"/>
      </g>
     </g>
     <g id="text_39">
      <!-- 0.7 -->
      <g transform="translate(454.566875 68.557425) scale(0.1 -0.1)">
       <defs>
        <path id="DejaVuSans-37" d="M 525 4666 
L 3525 4666 
L 3525 4397 
L 1831 0 
L 1172 0 
L 2766 4134 
L 525 4134 
L 525 4666 
z
" transform="scale(0.015625)"/>
       </defs>
       <use xlink:href="#DejaVuSans-30"/>
       <use xlink:href="#DejaVuSans-2e" transform="translate(63.623047 0)"/>
       <use xlink:href="#DejaVuSans-37" transform="translate(95.410156 0)"/>
      </g>
     </g>
    </g>
    <g id="ytick_18">
     <g id="line2d_36">
      <g>
       <use xlink:href="#mb79b241085" x="477.47" y="28.575093" style="stroke: #000000; stroke-width: 0.8"/>
      </g>
     </g>
     <g id="text_40">
      <!-- 0.8 -->
      <g transform="translate(454.566875 32.374312) scale(0.1 -0.1)">
       <defs>
        <path id="DejaVuSans-38" d="M 2034 2216 
Q 1584 2216 1326 1975 
Q 1069 1734 1069 1313 
Q 1069 891 1326 650 
Q 1584 409 2034 409 
Q 2484 409 2743 651 
Q 3003 894 3003 1313 
Q 3003 1734 2745 1975 
Q 2488 2216 2034 2216 
z
M 1403 2484 
Q 997 2584 770 2862 
Q 544 3141 544 3541 
Q 544 4100 942 4425 
Q 1341 4750 2034 4750 
Q 2731 4750 3128 4425 
Q 3525 4100 3525 3541 
Q 3525 3141 3298 2862 
Q 3072 2584 2669 2484 
Q 3125 2378 3379 2068 
Q 3634 1759 3634 1313 
Q 3634 634 3220 271 
Q 2806 -91 2034 -91 
Q 1263 -91 848 271 
Q 434 634 434 1313 
Q 434 1759 690 2068 
Q 947 2378 1403 2484 
z
M 1172 3481 
Q 1172 3119 1398 2916 
Q 1625 2713 2034 2713 
Q 2441 2713 2670 2916 
Q 2900 3119 2900 3481 
Q 2900 3844 2670 4047 
Q 2441 4250 2034 4250 
Q 1625 4250 1398 4047 
Q 1172 3844 1172 3481 
z
" transform="scale(0.015625)"/>
       </defs>
       <use xlink:href="#DejaVuSans-30"/>
       <use xlink:href="#DejaVuSans-2e" transform="translate(63.623047 0)"/>
       <use xlink:href="#DejaVuSans-38" transform="translate(95.410156 0)"/>
      </g>
     </g>
    </g>
    <g id="text_41">
     <!-- Density -->
     <g transform="translate(448.487188 191.468594) rotate(-90) scale(0.1 -0.1)">
      <use xlink:href="#DejaVuSans-44"/>
      <use xlink:href="#DejaVuSans-65" transform="translate(77.001953 0)"/>
      <use xlink:href="#DejaVuSans-6e" transform="translate(138.525391 0)"/>
      <use xlink:href="#DejaVuSans-73" transform="translate(201.904297 0)"/>
      <use xlink:href="#DejaVuSans-69" transform="translate(254.003906 0)"/>
      <use xlink:href="#DejaVuSans-74" transform="translate(281.787109 0)"/>
      <use xlink:href="#DejaVuSans-79" transform="translate(320.996094 0)"/>
     </g>
    </g>
   </g>
   <g id="line2d_37">
    <path d="M 494.548636 299.686246 
L 496.600124 296.087947 
L 498.651612 291.994476 
L 500.7031 287.371924 
L 502.754588 282.190641 
L 504.806076 276.427224 
L 506.857563 270.066464 
L 509.250966 261.884045 
L 511.644368 252.892152 
L 514.379686 241.665921 
L 517.115003 229.503588 
L 520.192235 214.839571 
L 523.953296 195.783796 
L 529.42393 166.69831 
L 536.262223 130.406639 
L 539.681369 113.459287 
L 542.416686 100.991161 
L 544.810089 91.11061 
L 546.861577 83.529942 
L 548.913064 76.847573 
L 550.622638 71.999682 
L 552.332211 67.820342 
L 554.041784 64.307481 
L 555.409443 61.967408 
L 556.777101 60.031702 
L 558.14476 58.48384 
L 559.512418 57.304599 
L 560.880077 56.473132 
L 562.247735 55.968095 
L 563.615394 55.76873 
L 564.983053 55.855879 
L 566.350711 56.212834 
L 567.71837 56.825998 
L 569.086028 57.685314 
L 570.453687 58.784429 
L 572.16326 60.491661 
L 573.872833 62.571074 
L 575.582406 65.03012 
L 577.29198 67.879466 
L 579.001553 71.129832 
L 581.053041 75.569654 
L 583.104529 80.597276 
L 585.156016 86.192737 
L 587.549419 93.37823 
L 590.284736 102.314592 
L 594.045797 115.43799 
L 601.567919 141.857242 
L 604.645151 151.778132 
L 607.380468 159.883442 
L 610.115785 167.246653 
L 612.509188 173.065345 
L 614.90259 178.306494 
L 617.295993 182.981633 
L 619.347481 186.547557 
L 621.398969 189.7137 
L 623.450456 192.488472 
L 625.501944 194.884487 
L 627.553432 196.922267 
L 629.60492 198.633775 
L 631.656408 200.064976 
L 634.04981 201.462353 
L 637.810871 203.349274 
L 641.230018 205.131835 
L 643.62342 206.633773 
L 645.674908 208.18073 
L 647.726396 210.012326 
L 649.777884 212.145366 
L 652.171286 215.001823 
L 654.906603 218.682768 
L 658.32575 223.714797 
L 668.583189 239.105427 
L 673.369994 245.703048 
L 682.943604 258.36776 
L 689.439982 266.740205 
L 693.201043 271.228218 
L 696.278275 274.571584 
L 699.355507 277.575208 
L 702.432739 280.247775 
L 705.851885 282.891902 
L 709.954861 285.758902 
L 718.844641 291.595058 
L 733.546971 301.114197 
L 738.675691 304.141107 
L 743.120581 306.529919 
L 747.223557 308.50276 
L 751.326532 310.229313 
L 755.429508 311.702077 
L 759.532484 312.932 
L 763.977374 314.023986 
L 769.106094 315.036827 
L 774.918643 315.94201 
L 780.731192 316.617908 
L 786.201826 317.021775 
L 791.67246 317.186854 
L 798.168838 317.132888 
L 812.187339 316.700396 
L 833.044132 316.108413 
L 836.121364 316.175266 
L 836.121364 316.175266 
" clip-path="url(#p2cca5af3f7)" style="fill: none; stroke: #8b0000; stroke-width: 2; stroke-linecap: square"/>
   </g>
   <g id="patch_70">
    <path d="M 477.47 318.04 
L 477.47 26.88 
" style="fill: none; stroke: #000000; stroke-width: 0.8; stroke-linejoin: miter; stroke-linecap: square"/>
   </g>
   <g id="patch_71">
    <path d="M 853.2 318.04 
L 853.2 26.88 
" style="fill: none; stroke: #000000; stroke-width: 0.8; stroke-linejoin: miter; stroke-linecap: square"/>
   </g>
   <g id="patch_72">
    <path d="M 477.47 318.04 
L 853.2 318.04 
" style="fill: none; stroke: #000000; stroke-width: 0.8; stroke-linejoin: miter; stroke-linecap: square"/>
   </g>
   <g id="patch_73">
    <path d="M 477.47 26.88 
L 853.2 26.88 
" style="fill: none; stroke: #000000; stroke-width: 0.8; stroke-linejoin: miter; stroke-linecap: square"/>
   </g>
   <g id="text_42">
    <!-- Skewed Distribution (Right-Skewed) -->
    <g transform="translate(557.54125 20.88) scale(0.12 -0.12)">
     <defs>
      <path id="DejaVuSans-6b" d="M 581 4863 
L 1159 4863 
L 1159 1991 
L 2875 3500 
L 3609 3500 
L 1753 1863 
L 3688 0 
L 2938 0 
L 1159 1709 
L 1159 0 
L 581 0 
L 581 4863 
z
" transform="scale(0.015625)"/>
      <path id="DejaVuSans-77" d="M 269 3500 
L 844 3500 
L 1563 769 
L 2278 3500 
L 2956 3500 
L 3675 769 
L 4391 3500 
L 4966 3500 
L 4050 0 
L 3372 0 
L 2619 2869 
L 1863 0 
L 1184 0 
L 269 3500 
z
" transform="scale(0.015625)"/>
      <path id="DejaVuSans-64" d="M 2906 2969 
L 2906 4863 
L 3481 4863 
L 3481 0 
L 2906 0 
L 2906 525 
Q 2725 213 2448 61 
Q 2172 -91 1784 -91 
Q 1150 -91 751 415 
Q 353 922 353 1747 
Q 353 2572 751 3078 
Q 1150 3584 1784 3584 
Q 2172 3584 2448 3432 
Q 2725 3281 2906 2969 
z
M 947 1747 
Q 947 1113 1208 752 
Q 1469 391 1925 391 
Q 2381 391 2643 752 
Q 2906 1113 2906 1747 
Q 2906 2381 2643 2742 
Q 2381 3103 1925 3103 
Q 1469 3103 1208 2742 
Q 947 2381 947 1747 
z
" transform="scale(0.015625)"/>
      <path id="DejaVuSans-52" d="M 2841 2188 
Q 3044 2119 3236 1894 
Q 3428 1669 3622 1275 
L 4263 0 
L 3584 0 
L 2988 1197 
Q 2756 1666 2539 1819 
Q 2322 1972 1947 1972 
L 1259 1972 
L 1259 0 
L 628 0 
L 628 4666 
L 2053 4666 
Q 2853 4666 3247 4331 
Q 3641 3997 3641 3322 
Q 3641 2881 3436 2590 
Q 3231 2300 2841 2188 
z
M 1259 4147 
L 1259 2491 
L 2053 2491 
Q 2509 2491 2742 2702 
Q 2975 2913 2975 3322 
Q 2975 3731 2742 3939 
Q 2509 4147 2053 4147 
L 1259 4147 
z
" transform="scale(0.015625)"/>
      <path id="DejaVuSans-68" d="M 3513 2113 
L 3513 0 
L 2938 0 
L 2938 2094 
Q 2938 2591 2744 2837 
Q 2550 3084 2163 3084 
Q 1697 3084 1428 2787 
Q 1159 2491 1159 1978 
L 1159 0 
L 581 0 
L 581 4863 
L 1159 4863 
L 1159 2956 
Q 1366 3272 1645 3428 
Q 1925 3584 2291 3584 
Q 2894 3584 3203 3211 
Q 3513 2838 3513 2113 
z
" transform="scale(0.015625)"/>
      <path id="DejaVuSans-2d" d="M 313 2009 
L 1997 2009 
L 1997 1497 
L 313 1497 
L 313 2009 
z
" transform="scale(0.015625)"/>
     </defs>
     <use xlink:href="#DejaVuSans-53"/>
     <use xlink:href="#DejaVuSans-6b" transform="translate(63.476562 0)"/>
     <use xlink:href="#DejaVuSans-65" transform="translate(117.761719 0)"/>
     <use xlink:href="#DejaVuSans-77" transform="translate(179.285156 0)"/>
     <use xlink:href="#DejaVuSans-65" transform="translate(261.072266 0)"/>
     <use xlink:href="#DejaVuSans-64" transform="translate(322.595703 0)"/>
     <use xlink:href="#DejaVuSans-20" transform="translate(386.072266 0)"/>
     <use xlink:href="#DejaVuSans-44" transform="translate(417.859375 0)"/>
     <use xlink:href="#DejaVuSans-69" transform="translate(494.861328 0)"/>
     <use xlink:href="#DejaVuSans-73" transform="translate(522.644531 0)"/>
     <use xlink:href="#DejaVuSans-74" transform="translate(574.744141 0)"/>
     <use xlink:href="#DejaVuSans-72" transform="translate(613.953125 0)"/>
     <use xlink:href="#DejaVuSans-69" transform="translate(655.066406 0)"/>
     <use xlink:href="#DejaVuSans-62" transform="translate(682.849609 0)"/>
     <use xlink:href="#DejaVuSans-75" transform="translate(746.326172 0)"/>
     <use xlink:href="#DejaVuSans-74" transform="translate(809.705078 0)"/>
     <use xlink:href="#DejaVuSans-69" transform="translate(848.914062 0)"/>
     <use xlink:href="#DejaVuSans-6f" transform="translate(876.697266 0)"/>
     <use xlink:href="#DejaVuSans-6e" transform="translate(937.878906 0)"/>
     <use xlink:href="#DejaVuSans-20" transform="translate(1001.257812 0)"/>
     <use xlink:href="#DejaVuSans-28" transform="translate(1033.044922 0)"/>
     <use xlink:href="#DejaVuSans-52" transform="translate(1072.058594 0)"/>
     <use xlink:href="#DejaVuSans-69" transform="translate(1141.541016 0)"/>
     <use xlink:href="#DejaVuSans-67" transform="translate(1169.324219 0)"/>
     <use xlink:href="#DejaVuSans-68" transform="translate(1232.800781 0)"/>
     <use xlink:href="#DejaVuSans-74" transform="translate(1296.179688 0)"/>
     <use xlink:href="#DejaVuSans-2d" transform="translate(1335.388672 0)"/>
     <use xlink:href="#DejaVuSans-53" transform="translate(1371.472656 0)"/>
     <use xlink:href="#DejaVuSans-6b" transform="translate(1434.949219 0)"/>
     <use xlink:href="#DejaVuSans-65" transform="translate(1489.234375 0)"/>
     <use xlink:href="#DejaVuSans-77" transform="translate(1550.757812 0)"/>
     <use xlink:href="#DejaVuSans-65" transform="translate(1632.544922 0)"/>
     <use xlink:href="#DejaVuSans-64" transform="translate(1694.068359 0)"/>
     <use xlink:href="#DejaVuSans-29" transform="translate(1757.544922 0)"/>
    </g>
   </g>
   <g id="legend_2">
    <g id="patch_74">
     <path d="M 762.325 64.23625 
L 846.2 64.23625 
Q 848.2 64.23625 848.2 62.23625 
L 848.2 33.88 
Q 848.2 31.88 846.2 31.88 
L 762.325 31.88 
Q 760.325 31.88 760.325 33.88 
L 760.325 62.23625 
Q 760.325 64.23625 762.325 64.23625 
z
" style="fill: #ffffff; opacity: 0.8; stroke: #cccccc; stroke-linejoin: miter"/>
    </g>
    <g id="patch_75">
     <path d="M 764.325 43.478437 
L 784.325 43.478437 
L 784.325 36.478437 
L 764.325 36.478437 
z
" style="fill: #ff0000; opacity: 0.6"/>
    </g>
    <g id="text_43">
     <!-- Histogram -->
     <g transform="translate(792.325 43.478437) scale(0.1 -0.1)">
      <use xlink:href="#DejaVuSans-48"/>
      <use xlink:href="#DejaVuSans-69" transform="translate(75.195312 0)"/>
      <use xlink:href="#DejaVuSans-73" transform="translate(102.978516 0)"/>
      <use xlink:href="#DejaVuSans-74" transform="translate(155.078125 0)"/>
      <use xlink:href="#DejaVuSans-6f" transform="translate(194.287109 0)"/>
      <use xlink:href="#DejaVuSans-67" transform="translate(255.46875 0)"/>
      <use xlink:href="#DejaVuSans-72" transform="translate(318.945312 0)"/>
      <use xlink:href="#DejaVuSans-61" transform="translate(360.058594 0)"/>
      <use xlink:href="#DejaVuSans-6d" transform="translate(421.337891 0)"/>
     </g>
    </g>
    <g id="line2d_38">
     <path d="M 764.325 54.656563 
L 774.325 54.656563 
L 784.325 54.656563 
" style="fill: none; stroke: #8b0000; stroke-width: 2; stroke-linecap: square"/>
    </g>
    <g id="text_44">
     <!-- KDE -->
     <g transform="translate(792.325 58.156563) scale(0.1 -0.1)">
      <use xlink:href="#DejaVuSans-4b"/>
      <use xlink:href="#DejaVuSans-44" transform="translate(65.576172 0)"/>
      <use xlink:href="#DejaVuSans-45" transform="translate(142.578125 0)"/>
     </g>
    </g>
   </g>
  </g>
 </g>
 <defs>
  <clipPath id="p6d17bb7d4e">
   <rect x="54.02" y="26.88" width="375.73" height="291.16"/>
  </clipPath>
  <clipPath id="p2cca5af3f7">
   <rect x="477.47" y="26.88" width="375.73" height="291.16"/>
  </clipPath>
 </defs>
</svg>
